<?xml version="1.0" standalone="no"?>
<!DOCTYPE svg PUBLIC "-//W3C//DTD SVG 1.1//EN" "http://www.w3.org/Graphics/SVG/1.1/DTD/svg11.dtd" >
<svg xmlns="http://www.w3.org/2000/svg" xmlns:xlink="http://www.w3.org/1999/xlink" version="1.1">
<metadata>
Created by FontForge 20200427 at Wed Jul 29 09:14:27 2020
 By www
Copyright (c) 2017 by Timo Gaessner. All rights reserved.
</metadata>
<defs>
<font id="MaisonNeue-Book" horiz-adv-x="650" >
  <font-face 
    font-family="Maison Neue Book"
    font-weight="400"
    font-stretch="normal"
    units-per-em="1000"
    panose-1="2 11 5 4 4 0 0 0 0 0"
    ascent="755"
    descent="-245"
    x-height="530"
    cap-height="700"
    bbox="-642 -300 2106 1014"
    underline-thickness="70"
    underline-position="-190"
    unicode-range="U+000D-FEFF"
  />
<missing-glyph horiz-adv-x="686" 
d="M65 -5h26l66 65l67 -65l63 65l69 -65l71 65l63 -65l68 65l65 -65h28v423q-3 132 -86 211t-208 81q-124 -2 -206 -81q-83 -79 -86 -211v-423zM165 300l-14 14l63 63l-63 64l14 14l63 -64l64 64l14 -14l-64 -64l64 -63l-14 -14l-64 63zM425 300l-14 14l63 63l-63 64l14 14
l63 -64l64 64l14 -14l-64 -64l64 -63l-14 -14l-64 63z" />
    <glyph glyph-name=".notdef" horiz-adv-x="686" 
d="M65 -5h26l66 65l67 -65l63 65l69 -65l71 65l63 -65l68 65l65 -65h28v423q-3 132 -86 211t-208 81q-124 -2 -206 -81q-83 -79 -86 -211v-423zM165 300l-14 14l63 63l-63 64l14 14l63 -64l64 64l14 -14l-64 -64l64 -63l-14 -14l-64 63zM425 300l-14 14l63 63l-63 64l14 14
l63 -64l64 64l14 -14l-64 -64l64 -63l-14 -14l-64 63z" />
    <glyph glyph-name=".null" horiz-adv-x="0" 
 />
    <glyph glyph-name="uni000D" unicode="&#xd;" horiz-adv-x="351" 
 />
    <glyph glyph-name="space" unicode=" " horiz-adv-x="270" 
 />
    <glyph glyph-name="exclam" unicode="!" horiz-adv-x="390" 
d="M154 206h83v494h-83v-494zM136 0h119v116h-119v-116z" />
    <glyph glyph-name="quotedbl" unicode="&#x22;" horiz-adv-x="387" 
d="M91 477h73v223h-73v-223zM223 477h73v223h-73v-223z" />
    <glyph glyph-name="numbersign" unicode="#" horiz-adv-x="786" 
d="M713 446l12 70h-153l33 184h-78l-33 -184h-145l33 184h-77l-33 -184h-154l-12 -70h154l-33 -187h-154l-12 -71h153l-33 -188h77l33 188h145l-33 -188h78l33 188h154l12 71h-153l33 187h153zM449 259h-145l33 187h145z" />
    <glyph glyph-name="dollar" unicode="$" horiz-adv-x="655" 
d="M610 177q-5 105 -83 153q-78 47 -176 71v235q63 -9 100 -45t51 -96l82 16q-15 83 -75 137q-61 53 -158 65v88h-49v-86q-102 -3 -166 -54q-64 -50 -66 -133q4 -88 73 -129q68 -41 159 -63v-272q-75 9 -119 52q-44 44 -56 129l-82 -13q12 -112 79 -173q67 -62 178 -72v-97
h49v95q119 2 188 54q69 53 71 138v0zM150 530q1 50 43 79q42 28 109 30v-224q-65 18 -107 44q-43 25 -45 71v0zM351 61v260q73 -20 125 -51q51 -32 53 -94q-1 -53 -47 -84q-46 -30 -131 -31v0z" />
    <glyph glyph-name="percent" unicode="%" horiz-adv-x="1003" 
d="M295 -72l486 809l-62 38l-487 -811zM236 271q83 1 129 59q47 58 48 160q-1 102 -48 160q-46 58 -129 59q-82 -1 -128 -59t-47 -160q1 -102 47 -160t128 -59v0zM236 339q-49 0 -74 39q-26 39 -26 112t26 112q25 39 74 39q50 0 76 -39t26 -112t-26 -112t-76 -39v0zM766 -9
q83 1 129 59q47 58 48 160q-1 102 -48 160q-46 58 -129 59q-82 -1 -128 -59t-47 -160q1 -102 47 -160t128 -59v0zM766 59q-49 0 -74 39q-26 39 -26 112t26 112q25 39 74 39q50 0 75 -39q26 -39 26 -112t-26 -112q-25 -39 -75 -39v0z" />
    <glyph glyph-name="ampersand" unicode="&#x26;" horiz-adv-x="672" 
d="M647 98l-91 81v213h-76v-146l-223 198q-35 30 -47 54q-13 24 -12 52q1 42 29 67q27 24 76 25q48 0 75 -25q28 -24 38 -73l77 13q-12 74 -62 116q-50 41 -129 42q-81 -1 -131 -46t-51 -116q0 -41 19 -78t63 -78q-69 -40 -105 -94t-36 -113q1 -96 64 -150q64 -54 177 -55
q85 0 144 30t88 87l66 -59zM302 58q-76 1 -119 36t-44 96q-1 46 27 85q27 39 89 74l218 -193q-16 -48 -61 -73q-44 -25 -110 -25v0z" />
    <glyph glyph-name="quotesingle" unicode="'" horiz-adv-x="255" 
d="M91 477h73v223h-73v-223z" />
    <glyph glyph-name="parenleft" unicode="(" horiz-adv-x="366" 
d="M291 -197l54 44q-91 108 -131 214q-41 107 -40 234q-1 127 40 234q40 106 131 214l-54 44q-103 -114 -152 -234q-48 -120 -48 -258t48 -258q49 -120 152 -234v0z" />
    <glyph glyph-name="parenright" unicode=")" horiz-adv-x="366" 
d="M75 -197q103 114 152 234q48 120 48 258t-48 258q-49 120 -152 234l-54 -44q91 -108 131 -214q41 -107 40 -234q1 -127 -40 -234q-40 -106 -131 -214z" />
    <glyph glyph-name="asterisk" unicode="*" horiz-adv-x="489" 
d="M139 340l106 130l105 -130l49 44l-93 111l122 74l-33 54l-118 -68v144h-65v-144l-118 68l-33 -54l122 -74l-93 -111z" />
    <glyph glyph-name="plus" unicode="+" horiz-adv-x="590" 
d="M529 401h-198v213h-71v-213h-199v-67h199v-213h71v213h198v67z" />
    <glyph glyph-name="comma" unicode="," horiz-adv-x="303" 
d="M96 -104q57 3 87 34q30 30 30 85v98h-122v-113h52q0 -27 -11 -42q-11 -14 -36 -18v-44z" />
    <glyph glyph-name="hyphen" unicode="-" horiz-adv-x="363" 
d="M51 259h261v75h-261v-75z" />
    <glyph glyph-name="period" unicode="." horiz-adv-x="301" 
d="M91 0h119v116h-119v-116z" />
    <glyph glyph-name="slash" unicode="/" horiz-adv-x="445" 
d="M71 -38l358 753l-56 25l-357 -755z" />
    <glyph glyph-name="zero" unicode="0" horiz-adv-x="644" 
d="M322 -14q124 1 200 93q75 92 77 257q-2 165 -77 257t-200 93q-125 -1 -200 -93t-77 -257q2 -165 77 -257q76 -92 200 -93v0zM322 59q-91 1 -144 73q-54 71 -55 204q1 133 55 205q53 71 144 72q91 -1 144 -72q54 -72 55 -205q-1 -133 -55 -204q-53 -72 -144 -73v0z" />
    <glyph glyph-name="one" unicode="1" horiz-adv-x="371" 
d="M192 0h78v672h-69l-166 -104v-84l157 98v-582z" />
    <glyph glyph-name="two" unicode="2" horiz-adv-x="596" 
d="M165 159q11 23 47 47t122 65q114 54 161 106q48 52 46 124q-2 80 -66 132q-63 51 -162 53q-113 -1 -181 -62q-69 -61 -76 -169l77 -6q6 79 53 121q46 43 127 43q68 -1 108 -32q41 -30 42 -80q2 -48 -40 -87q-42 -40 -149 -91q-82 -40 -122 -69t-58 -61q-14 -24 -21 -56
q-7 -31 -7 -74v-63h464v73h-381q1 32 5 52t11 34v0z" />
    <glyph glyph-name="three" unicode="3" horiz-adv-x="588" 
d="M303 -14q105 1 167 56t63 148q0 64 -30 109q-30 46 -84 66v2q45 20 70 58q26 38 26 83q-1 81 -59 129q-57 48 -154 49q-98 -1 -161 -51q-64 -50 -77 -137l77 -11q10 60 52 93t109 33q64 0 99 -30q35 -29 36 -81q-1 -47 -43 -77q-42 -31 -106 -32h-50v-69h50q84 0 126 -33
q41 -33 41 -101q-1 -59 -41 -95q-41 -35 -111 -36q-79 0 -124 44q-46 44 -56 132l-77 -12q13 -114 79 -175t178 -62v0z" />
    <glyph glyph-name="four" unicode="4" horiz-adv-x="560" 
d="M361 0h78v134h91v73h-91v465h-118l-311 -466v-72h351v-134zM89 207l270 403h2v-403h-272z" />
    <glyph glyph-name="five" unicode="5" horiz-adv-x="585" 
d="M296 -14q114 2 182 66q69 64 71 173q-2 102 -68 165q-66 64 -173 66q-50 0 -90 -12q-41 -13 -72 -36l-2 1l39 190h306v73h-366l-68 -339l71 -18q33 33 74 52q42 20 96 20q81 -1 128 -46q46 -45 47 -116q-1 -76 -48 -120q-48 -45 -127 -46q-77 0 -121 35q-45 35 -60 103
l-75 -19q21 -91 86 -141t170 -51v0z" />
    <glyph glyph-name="six" unicode="6" horiz-adv-x="614" 
d="M340 447q-75 -1 -129 -29t-80 -74h-3q6 124 63 196t145 73q58 1 98 -29q39 -29 58 -95l76 18q-23 88 -84 133q-61 46 -150 46q-127 -3 -207 -101q-79 -98 -82 -259q1 -158 75 -248t211 -92q106 1 176 63q69 61 72 168q-2 102 -68 165t-171 65v0zM331 59q-83 1 -130 45
t-48 113q1 70 49 115q47 45 128 46q76 -1 123 -44t48 -117q-2 -76 -51 -117t-119 -41v0z" />
    <glyph glyph-name="seven" unicode="7" horiz-adv-x="502" 
d="M99 0h87l286 603v69h-457v-73h369v-1z" />
    <glyph glyph-name="eight" unicode="8" horiz-adv-x="566" 
d="M283 -15q119 1 188 56q69 54 70 145q-1 64 -36 110t-97 70v2q47 25 71 60q23 35 23 81q-2 78 -62 127t-157 50q-97 -1 -157 -50t-62 -127q0 -47 24 -82q23 -35 71 -59v-2q-63 -24 -98 -70t-36 -110q2 -91 71 -145q69 -55 187 -56v0zM283 398q-65 1 -102 29q-38 29 -39 78
q1 50 39 80q37 30 102 31q64 -1 103 -31q38 -30 39 -80q-1 -49 -39 -78q-38 -28 -103 -29v0zM283 60q-83 1 -129 35q-47 35 -48 96q1 61 48 97t129 37q82 -1 129 -37t48 -97q-1 -61 -48 -96q-47 -34 -129 -35v0z" />
    <glyph glyph-name="nine" unicode="9" horiz-adv-x="590" 
d="M283 686q-109 -2 -178 -64q-68 -62 -70 -163q1 -108 65 -170q65 -61 179 -62q62 0 107 20t72 56h3q-6 -130 -47 -187t-124 -56q-53 0 -91 27q-38 28 -58 89l-76 -20q23 -82 81 -126q59 -45 144 -45q133 -1 195 93q61 94 60 297q-2 155 -72 233t-190 78v0zM283 300
q-77 1 -122 43q-44 42 -45 116q1 69 46 110q44 41 121 42q76 -1 121 -43q44 -42 45 -114q-1 -70 -46 -111q-45 -42 -120 -43v0z" />
    <glyph glyph-name="colon" unicode=":" horiz-adv-x="301" 
d="M91 340h119v116h-119v-116zM91 0h119v116h-119v-116z" />
    <glyph glyph-name="semicolon" unicode=";" horiz-adv-x="303" 
d="M93 340h119v116h-119v-116zM96 -104q57 3 87 34q30 30 30 85v98h-122v-113h52q0 -27 -11 -42q-11 -14 -36 -18v-44z" />
    <glyph glyph-name="less" unicode="&#x3c;" horiz-adv-x="551" 
d="M449 83l41 63l-344 205l344 205l-41 63l-388 -234v-68z" />
    <glyph glyph-name="equal" unicode="=" horiz-adv-x="553" 
d="M61 411h432v72h-432v-72zM61 223h432v72h-432v-72z" />
    <glyph glyph-name="greater" unicode="&#x3e;" horiz-adv-x="551" 
d="M102 83l388 234v68l-388 234l-41 -63l344 -205l-344 -205z" />
    <glyph glyph-name="question" unicode="?" horiz-adv-x="590" 
d="M224 190h80v57q-1 31 14 52q14 20 51 42q71 39 106 84t35 108q-2 82 -60 132q-58 49 -142 50q-110 -2 -173 -64q-63 -61 -66 -160l82 -4q5 70 43 110q39 39 114 40q51 -1 84 -28q34 -28 35 -76q0 -40 -24 -72q-25 -31 -80 -63q-51 -30 -75 -64q-24 -35 -24 -80v-64z
M207 0h119v116h-119v-116z" />
    <glyph glyph-name="at" unicode="@" horiz-adv-x="807" 
d="M408 -75q55 0 107 12q51 11 101 38l-25 55q-43 -23 -89 -35q-46 -11 -94 -11q-133 1 -208 80t-76 227q2 138 79 220q77 83 201 85q132 -1 205 -78t74 -211q0 -80 -20 -120q-20 -41 -58 -41q-29 -1 -42 17q-13 17 -13 61v136q-1 62 -37 97q-37 35 -97 36q-65 -1 -104 -34
q-40 -33 -50 -93l69 -12q7 36 28 55q20 19 57 19q25 0 42 -12q17 -13 18 -34q1 -22 -21 -35t-84 -31q-59 -18 -86 -46q-26 -28 -26 -72q1 -54 35 -84q35 -30 91 -30q37 0 68 14t50 40h2q12 -26 36 -39q23 -13 59 -13q72 0 109 55q38 56 38 166q-1 156 -92 251
q-90 94 -251 97q-153 -3 -246 -103q-94 -100 -97 -261q2 -174 94 -269q92 -96 253 -97v0zM392 149q-29 0 -44 13q-16 14 -16 40q0 20 13 34q14 14 48 24q39 12 59 22q19 11 23 21h2v-80q-1 -34 -24 -54q-24 -20 -61 -20v0z" />
    <glyph glyph-name="A" unicode="A" horiz-adv-x="593" 
d="M503 0h85l-251 700h-80l-252 -700h85l49 141h315zM165 213l131 374h2l131 -374h-264z" />
    <glyph glyph-name="B" unicode="B" horiz-adv-x="631" 
d="M86 0h253q121 0 183 53q63 52 63 154q-1 61 -30 105q-29 43 -78 61v2q39 18 60 55q22 38 22 89q-1 83 -56 131q-55 49 -148 50h-269v-700zM168 403v219h172q68 0 102 -27t34 -80q0 -112 -136 -112h-172zM168 78v252h162q91 0 132 -29t40 -94q1 -67 -41 -98t-133 -31h-160
z" />
    <glyph glyph-name="C" unicode="C" horiz-adv-x="645" 
d="M340 -15q117 1 188 70q71 70 82 193l-85 11q-10 -96 -57 -146t-128 -50q-100 1 -155 76q-56 76 -57 211q1 134 57 210t155 77q77 0 124 -46t62 -134l82 14q-16 113 -87 178q-72 65 -181 66q-135 -2 -214 -100t-81 -265q2 -168 80 -266q79 -97 215 -99v0z" />
    <glyph glyph-name="D" unicode="D" horiz-adv-x="651" 
d="M86 0h212q139 -1 223 83q83 84 85 268q-2 167 -85 257q-82 91 -217 92h-218v-700zM168 78v544h131q103 0 163 -68q60 -69 61 -203q-1 -147 -62 -211q-60 -63 -168 -62h-125z" />
    <glyph glyph-name="E" unicode="E" horiz-adv-x="561" 
d="M86 0h420v78h-338v246h310v74h-310v224h338v78h-420v-700z" />
    <glyph glyph-name="F" unicode="F" horiz-adv-x="552" 
d="M86 0h82v298h311v74h-311v250h339v78h-421v-700z" />
    <glyph glyph-name="G" unicode="G" horiz-adv-x="653" 
d="M340 -15q124 2 196 79q71 77 72 211v71h-259v-78h178q2 -96 -47 -150t-140 -55q-99 1 -155 77t-57 210q1 134 57 210t155 77q75 0 122 -43q47 -42 62 -125l82 15q-17 106 -88 168t-178 63q-136 -2 -215 -99q-78 -97 -80 -266q2 -168 80 -266q79 -97 215 -99v0z" />
    <glyph glyph-name="H" unicode="H" horiz-adv-x="652" 
d="M86 0h82v324h316v-324h82v700h-82v-304h-316v304h-82v-700z" />
    <glyph glyph-name="I" unicode="I" horiz-adv-x="254" 
d="M86 0h82v700h-82v-700z" />
    <glyph glyph-name="J" unicode="J" horiz-adv-x="522" 
d="M235 -15q92 1 148 61t58 172v482h-83v-478q0 -78 -31 -118q-32 -41 -92 -41t-89 34q-30 33 -36 105l-80 -9q8 -104 60 -156t145 -52v0z" />
    <glyph glyph-name="K" unicode="K" horiz-adv-x="601" 
d="M86 0h82v220l90 109h2l235 -329h101l-283 393l255 307h-101l-297 -363h-2v363h-82v-700z" />
    <glyph glyph-name="L" unicode="L" horiz-adv-x="519" 
d="M86 0h398v78h-316v622h-82v-700z" />
    <glyph glyph-name="M" unicode="M" horiz-adv-x="847" 
d="M86 0h82v568h2l236 -568h35l236 568h2v-568h83v700h-110l-227 -556h-2l-227 556h-110v-700z" />
    <glyph glyph-name="N" unicode="N" horiz-adv-x="672" 
d="M86 0h82v571h2l318 -571h98v700h-83v-571h-2l-318 571h-97v-700z" />
    <glyph glyph-name="O" unicode="O" horiz-adv-x="680" 
d="M340 -15q135 2 214 100t81 265q-2 167 -81 265t-214 100q-135 -2 -214 -100t-81 -265q2 -167 81 -265t214 -100v0zM340 63q-99 1 -155 77t-57 210q1 134 57 210t155 77q99 -1 155 -77t57 -210q-1 -134 -57 -210t-155 -77v0z" />
    <glyph glyph-name="P" unicode="P" horiz-adv-x="615" 
d="M86 0h82v270h188q112 1 173 57q60 56 61 157q-1 101 -61 158q-61 57 -173 58h-270v-700zM168 348v274h183q79 0 117 -34q39 -34 39 -104t-38 -103q-39 -33 -118 -33h-183z" />
    <glyph glyph-name="Q" unicode="Q" horiz-adv-x="680" 
d="M635 350q-2 167 -81 265t-214 100q-135 -2 -214 -100t-81 -265q2 -167 81 -265t214 -100q53 0 98 17q45 16 81 47l60 -64l51 46l-65 69q34 48 52 111t18 139v0zM340 63q-99 1 -155 77t-57 210q1 134 57 210t155 77q99 -1 155 -77t57 -210q0 -58 -11 -105q-11 -48 -32 -84
l-137 147l-52 -46l145 -155q-51 -44 -125 -44v0z" />
    <glyph glyph-name="R" unicode="R" horiz-adv-x="609" 
d="M399 290q83 14 129 67q45 52 46 136q-1 98 -62 152t-171 55h-255v-700h82v284h140l148 -284h97l-154 288v2zM168 362v260h166q78 0 118 -33q39 -32 39 -96q0 -65 -40 -98t-117 -33h-166z" />
    <glyph glyph-name="S" unicode="S" horiz-adv-x="602" 
d="M323 -15q110 1 176 53t68 139q2 81 -56 134q-57 53 -192 96q-94 29 -132 56q-37 28 -36 67q1 49 39 78q37 28 102 29q69 0 113 -37q44 -36 61 -106l81 17q-19 95 -86 149q-68 54 -168 55q-101 -1 -161 -52q-61 -50 -63 -133q-2 -69 49 -114q50 -44 174 -84
q108 -33 151 -69q44 -35 42 -87q-1 -52 -44 -82t-117 -31q-95 0 -146 45t-61 138l-82 -14q12 -120 86 -183q73 -64 202 -64v0z" />
    <glyph glyph-name="T" unicode="T" horiz-adv-x="589" 
d="M253 0h83v622h218v78h-519v-78h218v-622z" />
    <glyph glyph-name="U" unicode="U" horiz-adv-x="662" 
d="M330 -15q122 1 187 63q64 62 65 180v472h-83v-468q0 -83 -43 -126t-126 -43t-125 43t-42 128v466h-82v-472q0 -118 64 -180t185 -63v0z" />
    <glyph glyph-name="V" unicode="V" horiz-adv-x="602" 
d="M257 0h88l252 700h-86l-209 -590h-2l-208 590h-87z" />
    <glyph glyph-name="W" unicode="W" horiz-adv-x="845" 
d="M149 0h101l171 562h2l172 -562h100l130 700h-85l-103 -569h-2l-174 569h-78l-173 -569h-2l-103 569h-85z" />
    <glyph glyph-name="X" unicode="X" horiz-adv-x="553" 
d="M10 0h97l169 290h2l169 -290h96l-215 355l210 345h-97l-163 -280h-2l-163 280h-97l210 -345z" />
    <glyph glyph-name="Y" unicode="Y" horiz-adv-x="573" 
d="M245 0h83v292l245 408h-96l-190 -327h-2l-189 327h-96l245 -408v-292z" />
    <glyph glyph-name="Z" unicode="Z" horiz-adv-x="593" 
d="M45 0h493v78h-392v2l402 550v70h-487v-78h387v-2l-403 -550v-70z" />
    <glyph glyph-name="bracketleft" unicode="[" horiz-adv-x="309" 
d="M86 -181h202v74h-123v764h123v74h-202v-912z" />
    <glyph glyph-name="backslash" unicode="\" horiz-adv-x="445" 
d="M374 -39l55 23l-357 755l-56 -25z" />
    <glyph glyph-name="bracketright" unicode="]" horiz-adv-x="309" 
d="M223 -181v912h-202v-74h123v-764h-123v-74h202z" />
    <glyph glyph-name="asciicircum" unicode="^" horiz-adv-x="554" 
d="M483 325l-173 375h-66l-173 -375h84l122 279l123 -279h83z" />
    <glyph glyph-name="underscore" unicode="_" horiz-adv-x="603" 
d="M51 -149h501v69h-501v-69z" />
    <glyph glyph-name="grave" unicode="`" horiz-adv-x="293" 
d="M163 590h70l-74 116h-98z" />
    <glyph glyph-name="a" unicode="a" horiz-adv-x="510" 
d="M220 -15q51 0 91 19t63 52h2v-56h73v373q-1 80 -51 126q-50 45 -140 46q-84 -1 -141 -46q-56 -45 -71 -124l79 -15q11 54 46 84q34 30 87 30q50 0 79 -22t30 -59q1 -31 -29 -52q-31 -20 -106 -38q-99 -23 -143 -62t-43 -106q1 -70 47 -109q46 -40 127 -41v0zM226 58
q-50 0 -76 21t-26 61q-1 34 30 56q30 23 99 40q53 13 81 28q27 15 35 34h2v-119q-1 -53 -41 -87q-39 -33 -104 -34v0z" />
    <glyph glyph-name="b" unicode="b" horiz-adv-x="586" 
d="M302 -15q106 2 171 78t67 202q-2 126 -67 202t-171 78q-50 0 -90 -20q-40 -19 -66 -51h-2v256h-78v-730h75v53h2q27 -32 68 -50q42 -18 91 -18v0zM297 58q-65 2 -108 45q-43 44 -45 111v103q2 66 46 110q44 43 112 45q72 -1 116 -57q43 -55 44 -150q-1 -95 -45 -150
q-44 -56 -120 -57v0z" />
    <glyph glyph-name="c" unicode="c" horiz-adv-x="563" 
d="M291 -15q93 1 154 52q61 52 77 141l-76 16q-12 -66 -52 -101t-103 -35q-76 1 -121 57q-45 55 -46 150q1 95 46 150q45 56 121 57q63 0 103 -35t52 -101l76 16q-16 90 -77 141t-154 52q-110 -2 -177 -77q-66 -76 -68 -203q2 -127 68 -203q67 -75 177 -77v0z" />
    <glyph glyph-name="d" unicode="d" horiz-adv-x="586" 
d="M284 -15q49 0 91 18q41 18 68 50h2v-53h75v730h-78v-256h-2q-26 32 -66 51q-40 20 -90 20q-106 -2 -171 -78t-67 -202q2 -126 67 -202t171 -78v0zM289 58q-76 1 -120 57q-44 55 -45 150q1 95 44 150q44 56 116 57q68 -2 112 -45q44 -44 46 -110v-103q-2 -67 -45 -111
q-43 -43 -108 -45v0z" />
    <glyph glyph-name="e" unicode="e" horiz-adv-x="573" 
d="M291 -15q77 0 134 35q56 35 91 103l-65 39q-33 -58 -70 -82q-37 -25 -92 -24q-74 2 -118 55t-46 131h403v40q-1 119 -65 190q-63 71 -172 73q-111 -2 -177 -77q-66 -76 -68 -203q2 -127 67 -203q66 -75 178 -77v0zM127 305q3 69 48 118q46 49 116 51q71 -2 113 -49
t45 -120h-322z" />
    <glyph glyph-name="f" unicode="f" horiz-adv-x="338" 
d="M111 0h78v460h134v70h-134v47q0 25 12 38q13 12 38 12h69v73h-78q-57 -1 -88 -30q-31 -30 -31 -82v-58h-91v-70h91v-460z" />
    <glyph glyph-name="g" unicode="g" horiz-adv-x="581" 
d="M305 -240q99 1 156 62q58 60 59 162v546h-78v-56h-2q-28 34 -68 52q-41 19 -88 19q-107 -2 -172 -78q-64 -76 -66 -202q2 -125 66 -201q64 -77 171 -79q53 0 93 18t64 53h2v-67q0 -73 -36 -115q-36 -41 -101 -42q-53 0 -87 24q-34 25 -57 81l-71 -32q26 -69 82 -107
q56 -37 133 -38v0zM289 58q-76 1 -120 57q-44 55 -45 150q1 94 44 150t116 57q68 -2 112 -45q44 -44 46 -110v-103q-2 -66 -45 -110t-108 -46v0z" />
    <glyph glyph-name="h" unicode="h" horiz-adv-x="555" 
d="M66 0h78v333q1 63 39 100q37 38 101 39q62 -1 97 -37q34 -37 35 -102v-333h78v344q-1 93 -55 146q-53 54 -146 55q-44 0 -84 -18q-39 -17 -63 -46h-2v249h-78v-730z" />
    <glyph glyph-name="i" unicode="i" horiz-adv-x="209" 
d="M60 623h90v87h-90v-87zM66 0h78v530h-78v-530z" />
    <glyph glyph-name="j" unicode="j" horiz-adv-x="220" 
d="M71 623h90v87h-90v-87zM-10 -174h47q61 0 89 25q29 26 29 83v596h-78v-592q0 -39 -44 -39h-43v-73z" />
    <glyph glyph-name="k" unicode="k" horiz-adv-x="511" 
d="M66 0h78v184l80 85h2l172 -269h92l-210 325l197 205h-110l-221 -236h-2v436h-78v-730z" />
    <glyph glyph-name="l" unicode="l" horiz-adv-x="209" 
d="M66 0h78v730h-78v-730z" />
    <glyph glyph-name="m" unicode="m" horiz-adv-x="809" 
d="M66 0h78v351q1 55 31 88q30 32 82 33q50 -1 80 -31q31 -30 32 -82v-359h75v352q1 54 31 87q31 32 83 33q50 -1 81 -31q30 -30 31 -82v-359h78v369q-2 83 -55 129q-52 46 -130 47q-45 0 -83 -18t-65 -50h-2q-21 31 -57 49q-36 19 -82 19q-38 0 -73 -15q-34 -15 -56 -41h-2
v41h-77v-530z" />
    <glyph glyph-name="n" unicode="n" horiz-adv-x="555" 
d="M66 0h78v333q1 63 39 100q37 38 101 39q62 -1 97 -37q34 -37 35 -102v-333h78v343q-1 93 -54 147q-54 54 -147 55q-44 0 -84 -18q-40 -17 -65 -46h-2v49h-76v-530z" />
    <glyph glyph-name="o" unicode="o" horiz-adv-x="590" 
d="M295 -15q114 2 181 77q67 76 69 203q-2 127 -69 203q-67 75 -181 77q-114 -2 -181 -77q-66 -76 -68 -203q2 -127 68 -203q67 -75 181 -77v0zM295 58q-80 1 -125 56t-46 151q1 96 46 151t125 56q80 -1 125 -56q46 -55 47 -151q-1 -96 -47 -151q-45 -55 -125 -56v0z" />
    <glyph glyph-name="p" unicode="p" horiz-adv-x="586" 
d="M66 -225h78v278h2q25 -30 66 -49q41 -18 91 -19q105 2 170 78t67 202q-2 126 -67 202t-172 78q-49 0 -89 -20q-40 -19 -66 -51h-2v56h-78v-755zM297 58q-65 2 -108 45q-43 44 -45 111v103q2 66 46 110q43 43 111 45q73 -1 117 -57q43 -55 44 -150q-1 -95 -45 -150
q-44 -56 -120 -57v0z" />
    <glyph glyph-name="q" unicode="q" horiz-adv-x="586" 
d="M520 -225v755h-78v-56h-2q-26 32 -66 51q-40 20 -89 20q-107 -2 -172 -78t-67 -202q2 -126 67 -202t170 -78q50 1 91 19q41 19 66 49h2v-278h78zM289 58q-76 1 -120 57q-44 55 -45 150q1 95 45 150q43 56 116 57q68 -2 112 -45q43 -44 45 -110v-103q-2 -67 -45 -111
q-43 -43 -108 -45v0z" />
    <glyph glyph-name="r" unicode="r" horiz-adv-x="325" 
d="M66 0h78v318q0 74 23 108t69 33q13 0 26 -2q12 -2 26 -7l17 81q-13 4 -26 6t-27 2q-38 0 -67 -14q-28 -14 -43 -39h-2v44h-74v-530z" />
    <glyph glyph-name="s" unicode="s" horiz-adv-x="502" 
d="M271 -15q90 1 142 42q53 40 54 110q1 63 -44 102q-46 40 -155 71q-73 21 -102 40q-28 19 -27 46q1 35 30 55q28 21 77 21q50 0 83 -26q32 -26 46 -76l76 17q-16 74 -70 115q-54 42 -135 43q-82 -1 -133 -43q-51 -41 -52 -109q-1 -54 40 -89t141 -63q83 -24 115 -47
q32 -24 31 -60q-1 -35 -31 -55q-31 -21 -86 -21q-72 -1 -110 32t-49 105l-76 -14q10 -94 71 -145q61 -50 164 -51v0z" />
    <glyph glyph-name="t" unicode="t" horiz-adv-x="338" 
d="M308 460v70h-130v120h-78v-120h-80v-70h80v-338q-1 -67 29 -95t101 -27h50v73h-44q-32 0 -45 11q-13 12 -13 37v339h130z" />
    <glyph glyph-name="u" unicode="u" horiz-adv-x="543" 
d="M243 -15q49 0 90 17t66 47h2v-49h76v530h-78v-333q-1 -63 -36 -101q-36 -37 -97 -38q-67 0 -100 34q-32 35 -32 105v333h-78v-344q1 -97 49 -148q49 -52 138 -53v0z" />
    <glyph glyph-name="v" unicode="v" horiz-adv-x="536" 
d="M234 0h68l224 530h-84l-173 -423h-2l-173 423h-84z" />
    <glyph glyph-name="w" unicode="w" horiz-adv-x="755" 
d="M152 0h74l151 433h2l150 -433h74l127 530h-77l-96 -412h-2l-142 412h-71l-142 -412h-2l-96 412h-77z" />
    <glyph glyph-name="x" unicode="x" horiz-adv-x="469" 
d="M5 0h92l136 209h2l137 -209h92l-183 270l177 260h-92l-131 -199h-2l-130 199h-92l176 -260z" />
    <glyph glyph-name="y" unicode="y" horiz-adv-x="511" 
d="M102 -225h81l318 755h-83l-162 -395h-2l-161 395h-83l204 -485z" />
    <glyph glyph-name="z" unicode="z" horiz-adv-x="500" 
d="M30 0h440v70h-345v2l337 388v70h-420v-70h325v-2l-337 -388v-70z" />
    <glyph glyph-name="braceleft" unicode="{" horiz-adv-x="365" 
d="M274 -181h71v78h-57q-36 0 -51 20t-15 65v209q-1 47 -22 70t-51 23v2q30 0 51 23t22 69v190q0 45 15 65q15 19 51 19h57v79h-71q-69 0 -100 -34q-32 -35 -32 -110v-197q0 -35 -11 -47q-12 -13 -42 -12h-28v-92h28q30 1 42 -12q11 -13 11 -47v-217q0 -75 32 -110
q31 -34 100 -34v0z" />
    <glyph glyph-name="bar" unicode="|" horiz-adv-x="260" 
d="M101 -300h58v1075h-58v-1075z" />
    <glyph glyph-name="braceright" unicode="}" horiz-adv-x="365" 
d="M91 -181q69 0 101 34q31 35 31 110v217q0 34 12 47q11 13 41 12h28v92h-28q-30 -1 -41 12q-12 12 -12 47v197q0 75 -31 110q-32 34 -101 34h-71v-79h57q36 0 51 -19q15 -20 15 -65v-190q1 -46 22 -69q22 -23 51 -23v-2q-29 0 -51 -23q-21 -23 -22 -70v-209q0 -45 -15 -65
t-51 -20h-57v-78h71z" />
    <glyph glyph-name="asciitilde" unicode="~" horiz-adv-x="634" 
d="M132 273q14 46 32 65q19 20 47 19q47 -5 95 -42t119 -42q57 0 94 36q38 36 54 102l-71 23q-14 -47 -33 -67q-18 -20 -47 -19q-46 5 -95 43q-48 37 -119 42q-56 0 -94 -36t-53 -103z" />
    <glyph glyph-name="uni00A0" unicode="&#xa0;" horiz-adv-x="270" 
 />
    <glyph glyph-name="exclamdown" unicode="&#xa1;" horiz-adv-x="310" 
d="M96 530v-116h119v116h-119zM114 324v-494h83v494h-83z" />
    <glyph glyph-name="cent" unicode="&#xa2;" horiz-adv-x="626" 
d="M349 57v416q61 -7 100 -42q40 -34 52 -94l75 15q-17 83 -77 134q-60 50 -150 58v87h-49v-87q-110 -10 -176 -84q-66 -75 -68 -195q2 -120 68 -195q66 -74 176 -84v-96h49v96q90 8 150 58q60 51 77 134l-75 15q-12 -59 -52 -94q-39 -35 -100 -42v0zM132 265q1 89 46 144
t122 64v-416q-77 9 -122 64t-46 144v0z" />
    <glyph glyph-name="sterling" unicode="&#xa3;" horiz-adv-x="604" 
d="M262 80q23 23 35 54q11 31 11 64q0 32 -8 59t-22 51h183v73h-227q-23 32 -41 67t-19 77q1 52 39 82q38 29 108 30q75 0 118 -35q42 -35 48 -106l82 8q-7 98 -73 154t-176 57q-106 -1 -168 -52q-63 -51 -64 -138q1 -43 17 -79q16 -35 38 -65h-73v-73h121q18 -25 29 -52
t11 -58q0 -52 -26 -85q-27 -34 -78 -35h-57v-78h480v78h-288v2z" />
    <glyph glyph-name="currency" unicode="&#xa4;" horiz-adv-x="599" 
d="M533 330q0 42 -11 80q-12 37 -33 68l65 66l-39 39l-64 -64q-30 26 -69 41t-83 15t-83 -14t-69 -40l-62 62l-39 -39l64 -65q-22 -31 -33 -68q-12 -38 -12 -81q0 -44 12 -81q12 -38 34 -69l-65 -66l39 -40l65 64q30 -25 68 -38q37 -14 81 -14t82 14t68 39l66 -65l39 40
l-67 66q22 31 34 69t12 81v0zM300 161q-70 1 -109 45q-39 45 -40 122q1 80 40 125q40 46 109 47q68 -1 107 -47t40 -125q-1 -77 -40 -121q-39 -45 -107 -46v0z" />
    <glyph glyph-name="yen" unicode="&#xa5;" horiz-adv-x="593" 
d="M583 700h-96l-190 -327h-2l-189 327h-96l213 -355h-178v-73h210v-71h-210v-73h210v-128h83v128h201v73h-201v71h201v73h-169z" />
    <glyph glyph-name="brokenbar" unicode="&#xa6;" horiz-adv-x="260" 
d="M101 350h58v425h-58v-425zM101 -300h58v425h-58v-425z" />
    <glyph glyph-name="section" unicode="&#xa7;" horiz-adv-x="632" 
d="M466 100q43 33 65 68q21 35 21 70q0 55 -34 92q-35 37 -107 65l-108 43q-52 21 -78 46t-26 60q1 42 30 67q30 25 78 26q55 0 86 -29q31 -28 39 -83l83 9q-8 80 -63 130q-54 49 -145 51q-86 -1 -137 -49q-52 -47 -53 -122q0 -66 50 -113q-43 -34 -65 -69q-21 -35 -21 -70
q0 -55 34 -92q35 -37 107 -65l108 -43q52 -21 78 -46q25 -25 25 -59q-1 -43 -30 -68q-30 -25 -78 -26q-55 0 -86 29q-31 28 -39 84l-83 -10q8 -80 63 -129q54 -50 145 -52q86 1 138 49q52 47 53 123q0 65 -50 113v0zM256 204q-47 19 -70 40q-22 21 -22 48q0 26 17 51
q17 24 48 44q17 -9 35 -16l113 -45q47 -19 70 -40q22 -21 22 -48q0 -25 -17 -50t-47 -45q-16 9 -36 17z" />
    <glyph glyph-name="dieresis" unicode="&#xa8;" horiz-adv-x="397" 
d="M61 580h96v94h-96v-94zM241 580h96v94h-96v-94z" />
    <glyph glyph-name="copyright" unicode="&#xa9;" horiz-adv-x="717" 
d="M358 16q134 3 220 89q85 86 88 219q-3 133 -88 218q-86 85 -220 88q-133 -3 -219 -88q-85 -85 -88 -218q3 -133 88 -219q86 -86 219 -89v0zM358 67q-111 2 -180 74q-69 71 -71 183q2 112 71 182q69 71 180 73q112 -2 180 -73q69 -70 71 -182q-2 -112 -71 -183
q-68 -72 -180 -74v0zM367 140q56 1 95 34q39 34 48 90l-64 13q-7 -37 -27 -56q-21 -20 -52 -20q-42 1 -65 33q-24 33 -24 89t24 89q23 32 65 33q31 0 52 -20q20 -19 27 -56l64 13q-9 56 -48 90q-39 33 -95 34q-71 -1 -114 -50q-42 -49 -43 -133q1 -84 43 -133
q43 -49 114 -50v0z" />
    <glyph glyph-name="ordfeminine" unicode="&#xaa;" horiz-adv-x="280" 
d="M109 417q29 0 52 10q22 9 33 26h1v-29h55v186q-1 45 -30 71q-29 25 -80 26q-50 -1 -84 -26q-33 -25 -41 -68l61 -10q5 25 22 38q16 14 42 14q22 0 35 -9q13 -8 13 -24q0 -12 -14 -20t-49 -16q-57 -12 -82 -34q-26 -21 -26 -57q1 -36 25 -57q25 -21 67 -21v0zM123 470
q-44 0 -44 30q-1 13 12 22q13 10 46 19q18 4 32 10q13 5 19 15h1v-42q-1 -22 -20 -38q-19 -15 -46 -16v0z" />
    <glyph glyph-name="guillemotleft" unicode="&#xab;" horiz-adv-x="479" 
d="M181 95h81l-113 186l113 186h-81l-110 -186zM338 95h81l-113 186l113 186h-81l-110 -186z" />
    <glyph glyph-name="logicalnot" unicode="&#xac;" horiz-adv-x="621" 
d="M478 174h83v261h-500v-78h417v-183z" />
    <glyph glyph-name="uni00AD" unicode="&#xad;" horiz-adv-x="363" 
d="M51 259h261v75h-261v-75z" />
    <glyph glyph-name="registered" unicode="&#xae;" horiz-adv-x="717" 
d="M358 630q-133 -3 -219 -88q-85 -85 -88 -218q3 -133 88 -219q86 -86 219 -89q134 3 220 89q85 86 88 219q-3 133 -88 218q-86 85 -220 88v0zM358 67q-111 2 -180 74q-69 71 -71 183q2 112 71 182q69 71 180 73q112 -2 180 -73q69 -70 71 -182q-2 -112 -71 -183
q-68 -72 -180 -74v0zM507 389q0 51 -31 80t-87 29h-144v-350h66v131h52l68 -131h73l-73 137q36 11 56 37q20 27 20 67v0zM380 334h-66v106h66q29 0 44 -13q15 -12 15 -38t-16 -41q-15 -14 -43 -14v0z" />
    <glyph glyph-name="macron" unicode="&#xaf;" horiz-adv-x="388" 
d="M61 590h267v63h-267v-63z" />
    <glyph glyph-name="degree" unicode="&#xb0;" horiz-adv-x="435" 
d="M218 364q77 1 126 48q49 46 51 123q-2 76 -51 123q-49 46 -126 47q-78 -1 -127 -47q-48 -47 -50 -123q2 -77 50 -123q49 -47 127 -48v0zM218 433q-47 1 -75 28t-29 74q1 46 29 74q28 27 75 28q47 -1 75 -28q28 -28 29 -74q-1 -47 -29 -74t-75 -28v0z" />
    <glyph glyph-name="plusminus" unicode="&#xb1;" horiz-adv-x="591" 
d="M260 199h71v194h198v67h-198v193h-71v-193h-199v-67h199v-194zM62 137v-68h468v68h-468z" />
    <glyph glyph-name="acute" unicode="&#xb4;" horiz-adv-x="293" 
d="M61 590h70l102 116h-98z" />
    <glyph glyph-name="paragraph" unicode="&#xb6;" horiz-adv-x="574" 
d="M176 -136h83v758h142v-758h82v836h-303q-63 0 -105 -39t-44 -112q2 -67 43 -107q41 -41 102 -43v-535z" />
    <glyph glyph-name="periodcentered" unicode="&#xb7;" horiz-adv-x="241" 
d="M61 321h119v116h-119v-116z" />
    <glyph glyph-name="cedilla" unicode="&#xb8;" horiz-adv-x="326" 
d="M175 -40q-19 0 -34 -6l35 60l-46 14l-64 -119l43 -19q12 14 25 20q14 6 30 6q20 0 33 -11q14 -10 14 -29q0 -18 -13 -29q-13 -12 -35 -12q-37 0 -68 30l-34 -41q23 -20 48 -30q26 -10 54 -10q45 1 73 25q29 24 30 66q-1 38 -27 61t-64 24v0z" />
    <glyph glyph-name="ordmasculine" unicode="&#xba;" horiz-adv-x="310" 
d="M155 417q63 1 101 40q38 40 39 105q-1 66 -39 105t-101 40q-63 -1 -101 -40t-39 -105q1 -65 39 -105q38 -39 101 -40v0zM155 474q-36 0 -56 24q-20 23 -20 64t20 64q20 24 56 24t56 -24q20 -23 20 -64t-20 -64q-20 -24 -56 -24v0z" />
    <glyph glyph-name="guillemotright" unicode="&#xbb;" horiz-adv-x="479" 
d="M141 95l110 186l-110 186h-81l113 -186l-113 -186h81zM298 95l110 186l-110 186h-81l113 -186l-113 -186h81z" />
    <glyph glyph-name="onequarter" unicode="&#xbc;" horiz-adv-x="820" 
d="M160 -70l486 810l-56 35l-488 -812zM130 280h70v420h-66l-109 -65v-73l105 63v-345zM679 0h71v78h55v64h-55v278h-114l-179 -277v-65h222v-78zM529 142l149 229h1v-229h-150z" />
    <glyph glyph-name="onehalf" unicode="&#xbd;" horiz-adv-x="849" 
d="M590 775l-488 -812l58 -33l486 810zM130 280h70v420h-66l-109 -65v-73l105 63v-345zM599 110q5 8 25 19q19 11 73 36q69 31 96 62q27 32 26 77q-1 55 -42 90q-40 34 -106 35q-72 -1 -116 -40t-48 -106l70 -5q3 42 28 65q25 24 66 24q36 0 57 -18q21 -17 21 -45
q1 -26 -21 -47q-22 -20 -78 -44q-46 -19 -72 -36q-27 -16 -41 -33q-13 -16 -19 -38q-6 -23 -6 -54v-52h305v63h-229q1 20 3 30q3 10 8 17v0z" />
    <glyph glyph-name="threequarters" unicode="&#xbe;" horiz-adv-x="919" 
d="M259 -70l486 810l-56 35l-488 -812zM190 271q68 1 109 35q40 34 41 92q0 37 -16 64t-48 43v1q27 19 39 40t12 47q-1 52 -40 84q-39 31 -102 32q-62 -1 -103 -33q-40 -32 -49 -89l69 -11q5 33 27 51q21 19 56 19q33 0 52 -17q20 -16 20 -43q0 -29 -20 -44t-58 -15h-29v-57
h36q85 0 85 -66q0 -33 -22 -51q-21 -18 -59 -18q-43 0 -67 24q-24 25 -29 72l-69 -10q6 -72 49 -111t116 -39v0zM778 0h71v78h55v64h-55v278h-114l-179 -277v-65h222v-78zM628 142l149 229h1v-229h-150z" />
    <glyph glyph-name="questiondown" unicode="&#xbf;" horiz-adv-x="590" 
d="M383 530h-119v-116h119v116zM366 340h-80v-57q1 -31 -14 -52q-14 -20 -51 -42q-70 -39 -106 -84q-35 -45 -35 -108q3 -82 61 -131q58 -50 141 -51q110 2 173 64q63 61 66 160l-82 4q-5 -70 -43 -109q-39 -40 -114 -41q-51 1 -84 28q-34 28 -35 76q0 40 24 72q25 31 80 63
q51 30 75 64q24 35 24 80v64z" />
    <glyph glyph-name="Agrave" unicode="&#xc0;" horiz-adv-x="593" 
d="M341 760l-74 116h-98l102 -116h70zM503 0h85l-251 700h-80l-252 -700h85l49 141h315zM165 213l131 374h2l131 -374h-264z" />
    <glyph glyph-name="Aacute" unicode="&#xc1;" horiz-adv-x="593" 
d="M422 876h-98l-74 -116h70zM503 0h85l-251 700h-80l-252 -700h85l49 141h315zM165 213l131 374h2l131 -374h-264z" />
    <glyph glyph-name="Acircumflex" unicode="&#xc2;" horiz-adv-x="593" 
d="M297 832l73 -92l47 37l-66 85h-108l-66 -85l47 -37zM503 0h85l-251 700h-80l-252 -700h85l49 141h315zM165 213l131 374h2l131 -374h-264z" />
    <glyph glyph-name="Atilde" unicode="&#xc3;" horiz-adv-x="593" 
d="M237 793q26 -2 52 -19q25 -17 63 -19q38 0 61 25t26 68h-47q-4 -16 -12 -25q-9 -8 -24 -8q-26 2 -51 19q-26 17 -64 19q-38 0 -61 -25t-26 -68h47q4 17 12 25q9 8 24 8v0zM503 0h85l-251 700h-80l-252 -700h85l49 141h315zM165 213l131 374h2l131 -374h-264z" />
    <glyph glyph-name="Adieresis" unicode="&#xc4;" horiz-adv-x="593" 
d="M255 844h-96v-94h96v94zM435 844h-96v-94h96v94zM503 0h85l-251 700h-80l-252 -700h85l49 141h315zM165 213l131 374h2l131 -374h-264z" />
    <glyph glyph-name="Aring" unicode="&#xc5;" horiz-adv-x="593" 
d="M503 0h85l-237 662q31 14 49 41q19 26 19 62q-1 50 -34 82q-34 31 -88 32q-54 -1 -87 -32q-34 -32 -35 -82q0 -36 19 -62q18 -27 49 -41l-238 -662h85l49 141h315zM297 831q29 0 47 -18t19 -48q-1 -29 -19 -47q-18 -17 -47 -18q-29 1 -47 18q-17 18 -18 47q1 30 18 48
q18 18 47 18v0zM165 213l131 374h2l131 -374h-264z" />
    <glyph glyph-name="AE" unicode="&#xc6;" horiz-adv-x="858" 
d="M803 622v78h-482l-316 -700h92l66 149h280v-149h360v78h-277v245h249v75h-249v224h277zM197 225l176 397h70v-397h-246z" />
    <glyph glyph-name="Ccedilla" unicode="&#xc7;" horiz-adv-x="645" 
d="M610 248l-85 11q-10 -96 -57 -146t-128 -50q-100 1 -155 76q-56 76 -57 211q1 134 57 210t155 77q77 0 124 -46t62 -134l82 14q-16 113 -87 178q-72 65 -181 66q-135 -2 -214 -100t-81 -265q1 -159 73 -255q71 -97 195 -109l-50 -92l43 -19q12 14 25 20q14 6 30 6
q20 0 33 -11q14 -10 14 -29q0 -18 -13 -29q-13 -12 -35 -12q-37 0 -68 30l-34 -41q23 -20 48 -30q26 -10 54 -10q45 1 73 25q29 24 30 66q-1 38 -27 61t-64 24q-19 0 -34 -6l27 47q107 9 171 77q64 69 74 185v0z" />
    <glyph glyph-name="Egrave" unicode="&#xc8;" horiz-adv-x="561" 
d="M281 760h70l-74 116h-98zM86 0h420v78h-338v246h310v74h-310v224h338v78h-420v-700z" />
    <glyph glyph-name="Eacute" unicode="&#xc9;" horiz-adv-x="561" 
d="M260 760h70l102 116h-98zM86 0h420v78h-338v246h310v74h-310v224h338v78h-420v-700z" />
    <glyph glyph-name="Ecircumflex" unicode="&#xca;" horiz-adv-x="561" 
d="M307 832l73 -92l47 37l-66 85h-108l-66 -85l47 -37zM506 622v78h-420v-700h420v78h-338v246h310v74h-310v224h338z" />
    <glyph glyph-name="Edieresis" unicode="&#xcb;" horiz-adv-x="561" 
d="M169 750h96v94h-96v-94zM349 750h96v94h-96v-94zM86 0h420v78h-338v246h310v74h-310v224h338v78h-420v-700z" />
    <glyph glyph-name="Igrave" unicode="&#xcc;" horiz-adv-x="254" 
d="M101 760h70l-74 116h-98zM86 0h82v700h-82v-700z" />
    <glyph glyph-name="Iacute" unicode="&#xcd;" horiz-adv-x="254" 
d="M80 760h70l102 116h-98zM86 0h82v700h-82v-700z" />
    <glyph glyph-name="Icircumflex" unicode="&#xce;" horiz-adv-x="254" 
d="M181 862h-108l-66 -85l47 -37l73 92l73 -92l47 37zM86 0h82v700h-82v-700z" />
    <glyph glyph-name="Idieresis" unicode="&#xcf;" horiz-adv-x="254" 
d="M-11 750h96v94h-96v-94zM169 750h96v94h-96v-94zM86 0h82v700h-82v-700z" />
    <glyph glyph-name="Eth" unicode="&#xd0;" horiz-adv-x="651" 
d="M304 700h-218v-314h-90v-69h90v-317h212q139 -1 223 83q83 84 85 268q-2 167 -85 257q-82 91 -217 92v0zM293 78h-125v239h180v69h-180v236h131q103 0 163 -68q60 -69 61 -203q-1 -147 -62 -211q-60 -63 -168 -62v0z" />
    <glyph glyph-name="Ntilde" unicode="&#xd1;" horiz-adv-x="672" 
d="M391 755q38 0 61 25t26 68h-47q-4 -16 -12 -25q-9 -8 -24 -8q-26 2 -51 19q-26 17 -64 19q-38 0 -61 -25t-26 -68h47q4 17 12 25q9 8 24 8q26 -2 52 -19q25 -17 63 -19v0zM86 0h82v571h2l318 -571h98v700h-83v-571h-2l-318 571h-97v-700z" />
    <glyph glyph-name="Ograve" unicode="&#xd2;" horiz-adv-x="680" 
d="M314 775h70l-74 116h-98zM340 -15q135 2 214 100t81 265q-2 167 -81 265t-214 100q-135 -2 -214 -100t-81 -265q2 -167 81 -265t214 -100v0zM340 63q-99 1 -155 77t-57 210q1 134 57 210t155 77q99 -1 155 -77t57 -210q-1 -134 -57 -210t-155 -77v0z" />
    <glyph glyph-name="Oacute" unicode="&#xd3;" horiz-adv-x="680" 
d="M293 775h70l102 116h-98zM340 -15q135 2 214 100t81 265q-2 167 -81 265t-214 100q-135 -2 -214 -100t-81 -265q2 -167 81 -265t214 -100v0zM340 63q-99 1 -155 77t-57 210q1 134 57 210t155 77q99 -1 155 -77t57 -210q-1 -134 -57 -210t-155 -77v0z" />
    <glyph glyph-name="Ocircumflex" unicode="&#xd4;" horiz-adv-x="680" 
d="M340 847l73 -92l47 37l-66 85h-108l-66 -85l47 -37zM340 715q-135 -2 -214 -100t-81 -265q2 -167 81 -265t214 -100q135 2 214 100t81 265q-2 167 -81 265t-214 100v0zM340 63q-99 1 -155 77t-57 210q1 134 57 210t155 77q99 -1 155 -77t57 -210q-1 -134 -57 -210
t-155 -77v0z" />
    <glyph glyph-name="Otilde" unicode="&#xd5;" horiz-adv-x="680" 
d="M395 770q38 0 61 25t26 68h-47q-4 -16 -12 -25q-9 -8 -24 -8q-26 2 -51 19q-26 17 -64 19q-38 0 -61 -25t-26 -68h47q4 17 12 25q9 8 24 8q26 -2 52 -19q25 -17 63 -19v0zM340 -15q135 2 214 100t81 265q-2 167 -81 265t-214 100q-135 -2 -214 -100t-81 -265
q2 -167 81 -265t214 -100v0zM340 63q-99 1 -155 77t-57 210q1 134 57 210t155 77q99 -1 155 -77t57 -210q-1 -134 -57 -210t-155 -77v0z" />
    <glyph glyph-name="Odieresis" unicode="&#xd6;" horiz-adv-x="680" 
d="M202 765h96v94h-96v-94zM382 765h96v94h-96v-94zM340 -15q135 2 214 100t81 265q-2 167 -81 265t-214 100q-135 -2 -214 -100t-81 -265q2 -167 81 -265t214 -100v0zM340 63q-99 1 -155 77t-57 210q1 134 57 210t155 77q99 -1 155 -77t57 -210q-1 -134 -57 -210t-155 -77
v0z" />
    <glyph glyph-name="multiply" unicode="&#xd7;" horiz-adv-x="543" 
d="M110 131l161 164l162 -164l49 49l-164 162l164 162l-49 49l-162 -164l-161 164l-49 -49l164 -162l-164 -162z" />
    <glyph glyph-name="Oslash" unicode="&#xd8;" horiz-adv-x="681" 
d="M531 639l33 60l-48 28l-29 -53q-32 20 -69 31q-37 10 -78 10q-135 -2 -214 -100t-81 -265q0 -94 27 -168t77 -122l-33 -61l49 -27l29 53q32 -20 68 -30q37 -10 78 -10q135 2 214 100t81 265q0 94 -27 168q-27 73 -77 121v0zM128 350q1 134 57 210t155 77q63 0 109 -32
l-259 -471q-30 37 -46 92t-16 124v0zM340 63q-61 1 -108 31l259 472q29 -38 45 -92q16 -55 16 -124q-1 -134 -57 -210t-155 -77v0z" />
    <glyph glyph-name="Ugrave" unicode="&#xd9;" horiz-adv-x="662" 
d="M305 760h70l-74 116h-98zM330 -15q122 1 187 63q64 62 65 180v472h-83v-468q0 -83 -43 -126t-126 -43t-125 43t-42 128v466h-82v-472q0 -118 64 -180t185 -63v0z" />
    <glyph glyph-name="Uacute" unicode="&#xda;" horiz-adv-x="662" 
d="M284 760h70l102 116h-98zM330 -15q122 1 187 63q64 62 65 180v472h-83v-468q0 -83 -43 -126t-126 -43t-125 43t-42 128v466h-82v-472q0 -118 64 -180t185 -63v0z" />
    <glyph glyph-name="Ucircumflex" unicode="&#xdb;" horiz-adv-x="662" 
d="M331 832l73 -92l47 37l-66 85h-108l-66 -85l47 -37zM499 700v-468q0 -83 -43 -126t-126 -43t-125 43t-42 128v466h-82v-472q0 -118 64 -180t185 -63q122 1 187 63q64 62 65 180v472h-83z" />
    <glyph glyph-name="Udieresis" unicode="&#xdc;" horiz-adv-x="662" 
d="M193 750h96v94h-96v-94zM373 750h96v94h-96v-94zM330 -15q122 1 187 63q64 62 65 180v472h-83v-468q0 -83 -43 -126t-126 -43t-125 43t-42 128v466h-82v-472q0 -118 64 -180t185 -63v0z" />
    <glyph glyph-name="Yacute" unicode="&#xdd;" horiz-adv-x="573" 
d="M239 760h70l102 116h-98zM245 0h83v292l245 408h-96l-190 -327h-2l-189 327h-96l245 -408v-292z" />
    <glyph glyph-name="Thorn" unicode="&#xde;" horiz-adv-x="615" 
d="M356 568h-188v132h-82v-700h82v137h188q110 1 172 57q61 57 62 158q-1 101 -63 158t-171 58v0zM351 215h-183v275h183q79 0 117 -34q39 -34 39 -104t-38 -103q-39 -34 -118 -34v0z" />
    <glyph glyph-name="germandbls" unicode="&#xdf;" horiz-adv-x="556" 
d="M66 0h78v496q0 71 34 108q34 38 99 38q58 -1 91 -31t34 -84q0 -53 -34 -81q-34 -29 -95 -29h-50v-70h69q67 0 103 -34q37 -34 37 -97q0 -69 -43 -106t-123 -37h-43v-73h43q116 1 179 57q64 56 65 157q-1 64 -31 111q-30 46 -82 65v2q39 23 61 58q22 36 22 81
q-2 82 -57 133q-55 50 -146 51q-97 -1 -153 -56q-57 -55 -58 -148v-511z" />
    <glyph glyph-name="agrave" unicode="&#xe0;" horiz-adv-x="510" 
d="M232 605h70l-74 116h-98zM220 -15q51 0 91 19t63 52h2v-56h73v373q-1 80 -51 126q-50 45 -140 46q-84 -1 -141 -46q-56 -45 -71 -124l79 -15q11 54 46 84q34 30 87 30q50 0 79 -22t30 -59q1 -31 -29 -52q-31 -20 -106 -38q-99 -23 -143 -62t-43 -106q1 -70 47 -109
q46 -40 127 -41v0zM226 58q-50 0 -76 21t-26 61q-1 34 30 56q30 23 99 40q53 13 81 28q27 15 35 34h2v-119q-1 -53 -41 -87q-39 -33 -104 -34v0z" />
    <glyph glyph-name="aacute" unicode="&#xe1;" horiz-adv-x="510" 
d="M211 605h70l102 116h-98zM220 -15q51 0 91 19t63 52h2v-56h73v373q-1 80 -51 126q-50 45 -140 46q-84 -1 -141 -46q-56 -45 -71 -124l79 -15q11 54 46 84q34 30 87 30q50 0 79 -22t30 -59q1 -31 -29 -52q-31 -20 -106 -38q-99 -23 -143 -62t-43 -106q1 -70 47 -109
q46 -40 127 -41v0zM226 58q-50 0 -76 21t-26 61q-1 34 30 56q30 23 99 40q53 13 81 28q27 15 35 34h2v-119q-1 -53 -41 -87q-39 -33 -104 -34v0z" />
    <glyph glyph-name="acircumflex" unicode="&#xe2;" horiz-adv-x="510" 
d="M258 677l73 -92l47 37l-66 85h-108l-66 -85l47 -37zM258 545q-84 -1 -141 -46q-56 -45 -71 -124l79 -15q11 54 46 84q34 30 87 30q50 0 79 -22t30 -59q1 -31 -29 -52q-31 -20 -106 -38q-99 -23 -143 -62t-43 -106q1 -70 47 -109q46 -40 127 -41q51 0 91 19t63 52h2v-56
h73v373q-1 80 -51 126q-50 45 -140 46v0zM371 179q-1 -53 -41 -87q-39 -33 -104 -34q-50 0 -76 21t-26 61q-1 34 30 56q30 23 99 40q53 13 81 28q27 15 35 34h2v-119z" />
    <glyph glyph-name="atilde" unicode="&#xe3;" horiz-adv-x="510" 
d="M313 600q38 0 61 25t26 68h-47q-4 -16 -12 -25q-9 -8 -24 -8q-26 2 -51 19q-26 17 -64 19q-38 0 -61 -25t-26 -68h47q4 17 12 25q9 8 24 8q26 -2 52 -19q25 -17 63 -19v0zM220 -15q51 0 91 19t63 52h2v-56h73v373q-1 80 -51 126q-50 45 -140 46q-84 -1 -141 -46
q-56 -45 -71 -124l79 -15q11 54 46 84q34 30 87 30q50 0 79 -22t30 -59q1 -31 -29 -52q-31 -20 -106 -38q-99 -23 -143 -62t-43 -106q1 -70 47 -109q46 -40 127 -41v0zM226 58q-50 0 -76 21t-26 61q-1 34 30 56q30 23 99 40q53 13 81 28q27 15 35 34h2v-119q-1 -53 -41 -87
q-39 -33 -104 -34v0z" />
    <glyph glyph-name="adieresis" unicode="&#xe4;" horiz-adv-x="510" 
d="M120 595h96v94h-96v-94zM300 595h96v94h-96v-94zM220 -15q51 0 91 19t63 52h2v-56h73v373q-1 80 -51 126q-50 45 -140 46q-84 -1 -141 -46q-56 -45 -71 -124l79 -15q11 54 46 84q34 30 87 30q50 0 79 -22t30 -59q1 -31 -29 -52q-31 -20 -106 -38q-99 -23 -143 -62
t-43 -106q1 -70 47 -109q46 -40 127 -41v0zM226 58q-50 0 -76 21t-26 61q-1 34 30 56q30 23 99 40q53 13 81 28q27 15 35 34h2v-119q-1 -53 -41 -87q-39 -33 -104 -34v0z" />
    <glyph glyph-name="aring" unicode="&#xe5;" horiz-adv-x="510" 
d="M253 569q49 1 79 29t31 72q-1 46 -31 74t-79 29q-48 -1 -79 -29q-30 -28 -31 -74q1 -44 31 -72q31 -28 79 -29v0zM253 612q-26 0 -42 16t-17 42q1 27 17 44q16 16 42 16t43 -16q16 -17 17 -44q-1 -26 -17 -42q-17 -16 -43 -16v0zM220 -15q51 0 91 19t63 52h2v-56h73v373
q-1 80 -51 126q-50 45 -140 46q-84 -1 -141 -46q-56 -45 -71 -124l79 -15q11 54 46 84q34 30 87 30q50 0 79 -22t30 -59q1 -31 -29 -52q-31 -20 -106 -38q-99 -23 -143 -62t-43 -106q1 -70 47 -109q46 -40 127 -41v0zM226 58q-50 0 -76 21t-26 61q-1 34 30 56q30 23 99 40
q53 13 81 28q27 15 35 34h2v-119q-1 -53 -41 -87q-39 -33 -104 -34v0z" />
    <glyph glyph-name="ae" unicode="&#xe6;" horiz-adv-x="888" 
d="M843 282q-2 119 -64 190q-63 71 -167 73q-57 0 -104 -23t-77 -65q-21 42 -66 65t-108 23q-83 -1 -139 -45t-72 -123l74 -15q11 55 48 85t91 30q52 -1 81 -23q30 -23 30 -60q-20 -79 -160 -97q-141 -17 -161 -162q1 -70 46 -109q46 -40 127 -41q70 0 120 27t75 77
q32 -50 83 -77q50 -27 112 -27q74 0 130 35q56 34 90 101l-63 40q-32 -60 -68 -84q-36 -25 -91 -24q-72 1 -115 52q-44 51 -46 138h394v39zM450 304q3 76 48 124q46 47 114 49q68 -1 110 -47t45 -126h-317zM375 178q-1 -52 -40 -88q-40 -36 -107 -37q-52 0 -79 23
q-26 22 -26 64q12 77 112 93q100 17 138 68h2v-123z" />
    <glyph glyph-name="ccedilla" unicode="&#xe7;" horiz-adv-x="563" 
d="M291 58q-76 1 -121 57q-45 55 -46 150q1 95 46 150q45 56 121 57q63 0 103 -35t52 -101l76 16q-16 90 -77 141t-154 52q-110 -2 -177 -77q-66 -76 -68 -203q1 -118 60 -193q59 -74 158 -86l-50 -92l43 -19q12 14 25 20q14 6 30 6q20 0 33 -11q14 -10 14 -29
q0 -18 -13 -29q-13 -12 -35 -12q-37 0 -68 30l-34 -41q23 -20 48 -30q26 -10 54 -10q45 1 73 25q29 24 30 66q-1 38 -27 61t-64 24q-19 0 -34 -6l27 47q83 8 137 59q54 50 69 133l-76 16q-12 -66 -52 -101t-103 -35v0z" />
    <glyph glyph-name="egrave" unicode="&#xe8;" horiz-adv-x="573" 
d="M265 605h70l-74 116h-98zM291 -15q77 0 134 35q56 35 91 103l-65 39q-33 -58 -70 -82q-37 -25 -92 -24q-74 2 -118 55t-46 131h403v40q-1 119 -65 190q-63 71 -172 73q-111 -2 -177 -77q-66 -76 -68 -203q2 -127 67 -203q66 -75 178 -77v0zM127 305q3 69 48 118
q46 49 116 51q71 -2 113 -49t45 -120h-322z" />
    <glyph glyph-name="eacute" unicode="&#xe9;" horiz-adv-x="573" 
d="M244 605h70l102 116h-98zM291 -15q77 0 134 35q56 35 91 103l-65 39q-33 -58 -70 -82q-37 -25 -92 -24q-74 2 -118 55t-46 131h403v40q-1 119 -65 190q-63 71 -172 73q-111 -2 -177 -77q-66 -76 -68 -203q2 -127 67 -203q66 -75 178 -77v0zM127 305q3 69 48 118
q46 49 116 51q71 -2 113 -49t45 -120h-322z" />
    <glyph glyph-name="ecircumflex" unicode="&#xea;" horiz-adv-x="573" 
d="M291 677l73 -92l47 37l-66 85h-108l-66 -85l47 -37zM528 282q-1 119 -65 190q-63 71 -172 73q-111 -2 -177 -77q-66 -76 -68 -203q2 -127 67 -203q66 -75 178 -77q77 0 134 35q56 35 91 103l-65 39q-33 -58 -70 -82q-37 -25 -92 -24q-74 2 -118 55t-46 131h403v40z
M127 305q3 69 48 118q46 49 116 51q71 -2 113 -49t45 -120h-322z" />
    <glyph glyph-name="edieresis" unicode="&#xeb;" horiz-adv-x="573" 
d="M153 595h96v94h-96v-94zM333 595h96v94h-96v-94zM291 -15q77 0 134 35q56 35 91 103l-65 39q-33 -58 -70 -82q-37 -25 -92 -24q-74 2 -118 55t-46 131h403v40q-1 119 -65 190q-63 71 -172 73q-111 -2 -177 -77q-66 -76 -68 -203q2 -127 67 -203q66 -75 178 -77v0z
M127 305q3 69 48 118q46 49 116 51q71 -2 113 -49t45 -120h-322z" />
    <glyph glyph-name="igrave" unicode="&#xec;" horiz-adv-x="209" 
d="M79 590h70l-74 116h-98zM66 0h78v530h-78v-530z" />
    <glyph glyph-name="iacute" unicode="&#xed;" horiz-adv-x="209" 
d="M58 590h70l102 116h-98zM66 0h78v530h-78v-530z" />
    <glyph glyph-name="icircumflex" unicode="&#xee;" horiz-adv-x="209" 
d="M159 692h-108l-66 -85l47 -37l73 92l73 -92l47 37zM66 0h78v530h-78v-530z" />
    <glyph glyph-name="idieresis" unicode="&#xef;" horiz-adv-x="199" 
d="M-29 580h96v94h-96v-94zM133 580h96v94h-96v-94zM66 0h78v530h-78v-530z" />
    <glyph glyph-name="eth" unicode="&#xf0;" horiz-adv-x="590" 
d="M411 659l125 39l-15 44l-138 -44q-15 20 -31 39l-34 38h-89v-2q25 -26 46 -50t40 -47l-122 -38l15 -44l137 43q24 -32 44 -66q20 -33 36 -70h-2q-26 21 -59 33q-34 11 -74 11q-110 -2 -176 -77t-68 -203q2 -127 69 -203q67 -75 181 -77q115 2 182 76q66 75 67 204
q0 102 -35 202q-35 99 -99 192v0zM296 58q-80 1 -125 57q-46 55 -47 150q1 95 47 150q45 56 125 57q79 -1 125 -56q45 -55 46 -151q-1 -96 -46 -151q-46 -55 -125 -56v0z" />
    <glyph glyph-name="ntilde" unicode="&#xf1;" horiz-adv-x="555" 
d="M347 600q38 0 61 25t26 68h-47q-4 -16 -12 -25q-9 -8 -24 -8q-26 2 -51 19q-26 17 -64 19q-38 0 -61 -25t-26 -68h47q4 17 12 25q9 8 24 8q26 -2 52 -19q25 -17 63 -19v0zM66 0h78v333q1 63 39 100q37 38 101 39q62 -1 97 -37q34 -37 35 -102v-333h78v343q-1 93 -54 147
q-54 54 -147 55q-44 0 -84 -18q-40 -17 -65 -46h-2v49h-76v-530z" />
    <glyph glyph-name="ograve" unicode="&#xf2;" horiz-adv-x="590" 
d="M269 605h70l-74 116h-98zM295 -15q114 2 181 77q67 76 69 203q-2 127 -69 203q-67 75 -181 77q-114 -2 -181 -77q-66 -76 -68 -203q2 -127 68 -203q67 -75 181 -77v0zM295 58q-80 1 -125 56t-46 151q1 96 46 151t125 56q80 -1 125 -56q46 -55 47 -151q-1 -96 -47 -151
q-45 -55 -125 -56v0z" />
    <glyph glyph-name="oacute" unicode="&#xf3;" horiz-adv-x="590" 
d="M248 605h70l102 116h-98zM295 -15q114 2 181 77q67 76 69 203q-2 127 -69 203q-67 75 -181 77q-114 -2 -181 -77q-66 -76 -68 -203q2 -127 68 -203q67 -75 181 -77v0zM295 58q-80 1 -125 56t-46 151q1 96 46 151t125 56q80 -1 125 -56q46 -55 47 -151q-1 -96 -47 -151
q-45 -55 -125 -56v0z" />
    <glyph glyph-name="ocircumflex" unicode="&#xf4;" horiz-adv-x="590" 
d="M295 677l73 -92l47 37l-66 85h-108l-66 -85l47 -37zM295 545q-114 -2 -181 -77q-66 -76 -68 -203q2 -127 68 -203q67 -75 181 -77q114 2 181 77q67 76 69 203q-2 127 -69 203q-67 75 -181 77v0zM295 58q-80 1 -125 56t-46 151q1 96 46 151t125 56q80 -1 125 -56
q46 -55 47 -151q-1 -96 -47 -151q-45 -55 -125 -56v0z" />
    <glyph glyph-name="otilde" unicode="&#xf5;" horiz-adv-x="590" 
d="M350 600q38 0 61 25t26 68h-47q-4 -16 -12 -25q-9 -8 -24 -8q-26 2 -51 19q-26 17 -64 19q-38 0 -61 -25t-26 -68h47q4 17 12 25q9 8 24 8q26 -2 52 -19q25 -17 63 -19v0zM295 -15q114 2 181 77q67 76 69 203q-2 127 -69 203q-67 75 -181 77q-114 -2 -181 -77
q-66 -76 -68 -203q2 -127 68 -203q67 -75 181 -77v0zM295 58q-80 1 -125 56t-46 151q1 96 46 151t125 56q80 -1 125 -56q46 -55 47 -151q-1 -96 -47 -151q-45 -55 -125 -56v0z" />
    <glyph glyph-name="odieresis" unicode="&#xf6;" horiz-adv-x="590" 
d="M157 595h96v94h-96v-94zM337 595h96v94h-96v-94zM295 -15q114 2 181 77q67 76 69 203q-2 127 -69 203q-67 75 -181 77q-114 -2 -181 -77q-66 -76 -68 -203q2 -127 68 -203q67 -75 181 -77v0zM295 58q-80 1 -125 56t-46 151q1 96 46 151t125 56q80 -1 125 -56
q46 -55 47 -151q-1 -96 -47 -151q-45 -55 -125 -56v0z" />
    <glyph glyph-name="divide" unicode="&#xf7;" horiz-adv-x="540" 
d="M269 495q31 1 51 20q19 20 20 50q-1 31 -20 51q-20 19 -51 20q-29 -1 -49 -21q-19 -20 -20 -50q1 -30 20 -50q20 -19 49 -20v0zM61 334h418v67h-418v-67zM269 95q31 1 51 20q19 19 20 50q-1 30 -20 50q-20 19 -51 20q-29 -1 -49 -20q-19 -20 -20 -50q1 -31 20 -50
q20 -19 49 -20v0z" />
    <glyph glyph-name="oslash" unicode="&#xf8;" horiz-adv-x="591" 
d="M481 463l39 50l-35 27l-36 -46q-31 25 -69 38q-39 13 -84 13q-113 -2 -181 -77q-67 -76 -69 -203q0 -62 17 -112q18 -51 50 -88l-40 -50l35 -26l36 46q31 -24 69 -37q39 -13 83 -13q114 2 181 77q67 76 68 203q0 61 -17 111q-16 50 -47 87v0zM121 265q1 97 48 153
q47 57 127 58q32 0 60 -10q27 -10 48 -29l-245 -312q-18 27 -28 63q-10 35 -10 77v0zM296 54q-32 0 -59 10q-27 9 -48 28l245 311q17 -26 27 -61q9 -35 9 -77q-1 -97 -47 -153q-46 -57 -127 -58v0z" />
    <glyph glyph-name="ugrave" unicode="&#xf9;" horiz-adv-x="543" 
d="M241 590h70l-74 116h-98zM243 -15q49 0 90 17t66 47h2v-49h76v530h-78v-333q-1 -63 -36 -101q-36 -37 -97 -38q-67 0 -100 34q-32 35 -32 105v333h-78v-344q1 -97 49 -148q49 -52 138 -53v0z" />
    <glyph glyph-name="uacute" unicode="&#xfa;" horiz-adv-x="543" 
d="M220 590h70l102 116h-98zM243 -15q49 0 90 17t66 47h2v-49h76v530h-78v-333q-1 -63 -36 -101q-36 -37 -97 -38q-67 0 -100 34q-32 35 -32 105v333h-78v-344q1 -97 49 -148q49 -52 138 -53v0z" />
    <glyph glyph-name="ucircumflex" unicode="&#xfb;" horiz-adv-x="543" 
d="M267 662l73 -92l47 37l-66 85h-108l-66 -85l47 -37zM399 530v-333q-1 -63 -36 -101q-36 -37 -97 -38q-67 0 -100 34q-32 35 -32 105v333h-78v-344q1 -97 49 -148q49 -52 138 -53q49 0 90 17t66 47h2v-49h76v530h-78z" />
    <glyph glyph-name="udieresis" unicode="&#xfc;" horiz-adv-x="543" 
d="M129 580h96v94h-96v-94zM309 580h96v94h-96v-94zM243 -15q49 0 90 17t66 47h2v-49h76v530h-78v-333q-1 -63 -36 -101q-36 -37 -97 -38q-67 0 -100 34q-32 35 -32 105v333h-78v-344q1 -97 49 -148q49 -52 138 -53v0z" />
    <glyph glyph-name="yacute" unicode="&#xfd;" horiz-adv-x="511" 
d="M209 590h70l102 116h-98zM102 -225h81l318 755h-83l-162 -395h-2l-161 395h-83l204 -485z" />
    <glyph glyph-name="thorn" unicode="&#xfe;" horiz-adv-x="586" 
d="M301 545q-49 0 -89 -20q-40 -19 -66 -51h-2v256h-78v-955h78v278h2q25 -30 66 -49q41 -18 91 -19q105 2 170 78t67 202q-2 126 -67 202t-172 78v0zM297 58q-65 2 -108 45q-43 44 -45 111v103q2 66 46 110q43 43 111 45q73 -1 117 -57q43 -55 44 -150q-1 -95 -45 -150
q-44 -56 -120 -57v0z" />
    <glyph glyph-name="ydieresis" unicode="&#xff;" horiz-adv-x="511" 
d="M118 580h96v94h-96v-94zM298 580h96v94h-96v-94zM102 -225h81l318 755h-83l-162 -395h-2l-161 395h-83l204 -485z" />
    <glyph glyph-name="Amacron" unicode="&#x100;" horiz-adv-x="593" 
d="M431 823h-267v-63h267v63zM503 0h85l-251 700h-80l-252 -700h85l49 141h315zM165 213l131 374h2l131 -374h-264z" />
    <glyph glyph-name="amacron" unicode="&#x101;" horiz-adv-x="510" 
d="M125 605h267v63h-267v-63zM220 -15q51 0 91 19t63 52h2v-56h73v373q-1 80 -51 126q-50 45 -140 46q-84 -1 -141 -46q-56 -45 -71 -124l79 -15q11 54 46 84q34 30 87 30q50 0 79 -22t30 -59q1 -31 -29 -52q-31 -20 -106 -38q-99 -23 -143 -62t-43 -106q1 -70 47 -109
q46 -40 127 -41v0zM226 58q-50 0 -76 21t-26 61q-1 34 30 56q30 23 99 40q53 13 81 28q27 15 35 34h2v-119q-1 -53 -41 -87q-39 -33 -104 -34v0z" />
    <glyph glyph-name="Abreve" unicode="&#x102;" horiz-adv-x="593" 
d="M298 750q57 1 90 32q33 32 37 89h-49q-5 -27 -25 -41q-20 -15 -53 -15t-54 15q-20 14 -25 41h-49q4 -57 37 -89q34 -31 91 -32v0zM503 0h85l-251 700h-80l-252 -700h85l49 141h315zM165 213l131 374h2l131 -374h-264z" />
    <glyph glyph-name="abreve" unicode="&#x103;" horiz-adv-x="510" 
d="M259 595q57 1 90 32q33 32 37 89h-49q-5 -27 -25 -41q-20 -15 -53 -15t-54 15q-20 14 -25 41h-49q4 -57 37 -89q34 -31 91 -32v0zM220 -15q51 0 91 19t63 52h2v-56h73v373q-1 80 -51 126q-50 45 -140 46q-84 -1 -141 -46q-56 -45 -71 -124l79 -15q11 54 46 84
q34 30 87 30q50 0 79 -22t30 -59q1 -31 -29 -52q-31 -20 -106 -38q-99 -23 -143 -62t-43 -106q1 -70 47 -109q46 -40 127 -41v0zM226 58q-50 0 -76 21t-26 61q-1 34 30 56q30 23 99 40q53 13 81 28q27 15 35 34h2v-119q-1 -53 -41 -87q-39 -33 -104 -34v0z" />
    <glyph glyph-name="Aogonek" unicode="&#x104;" horiz-adv-x="593" 
d="M593 -116q-15 -8 -30 -13t-29 -5q-17 0 -25 9q-9 8 -9 26q1 32 23 56q21 25 55 43h10l-251 700h-80l-252 -700h85l49 141h315l49 -141h13q-37 -25 -59 -55q-21 -30 -23 -60q-1 -40 22 -62q24 -23 67 -23q26 0 50 6q23 5 44 15zM165 213l131 374h2l131 -374h-264z" />
    <glyph glyph-name="aogonek" unicode="&#x105;" horiz-adv-x="510" 
d="M457 -116q-15 -8 -30 -13t-29 -5q-17 0 -25 9q-9 8 -9 26q1 32 23 56q21 25 55 43h7v373q-1 80 -51 126q-50 45 -140 46q-84 -1 -141 -46q-56 -45 -71 -124l79 -15q11 54 46 84q34 30 87 30q50 0 79 -22t30 -59q1 -31 -29 -52q-31 -20 -106 -38q-99 -23 -143 -62
t-43 -106q1 -70 47 -109q46 -40 127 -41q51 0 91 19t63 52h2v-56h4q-37 -25 -59 -55q-21 -30 -23 -60q-1 -40 22 -62q24 -23 67 -23q26 0 50 6q23 5 44 15zM371 179q-1 -53 -41 -87q-39 -33 -104 -34q-50 0 -76 21t-26 61q-1 34 30 56q30 23 99 40q53 13 81 28q27 15 35 34
h2v-119z" />
    <glyph glyph-name="Cacute" unicode="&#x106;" horiz-adv-x="645" 
d="M293 775h70l102 116h-98zM340 -15q117 1 188 70q71 70 82 193l-85 11q-10 -96 -57 -146t-128 -50q-100 1 -155 76q-56 76 -57 211q1 134 57 210t155 77q77 0 124 -46t62 -134l82 14q-16 113 -87 178q-72 65 -181 66q-135 -2 -214 -100t-81 -265q2 -168 80 -266
q79 -97 215 -99v0z" />
    <glyph glyph-name="cacute" unicode="&#x107;" horiz-adv-x="563" 
d="M244 605h70l102 116h-98zM291 -15q93 1 154 52q61 52 77 141l-76 16q-12 -66 -52 -101t-103 -35q-76 1 -121 57q-45 55 -46 150q1 95 46 150q45 56 121 57q63 0 103 -35t52 -101l76 16q-16 90 -77 141t-154 52q-110 -2 -177 -77q-66 -76 -68 -203q2 -127 68 -203
q67 -75 177 -77v0z" />
    <glyph glyph-name="Ccircumflex" unicode="&#x108;" horiz-adv-x="645" 
d="M340 847l73 -92l47 37l-66 85h-108l-66 -85l47 -37zM525 259q-10 -96 -57 -146t-128 -50q-100 1 -155 76q-56 76 -57 211q1 134 57 210t155 77q77 0 124 -46t62 -134l82 14q-16 113 -87 178q-72 65 -181 66q-135 -2 -214 -100t-81 -265q2 -168 80 -266q79 -97 215 -99
q117 1 188 70q71 70 82 193z" />
    <glyph glyph-name="ccircumflex" unicode="&#x109;" horiz-adv-x="563" 
d="M291 677l73 -92l47 37l-66 85h-108l-66 -85l47 -37zM291 58q-76 1 -121 57q-45 55 -46 150q1 95 46 150q45 56 121 57q63 0 103 -35t52 -101l76 16q-16 90 -77 141t-154 52q-110 -2 -177 -77q-66 -76 -68 -203q2 -127 68 -203q67 -75 177 -77q93 1 154 52q61 52 77 141
l-76 16q-12 -66 -52 -101t-103 -35v0z" />
    <glyph glyph-name="Cdotaccent" unicode="&#x10a;" horiz-adv-x="645" 
d="M292 775h96v94h-96v-94zM340 -15q117 1 188 70q71 70 82 193l-85 11q-10 -96 -57 -146t-128 -50q-100 1 -155 76q-56 76 -57 211q1 134 57 210t155 77q77 0 124 -46t62 -134l82 14q-16 113 -87 178q-72 65 -181 66q-135 -2 -214 -100t-81 -265q2 -168 80 -266
q79 -97 215 -99v0z" />
    <glyph glyph-name="cdotaccent" unicode="&#x10b;" horiz-adv-x="563" 
d="M243 605h96v94h-96v-94zM291 -15q93 1 154 52q61 52 77 141l-76 16q-12 -66 -52 -101t-103 -35q-76 1 -121 57q-45 55 -46 150q1 95 46 150q45 56 121 57q63 0 103 -35t52 -101l76 16q-16 90 -77 141t-154 52q-110 -2 -177 -77q-66 -76 -68 -203q2 -127 68 -203
q67 -75 177 -77v0z" />
    <glyph glyph-name="Ccaron" unicode="&#x10c;" horiz-adv-x="645" 
d="M394 765l66 85l-47 37l-73 -92l-73 92l-47 -37l66 -85h108zM525 259q-10 -96 -57 -146t-128 -50q-100 1 -155 76q-56 76 -57 211q1 134 57 210t155 77q77 0 124 -46t62 -134l82 14q-16 113 -87 178q-72 65 -181 66q-135 -2 -214 -100t-81 -265q2 -168 80 -266
q79 -97 215 -99q117 1 188 70q71 70 82 193z" />
    <glyph glyph-name="ccaron" unicode="&#x10d;" horiz-adv-x="563" 
d="M345 595l66 85l-47 37l-73 -92l-73 92l-47 -37l66 -85h108zM291 58q-76 1 -121 57q-45 55 -46 150q1 95 46 150q45 56 121 57q63 0 103 -35t52 -101l76 16q-16 90 -77 141t-154 52q-110 -2 -177 -77q-66 -76 -68 -203q2 -127 68 -203q67 -75 177 -77q93 1 154 52
q61 52 77 141l-76 16q-12 -66 -52 -101t-103 -35v0z" />
    <glyph glyph-name="Dcaron" unicode="&#x10e;" horiz-adv-x="651" 
d="M350 750l66 85l-47 37l-73 -92l-73 92l-47 -37l66 -85h108zM304 700h-218v-700h212q139 -1 223 83q83 84 85 268q-2 167 -85 257q-82 91 -217 92v0zM293 78h-125v544h131q103 0 163 -68q60 -69 61 -203q-1 -147 -62 -211q-60 -63 -168 -62v0z" />
    <glyph glyph-name="dcaron" unicode="&#x10f;" horiz-adv-x="659" 
d="M284 -15q49 0 91 18q41 18 68 50h2v-53h75v730h-78v-256h-2q-26 32 -66 51q-40 20 -90 20q-106 -2 -171 -78t-67 -202q2 -126 67 -202t171 -78v0zM570 546q48 2 74 28q25 26 25 73v83h-104v-96h45q0 -23 -9 -35q-10 -12 -31 -16v-37zM289 58q-76 1 -120 57
q-44 55 -45 150q1 95 44 150q44 56 116 57q68 -2 112 -45q44 -44 46 -110v-103q-2 -67 -45 -111q-43 -43 -108 -45v0z" />
    <glyph glyph-name="Dcroat" unicode="&#x110;" horiz-adv-x="651" 
d="M304 700h-218v-314h-90v-69h90v-317h212q139 -1 223 83q83 84 85 268q-2 167 -85 257q-82 91 -217 92v0zM293 78h-125v239h180v69h-180v236h131q103 0 163 -68q60 -69 61 -203q-1 -147 -62 -211q-60 -63 -168 -62v0z" />
    <glyph glyph-name="dcroat" unicode="&#x111;" horiz-adv-x="586" 
d="M577 665h-57v65h-78v-65h-153v-59h153v-132h-2q-26 32 -66 51q-40 20 -90 20q-106 -2 -171 -78t-67 -202q2 -126 67 -202t171 -78q49 0 91 18q41 18 68 50h2v-53h75v606h57v59zM442 214q-2 -67 -45 -111q-43 -43 -108 -45q-76 1 -120 57q-44 55 -45 150q1 95 44 150
q44 56 116 57q68 -2 112 -45q44 -44 46 -110v-103z" />
    <glyph glyph-name="Emacron" unicode="&#x112;" horiz-adv-x="561" 
d="M174 760h267v63h-267v-63zM86 0h420v78h-338v246h310v74h-310v224h338v78h-420v-700z" />
    <glyph glyph-name="emacron" unicode="&#x113;" horiz-adv-x="573" 
d="M158 605h267v63h-267v-63zM291 -15q77 0 134 35q56 35 91 103l-65 39q-33 -58 -70 -82q-37 -25 -92 -24q-74 2 -118 55t-46 131h403v40q-1 119 -65 190q-63 71 -172 73q-111 -2 -177 -77q-66 -76 -68 -203q2 -127 67 -203q66 -75 178 -77v0zM127 305q3 69 48 118
q46 49 116 51q71 -2 113 -49t45 -120h-322z" />
    <glyph glyph-name="Ebreve" unicode="&#x114;" horiz-adv-x="561" 
d="M308 750q57 1 90 32q33 32 37 89h-49q-5 -27 -25 -41q-20 -15 -53 -15t-54 15q-20 14 -25 41h-49q4 -57 37 -89q34 -31 91 -32v0zM86 0h420v78h-338v246h310v74h-310v224h338v78h-420v-700z" />
    <glyph glyph-name="ebreve" unicode="&#x115;" horiz-adv-x="573" 
d="M292 595q57 1 90 32q33 32 37 89h-49q-5 -27 -25 -41q-20 -15 -53 -15t-54 15q-20 14 -25 41h-49q4 -57 37 -89q34 -31 91 -32v0zM291 -15q77 0 134 35q56 35 91 103l-65 39q-33 -58 -70 -82q-37 -25 -92 -24q-74 2 -118 55t-46 131h403v40q-1 119 -65 190
q-63 71 -172 73q-111 -2 -177 -77q-66 -76 -68 -203q2 -127 67 -203q66 -75 178 -77v0zM127 305q3 69 48 118q46 49 116 51q71 -2 113 -49t45 -120h-322z" />
    <glyph glyph-name="Edotaccent" unicode="&#x116;" horiz-adv-x="561" 
d="M259 760h96v94h-96v-94zM86 0h420v78h-338v246h310v74h-310v224h338v78h-420v-700z" />
    <glyph glyph-name="edotaccent" unicode="&#x117;" horiz-adv-x="573" 
d="M243 605h96v94h-96v-94zM291 -15q77 0 134 35q56 35 91 103l-65 39q-33 -58 -70 -82q-37 -25 -92 -24q-74 2 -118 55t-46 131h403v40q-1 119 -65 190q-63 71 -172 73q-111 -2 -177 -77q-66 -76 -68 -203q2 -127 67 -203q66 -75 178 -77v0zM127 305q3 69 48 118
q46 49 116 51q71 -2 113 -49t45 -120h-322z" />
    <glyph glyph-name="Eogonek" unicode="&#x118;" horiz-adv-x="561" 
d="M506 622v78h-420v-700h306q-37 -25 -59 -55q-21 -30 -23 -60q-1 -40 22 -62q24 -23 67 -23q26 0 50 6q23 5 44 15l-24 63q-15 -8 -30 -13t-29 -5q-17 0 -25 9q-9 8 -9 26q1 32 23 56q21 25 55 43h52v78h-338v246h310v74h-310v224h338z" />
    <glyph glyph-name="eogonek" unicode="&#x119;" horiz-adv-x="573" 
d="M528 282q-1 119 -65 190q-63 71 -172 73q-111 -2 -177 -77q-66 -76 -68 -203q2 -127 67 -203q66 -75 178 -77h9q-29 -23 -44 -48q-16 -26 -18 -52q-1 -40 22 -62q24 -23 67 -23q26 0 50 6q23 5 44 15l-24 63q-15 -8 -30 -13t-29 -5q-17 0 -25 9q-9 8 -9 26q1 31 22 55
q21 25 54 43q44 15 79 46q34 31 57 78l-65 39q-33 -58 -70 -82q-37 -25 -92 -24q-74 2 -118 55t-46 131h403v40zM127 305q3 69 48 118q46 49 116 51q71 -2 113 -49t45 -120h-322z" />
    <glyph glyph-name="Ecaron" unicode="&#x11a;" horiz-adv-x="561" 
d="M361 750l66 85l-47 37l-73 -92l-73 92l-47 -37l66 -85h108zM506 622v78h-420v-700h420v78h-338v246h310v74h-310v224h338z" />
    <glyph glyph-name="ecaron" unicode="&#x11b;" horiz-adv-x="573" 
d="M345 595l66 85l-47 37l-73 -92l-73 92l-47 -37l66 -85h108zM528 282q-1 119 -65 190q-63 71 -172 73q-111 -2 -177 -77q-66 -76 -68 -203q2 -127 67 -203q66 -75 178 -77q77 0 134 35q56 35 91 103l-65 39q-33 -58 -70 -82q-37 -25 -92 -24q-74 2 -118 55t-46 131h403v40
zM127 305q3 69 48 118q46 49 116 51q71 -2 113 -49t45 -120h-322z" />
    <glyph glyph-name="Gcircumflex" unicode="&#x11c;" horiz-adv-x="653" 
d="M340 847l73 -92l47 37l-66 85h-108l-66 -85l47 -37zM349 346v-78h178q2 -96 -47 -150t-140 -55q-99 1 -155 77t-57 210q1 134 57 210t155 77q75 0 122 -43q47 -42 62 -125l82 15q-17 106 -88 168t-178 63q-136 -2 -215 -99q-78 -97 -80 -266q2 -168 80 -266
q79 -97 215 -99q124 2 196 79q71 77 72 211v71h-259z" />
    <glyph glyph-name="gcircumflex" unicode="&#x11d;" horiz-adv-x="581" 
d="M284 677l73 -92l47 37l-66 85h-108l-66 -85l47 -37zM442 530v-56h-2q-28 34 -68 52q-41 19 -88 19q-107 -2 -172 -78q-64 -76 -66 -202q2 -125 66 -201q64 -77 171 -79q53 0 93 18t64 53h2v-67q0 -73 -36 -115q-36 -41 -101 -42q-53 0 -87 24q-34 25 -57 81l-71 -32
q26 -69 82 -107q56 -37 133 -38q99 1 156 62q58 60 59 162v546h-78zM442 214q-2 -66 -45 -110t-108 -46q-76 1 -120 57q-44 55 -45 150q1 94 44 150t116 57q68 -2 112 -45q44 -44 46 -110v-103z" />
    <glyph glyph-name="Gbreve" unicode="&#x11e;" horiz-adv-x="653" 
d="M341 765q57 1 90 32q33 32 37 89h-49q-5 -27 -25 -41q-20 -15 -53 -15t-54 15q-20 14 -25 41h-49q4 -57 37 -89q34 -31 91 -32v0zM340 -15q124 2 196 79q71 77 72 211v71h-259v-78h178q2 -96 -47 -150t-140 -55q-99 1 -155 77t-57 210q1 134 57 210t155 77q75 0 122 -43
q47 -42 62 -125l82 15q-17 106 -88 168t-178 63q-136 -2 -215 -99q-78 -97 -80 -266q2 -168 80 -266q79 -97 215 -99v0z" />
    <glyph glyph-name="gbreve" unicode="&#x11f;" horiz-adv-x="581" 
d="M285 595q57 1 90 32q33 32 37 89h-49q-5 -27 -25 -41q-20 -15 -53 -15t-54 15q-20 14 -25 41h-49q4 -57 37 -89q34 -31 91 -32v0zM305 -240q99 1 156 62q58 60 59 162v546h-78v-56h-2q-28 34 -68 52q-41 19 -88 19q-107 -2 -172 -78q-64 -76 -66 -202q2 -125 66 -201
q64 -77 171 -79q53 0 93 18t64 53h2v-67q0 -73 -36 -115q-36 -41 -101 -42q-53 0 -87 24q-34 25 -57 81l-71 -32q26 -69 82 -107q56 -37 133 -38v0zM289 58q-76 1 -120 57q-44 55 -45 150q1 94 44 150t116 57q68 -2 112 -45q44 -44 46 -110v-103q-2 -66 -45 -110t-108 -46v0
z" />
    <glyph glyph-name="Gdotaccent" unicode="&#x120;" horiz-adv-x="653" 
d="M292 775h96v94h-96v-94zM340 -15q124 2 196 79q71 77 72 211v71h-259v-78h178q2 -96 -47 -150t-140 -55q-99 1 -155 77t-57 210q1 134 57 210t155 77q75 0 122 -43q47 -42 62 -125l82 15q-17 106 -88 168t-178 63q-136 -2 -215 -99q-78 -97 -80 -266q2 -168 80 -266
q79 -97 215 -99v0z" />
    <glyph glyph-name="gdotaccent" unicode="&#x121;" horiz-adv-x="581" 
d="M236 605h96v94h-96v-94zM305 -240q99 1 156 62q58 60 59 162v546h-78v-56h-2q-28 34 -68 52q-41 19 -88 19q-107 -2 -172 -78q-64 -76 -66 -202q2 -125 66 -201q64 -77 171 -79q53 0 93 18t64 53h2v-67q0 -73 -36 -115q-36 -41 -101 -42q-53 0 -87 24q-34 25 -57 81
l-71 -32q26 -69 82 -107q56 -37 133 -38v0zM289 58q-76 1 -120 57q-44 55 -45 150q1 94 44 150t116 57q68 -2 112 -45q44 -44 46 -110v-103q-2 -66 -45 -110t-108 -46v0z" />
    <glyph glyph-name="uni0122" unicode="&#x122;" horiz-adv-x="653" 
d="M340 -15q124 2 196 79q71 77 72 211v71h-259v-78h178q2 -96 -47 -150t-140 -55q-99 1 -155 77t-57 210q1 134 57 210t155 77q75 0 122 -43q47 -42 62 -125l82 15q-17 106 -88 168t-178 63q-136 -2 -215 -99q-78 -97 -80 -266q2 -168 80 -266q79 -97 215 -99v0zM293 -249
q48 2 74 28q25 26 25 73v83h-104v-96h45q0 -23 -9 -35q-10 -12 -31 -16v-37z" />
    <glyph glyph-name="uni0123" unicode="&#x123;" horiz-adv-x="581" 
d="M335 789q-52 -2 -79 -28t-27 -73v-83h110v96h-47q0 23 10 35q11 12 33 16v37zM305 -240q99 1 156 62q58 60 59 162v546h-78v-56h-2q-28 34 -68 52q-41 19 -88 19q-107 -2 -172 -78q-64 -76 -66 -202q2 -125 66 -201q64 -77 171 -79q53 0 93 18t64 53h2v-67
q0 -73 -36 -115q-36 -41 -101 -42q-53 0 -87 24q-34 25 -57 81l-71 -32q26 -69 82 -107q56 -37 133 -38v0zM289 58q-76 1 -120 57q-44 55 -45 150q1 94 44 150t116 57q68 -2 112 -45q44 -44 46 -110v-103q-2 -66 -45 -110t-108 -46v0z" />
    <glyph glyph-name="Hcircumflex" unicode="&#x124;" horiz-adv-x="652" 
d="M326 832l73 -92l47 37l-66 85h-108l-66 -85l47 -37zM484 700v-304h-316v304h-82v-700h82v324h316v-324h82v700h-82z" />
    <glyph glyph-name="hcircumflex" unicode="&#x125;" horiz-adv-x="555" 
d="M288 832l73 -92l47 37l-66 85h-108l-66 -85l47 -37zM293 545q-44 0 -84 -18q-39 -17 -63 -46h-2v249h-78v-730h78v333q1 63 39 100q37 38 101 39q62 -1 97 -37q34 -37 35 -102v-333h78v344q-1 93 -55 146q-53 54 -146 55v0z" />
    <glyph glyph-name="Hbar" unicode="&#x126;" horiz-adv-x="642" 
d="M642 584h-80v116h-83v-116h-315v116h-83v-116h-81v-69h81v-515h83v323h315v-323h83v515h80v69zM479 396h-315v119h315v-119z" />
    <glyph glyph-name="hbar" unicode="&#x127;" horiz-adv-x="555" 
d="M293 545q-44 0 -84 -18q-39 -17 -63 -46h-2v125h149v59h-149v65h-78v-65h-61v-59h61v-606h78v333q1 63 39 100q37 38 101 39q62 -1 97 -37q34 -37 35 -102v-333h78v344q-1 93 -55 146q-53 54 -146 55v0z" />
    <glyph glyph-name="Itilde" unicode="&#x128;" horiz-adv-x="254" 
d="M182 755q38 0 61 25t26 68h-47q-4 -16 -12 -25q-9 -8 -24 -8q-26 2 -51 19q-26 17 -64 19q-38 0 -61 -25t-26 -68h47q4 17 12 25q9 8 24 8q26 -2 52 -19q25 -17 63 -19v0zM86 0h82v700h-82v-700z" />
    <glyph glyph-name="itilde" unicode="&#x129;" horiz-adv-x="209" 
d="M160 585q38 0 61 25t26 68h-47q-4 -16 -12 -25q-9 -8 -24 -8q-26 2 -51 19q-26 17 -64 19q-38 0 -61 -25t-26 -68h47q4 17 12 25q9 8 24 8q26 -2 52 -19q25 -17 63 -19v0zM66 0h78v530h-78v-530z" />
    <glyph glyph-name="Imacron" unicode="&#x12a;" horiz-adv-x="254" 
d="M-6 760h267v63h-267v-63zM86 0h82v700h-82v-700z" />
    <glyph glyph-name="imacron" unicode="&#x12b;" horiz-adv-x="209" 
d="M-28 590h267v63h-267v-63zM66 0h78v530h-78v-530z" />
    <glyph glyph-name="Ibreve" unicode="&#x12c;" horiz-adv-x="254" 
d="M128 750q57 1 90 32q33 32 37 89h-49q-5 -27 -25 -41q-20 -15 -53 -15t-54 15q-20 14 -25 41h-49q4 -57 37 -89q34 -31 91 -32v0zM86 0h82v700h-82v-700z" />
    <glyph glyph-name="ibreve" unicode="&#x12d;" horiz-adv-x="209" 
d="M106 580q57 1 90 32q33 32 37 89h-49q-5 -27 -25 -41q-20 -15 -53 -15t-54 15q-20 14 -25 41h-49q4 -57 37 -89q34 -31 91 -32v0zM66 0h78v530h-78v-530z" />
    <glyph glyph-name="Iogonek" unicode="&#x12e;" horiz-adv-x="254" 
d="M176 -116q-15 -8 -30 -13t-29 -5q-17 0 -25 9q-9 8 -9 26q1 32 23 56q21 25 55 43h7v700h-82v-700h13q-37 -25 -59 -55q-21 -30 -23 -60q-1 -40 22 -62q24 -23 67 -23q26 0 50 6q23 5 44 15z" />
    <glyph glyph-name="iogonek" unicode="&#x12f;" horiz-adv-x="209" 
d="M150 710h-90v-87h90v87zM151 -116q-15 -8 -30 -13t-29 -5q-17 0 -25 9q-9 8 -9 26q1 32 23 56q21 25 55 43h8v530h-78v-530h8q-37 -25 -59 -55q-21 -30 -23 -60q-1 -40 22 -62q24 -23 67 -23q26 0 50 6q23 5 44 15z" />
    <glyph glyph-name="Idotaccent" unicode="&#x130;" horiz-adv-x="254" 
d="M79 760h96v94h-96v-94zM86 0h82v700h-82v-700z" />
    <glyph glyph-name="dotlessi" unicode="&#x131;" horiz-adv-x="209" 
d="M66 0h78v530h-78v-530z" />
    <glyph glyph-name="Jcircumflex" unicode="&#x134;" horiz-adv-x="522" 
d="M454 862h-108l-66 -85l47 -37l73 92l73 -92l47 37zM358 222q0 -78 -31 -118q-32 -41 -92 -41t-89 34q-30 33 -36 105l-80 -9q8 -104 60 -156t145 -52q92 1 148 61t58 172v482h-83v-478z" />
    <glyph glyph-name="jcircumflex" unicode="&#x135;" horiz-adv-x="220" 
d="M170 692h-108l-66 -85l47 -37l73 92l73 -92l47 37zM77 -62q0 -39 -44 -39h-43v-73h47q61 0 89 25q29 26 29 83v596h-78v-592z" />
    <glyph glyph-name="uni0136" unicode="&#x136;" horiz-adv-x="601" 
d="M86 0h82v220l90 109h2l235 -329h101l-283 393l255 307h-101l-297 -363h-2v363h-82v-700zM284 -234q48 2 74 28q25 26 25 73v83h-104v-96h45q0 -23 -9 -35q-10 -12 -31 -16v-37z" />
    <glyph glyph-name="uni0137" unicode="&#x137;" horiz-adv-x="511" 
d="M66 0h78v184l80 85h2l172 -269h92l-210 325l197 205h-110l-221 -236h-2v436h-78v-730zM222 -234q48 2 74 28q25 26 25 73v83h-104v-96h45q0 -23 -9 -35q-10 -12 -31 -16v-37z" />
    <glyph glyph-name="kgreenlandic" unicode="&#x138;" horiz-adv-x="520" 
d="M66 0h78v184l83 85h2l179 -269h92l-217 325l203 205h-111l-229 -236h-2v236h-78v-530z" />
    <glyph glyph-name="Lacute" unicode="&#x139;" horiz-adv-x="519" 
d="M80 760h70l102 116h-98zM86 0h398v78h-316v622h-82v-700z" />
    <glyph glyph-name="lacute" unicode="&#x13a;" horiz-adv-x="209" 
d="M58 790h70l102 116h-98zM66 0h78v730h-78v-730z" />
    <glyph glyph-name="uni013B" unicode="&#x13b;" horiz-adv-x="519" 
d="M86 0h398v78h-316v622h-82v-700zM238 -234q48 2 74 28q25 26 25 73v83h-104v-96h45q0 -23 -9 -35q-10 -12 -31 -16v-37z" />
    <glyph glyph-name="uni013C" unicode="&#x13c;" horiz-adv-x="209" 
d="M66 0h78v730h-78v-730zM58 -234q48 2 74 28q25 26 25 73v83h-104v-96h45q0 -23 -9 -35q-10 -12 -31 -16v-37z" />
    <glyph glyph-name="Lcaron" unicode="&#x13d;" horiz-adv-x="493" 
d="M86 0h398v78h-316v622h-82v-700zM383 516q48 2 74 28q25 26 25 73v83h-104v-96h45q0 -23 -9 -35q-10 -12 -31 -16v-37z" />
    <glyph glyph-name="lcaron" unicode="&#x13e;" horiz-adv-x="282" 
d="M66 0h78v730h-78v-730zM193 546q48 2 74 28q25 26 25 73v83h-104v-96h45q0 -23 -9 -35q-10 -12 -31 -16v-37z" />
    <glyph glyph-name="Ldot" unicode="&#x13f;" horiz-adv-x="519" 
d="M86 0h398v78h-316v622h-82v-700zM315 331h119v116h-119v-116z" />
    <glyph glyph-name="ldot" unicode="&#x140;" horiz-adv-x="307" 
d="M66 0h78v730h-78v-730zM188 321h119v116h-119v-116z" />
    <glyph glyph-name="Lslash" unicode="&#x141;" horiz-adv-x="568" 
d="M237 78v242l188 168l-35 39l-153 -138v311h-82v-385l-155 -144l33 -35l122 114v-250h398v78h-316z" />
    <glyph glyph-name="lslash" unicode="&#x142;" horiz-adv-x="295" 
d="M309 506l-32 35l-89 -84v273h-78v-331l-125 -115l32 -34l93 86v-336h78v393z" />
    <glyph glyph-name="Nacute" unicode="&#x143;" horiz-adv-x="672" 
d="M289 760h70l102 116h-98zM86 0h82v571h2l318 -571h98v700h-83v-571h-2l-318 571h-97v-700z" />
    <glyph glyph-name="nacute" unicode="&#x144;" horiz-adv-x="555" 
d="M245 605h70l102 116h-98zM66 0h78v333q1 63 39 100q37 38 101 39q62 -1 97 -37q34 -37 35 -102v-333h78v343q-1 93 -54 147q-54 54 -147 55q-44 0 -84 -18q-40 -17 -65 -46h-2v49h-76v-530z" />
    <glyph glyph-name="uni0145" unicode="&#x145;" horiz-adv-x="672" 
d="M86 0h82v571h2l318 -571h98v700h-83v-571h-2l-318 571h-97v-700zM297 -234q48 2 74 28q25 26 25 73v83h-104v-96h45q0 -23 -9 -35q-10 -12 -31 -16v-37z" />
    <glyph glyph-name="uni0146" unicode="&#x146;" horiz-adv-x="555" 
d="M66 0h78v333q1 63 39 100q37 38 101 39q62 -1 97 -37q34 -37 35 -102v-333h78v343q-1 93 -54 147q-54 54 -147 55q-44 0 -84 -18q-40 -17 -65 -46h-2v49h-76v-530zM233 -234q48 2 74 28q25 26 25 73v83h-104v-96h45q0 -23 -9 -35q-10 -12 -31 -16v-37z" />
    <glyph glyph-name="Ncaron" unicode="&#x147;" horiz-adv-x="672" 
d="M390 750l66 85l-47 37l-73 -92l-73 92l-47 -37l66 -85h108zM503 700v-571h-2l-318 571h-97v-700h82v571h2l318 -571h98v700h-83z" />
    <glyph glyph-name="ncaron" unicode="&#x148;" horiz-adv-x="555" 
d="M346 595l66 85l-47 37l-73 -92l-73 92l-47 -37l66 -85h108zM293 545q-44 0 -84 -18q-40 -17 -65 -46h-2v49h-76v-530h78v333q1 63 39 100q37 38 101 39q62 -1 97 -37q34 -37 35 -102v-333h78v343q-1 93 -54 147q-54 54 -147 55v0z" />
    <glyph glyph-name="Eng" unicode="&#x14a;" horiz-adv-x="668" 
d="M499 700v-547h-2l-323 547h-88v-700h82v562h2l334 -562v-62q1 -39 -44 -39h-42v-73h42q64 0 93 25t29 81v768h-83z" />
    <glyph glyph-name="eng" unicode="&#x14b;" horiz-adv-x="555" 
d="M293 545q-44 0 -84 -18q-40 -17 -65 -46h-2v49h-76v-530h78v333q1 63 39 100q37 38 101 39q62 -1 97 -37q34 -37 35 -102v-395q0 -39 -43 -39h-43v-73h43q63 0 92 25t29 81v411q-1 93 -54 147q-54 54 -147 55v0z" />
    <glyph glyph-name="Omacron" unicode="&#x14c;" horiz-adv-x="680" 
d="M207 775h267v63h-267v-63zM340 -15q135 2 214 100t81 265q-2 167 -81 265t-214 100q-135 -2 -214 -100t-81 -265q2 -167 81 -265t214 -100v0zM340 63q-99 1 -155 77t-57 210q1 134 57 210t155 77q99 -1 155 -77t57 -210q-1 -134 -57 -210t-155 -77v0z" />
    <glyph glyph-name="omacron" unicode="&#x14d;" horiz-adv-x="590" 
d="M162 605h267v63h-267v-63zM295 -15q114 2 181 77q67 76 69 203q-2 127 -69 203q-67 75 -181 77q-114 -2 -181 -77q-66 -76 -68 -203q2 -127 68 -203q67 -75 181 -77v0zM295 58q-80 1 -125 56t-46 151q1 96 46 151t125 56q80 -1 125 -56q46 -55 47 -151q-1 -96 -47 -151
q-45 -55 -125 -56v0z" />
    <glyph glyph-name="Obreve" unicode="&#x14e;" horiz-adv-x="680" 
d="M341 765q57 1 90 32q33 32 37 89h-49q-5 -27 -25 -41q-20 -15 -53 -15t-54 15q-20 14 -25 41h-49q4 -57 37 -89q34 -31 91 -32v0zM340 -15q135 2 214 100t81 265q-2 167 -81 265t-214 100q-135 -2 -214 -100t-81 -265q2 -167 81 -265t214 -100v0zM340 63q-99 1 -155 77
t-57 210q1 134 57 210t155 77q99 -1 155 -77t57 -210q-1 -134 -57 -210t-155 -77v0z" />
    <glyph glyph-name="obreve" unicode="&#x14f;" horiz-adv-x="590" 
d="M296 595q57 1 90 32q33 32 37 89h-49q-5 -27 -25 -41q-20 -15 -53 -15t-54 15q-20 14 -25 41h-49q4 -57 37 -89q34 -31 91 -32v0zM295 -15q114 2 181 77q67 76 69 203q-2 127 -69 203q-67 75 -181 77q-114 -2 -181 -77q-66 -76 -68 -203q2 -127 68 -203q67 -75 181 -77v0
zM295 58q-80 1 -125 56t-46 151q1 96 46 151t125 56q80 -1 125 -56q46 -55 47 -151q-1 -96 -47 -151q-45 -55 -125 -56v0z" />
    <glyph glyph-name="Ohungarumlaut" unicode="&#x150;" horiz-adv-x="680" 
d="M207 775h70l102 116h-98zM361 775h70l102 116h-98zM340 -15q135 2 214 100t81 265q-2 167 -81 265t-214 100q-135 -2 -214 -100t-81 -265q2 -167 81 -265t214 -100v0zM340 63q-99 1 -155 77t-57 210q1 134 57 210t155 77q99 -1 155 -77t57 -210q-1 -134 -57 -210
t-155 -77v0z" />
    <glyph glyph-name="ohungarumlaut" unicode="&#x151;" horiz-adv-x="590" 
d="M162 605h70l102 116h-98zM316 605h70l102 116h-98zM295 -15q114 2 181 77q67 76 69 203q-2 127 -69 203q-67 75 -181 77q-114 -2 -181 -77q-66 -76 -68 -203q2 -127 68 -203q67 -75 181 -77v0zM295 58q-80 1 -125 56t-46 151q1 96 46 151t125 56q80 -1 125 -56
q46 -55 47 -151q-1 -96 -47 -151q-45 -55 -125 -56v0z" />
    <glyph glyph-name="OE" unicode="&#x152;" horiz-adv-x="938" 
d="M340 -15q90 0 155 46h2v-31h386v78h-303v245h275v75h-275v224h303v78h-386v-32h-2q-32 24 -71 36q-39 11 -84 11q-135 -2 -214 -100t-81 -265q2 -167 81 -265t214 -100v0zM340 63q-99 1 -155 77t-57 210q1 134 57 210t155 77q50 0 90 -18t67 -53v-432q-27 -35 -67 -53
t-90 -18v0z" />
    <glyph glyph-name="oe" unicode="&#x153;" horiz-adv-x="995" 
d="M949 282q-1 119 -65 190q-63 71 -172 73q-70 0 -122 -32q-53 -32 -84 -90q-31 58 -85 90q-53 32 -125 32q-114 -2 -181 -77q-67 -76 -69 -203q2 -127 69 -203q67 -75 181 -77q72 1 125 33q54 32 85 89q30 -57 83 -89q52 -32 123 -33q77 0 134 35q56 35 91 103l-63 39
q-33 -59 -71 -83q-37 -25 -93 -24q-74 2 -117 55q-44 53 -46 132h402v40zM296 55q-80 1 -126 58q-46 56 -47 152q1 96 47 152q46 57 126 58q79 -1 125 -57q46 -57 47 -153q-1 -96 -47 -153q-46 -56 -125 -57v0zM549 305q2 69 47 118q46 50 116 52q72 -2 114 -49t45 -121
h-322z" />
    <glyph glyph-name="Racute" unicode="&#x154;" horiz-adv-x="609" 
d="M430 876h-98l-74 -116h70zM399 290q83 14 129 67q45 52 46 136q-1 98 -62 152t-171 55h-255v-700h82v284h140l148 -284h97l-154 288v2zM168 362v260h166q78 0 118 -33q39 -32 39 -96q0 -65 -40 -98t-117 -33h-166z" />
    <glyph glyph-name="racute" unicode="&#x155;" horiz-adv-x="325" 
d="M110 590h70l102 116h-98zM66 0h78v318q0 74 23 108t69 33q13 0 26 -2q12 -2 26 -7l17 81q-13 4 -26 6t-27 2q-38 0 -67 -14q-28 -14 -43 -39h-2v44h-74v-530z" />
    <glyph glyph-name="uni0156" unicode="&#x156;" horiz-adv-x="609" 
d="M399 290q83 14 129 67q45 52 46 136q-1 98 -62 152t-171 55h-255v-700h82v284h140l148 -284h97l-154 288v2zM168 362v260h166q78 0 118 -33q39 -32 39 -96q0 -65 -40 -98t-117 -33h-166zM263 -146h45q0 -23 -9 -35q-10 -12 -31 -16v-37q48 2 74 28q25 26 25 73v83h-104
v-96z" />
    <glyph glyph-name="uni0157" unicode="&#x157;" horiz-adv-x="325" 
d="M66 0h78v318q0 74 23 108t69 33q13 0 26 -2q12 -2 26 -7l17 81q-13 4 -26 6t-27 2q-38 0 -67 -14q-28 -14 -43 -39h-2v44h-74v-530zM58 -234q48 2 74 28q25 26 25 73v83h-104v-96h45q0 -23 -9 -35q-10 -12 -31 -16v-37z" />
    <glyph glyph-name="Rcaron" unicode="&#x158;" horiz-adv-x="609" 
d="M359 750l66 85l-47 37l-73 -92l-73 92l-47 -37l66 -85h108zM399 290q83 14 129 67q45 52 46 136q-1 98 -62 152t-171 55h-255v-700h82v284h140l148 -284h97l-154 288v2zM168 362v260h166q78 0 118 -33q39 -32 39 -96q0 -65 -40 -98t-117 -33h-166z" />
    <glyph glyph-name="rcaron" unicode="&#x159;" horiz-adv-x="325" 
d="M211 580l66 85l-47 37l-73 -92l-73 92l-47 -37l66 -85h108zM252 539q-38 0 -67 -14q-28 -14 -43 -39h-2v44h-74v-530h78v318q0 74 23 108t69 33q13 0 26 -2q12 -2 26 -7l17 81q-13 4 -26 6t-27 2v0z" />
    <glyph glyph-name="Sacute" unicode="&#x15a;" horiz-adv-x="602" 
d="M246 775h70l102 116h-98zM323 -15q110 1 176 53t68 139q2 81 -56 134q-57 53 -192 96q-94 29 -132 56q-37 28 -36 67q1 49 39 78q37 28 102 29q69 0 113 -37q44 -36 61 -106l81 17q-19 95 -86 149q-68 54 -168 55q-101 -1 -161 -52q-61 -50 -63 -133q-2 -69 49 -114
q50 -44 174 -84q108 -33 151 -69q44 -35 42 -87q-1 -52 -44 -82t-117 -31q-95 0 -146 45t-61 138l-82 -14q12 -120 86 -183q73 -64 202 -64v0z" />
    <glyph glyph-name="sacute" unicode="&#x15b;" horiz-adv-x="502" 
d="M199 605h70l102 116h-98zM271 -15q90 1 142 42q53 40 54 110q1 63 -44 102q-46 40 -155 71q-73 21 -102 40q-28 19 -27 46q1 35 30 55q28 21 77 21q50 0 83 -26q32 -26 46 -76l76 17q-16 74 -70 115q-54 42 -135 43q-82 -1 -133 -43q-51 -41 -52 -109q-1 -54 40 -89
t141 -63q83 -24 115 -47q32 -24 31 -60q-1 -35 -31 -55q-31 -21 -86 -21q-72 -1 -110 32t-49 105l-76 -14q10 -94 71 -145q61 -50 164 -51v0z" />
    <glyph glyph-name="Scircumflex" unicode="&#x15c;" horiz-adv-x="602" 
d="M293 847l73 -92l47 37l-66 85h-108l-66 -85l47 -37zM319 407q-94 29 -132 56q-37 28 -36 67q1 49 39 78q37 28 102 29q69 0 113 -37q44 -36 61 -106l81 17q-19 95 -86 149q-68 54 -168 55q-101 -1 -161 -52q-61 -50 -63 -133q-2 -69 49 -114q50 -44 174 -84
q108 -33 151 -69q44 -35 42 -87q-1 -52 -44 -82t-117 -31q-95 0 -146 45t-61 138l-82 -14q12 -120 86 -183q73 -64 202 -64q110 1 176 53t68 139q2 81 -56 134q-57 53 -192 96v0z" />
    <glyph glyph-name="scircumflex" unicode="&#x15d;" horiz-adv-x="502" 
d="M246 677l73 -92l47 37l-66 85h-108l-66 -85l47 -37zM268 310q-73 21 -102 40q-28 19 -27 46q1 35 30 55q28 21 77 21q50 0 83 -26q32 -26 46 -76l76 17q-16 74 -70 115q-54 42 -135 43q-82 -1 -133 -43q-51 -41 -52 -109q-1 -54 40 -89t141 -63q83 -24 115 -47
q32 -24 31 -60q-1 -35 -31 -55q-31 -21 -86 -21q-72 -1 -110 32t-49 105l-76 -14q10 -94 71 -145q61 -50 164 -51q90 1 142 42q53 40 54 110q1 63 -44 102q-46 40 -155 71v0z" />
    <glyph glyph-name="Scedilla" unicode="&#x15e;" horiz-adv-x="602" 
d="M567 177q2 81 -56 134q-57 53 -192 96q-94 29 -132 56q-37 28 -36 67q1 49 39 78q37 28 102 29q69 0 113 -37q44 -36 61 -106l81 17q-19 95 -86 149q-68 54 -168 55q-101 -1 -161 -52q-61 -50 -63 -133q-2 -69 49 -114q50 -44 174 -84q108 -33 151 -69q44 -35 42 -87
q-1 -52 -44 -82t-117 -31q-95 0 -146 45t-61 138l-82 -14q11 -114 78 -176q66 -63 182 -70l-49 -92l43 -19q12 14 25 20q14 6 30 6q20 0 33 -11q14 -10 14 -29q0 -18 -13 -29q-13 -12 -35 -12q-37 0 -68 30l-34 -41q23 -20 48 -30q26 -10 54 -10q45 1 73 25q29 24 30 66
q-1 38 -27 61t-64 24q-19 0 -34 -6l27 47q100 7 159 58q59 52 60 133v0z" />
    <glyph glyph-name="scedilla" unicode="&#x15f;" horiz-adv-x="502" 
d="M467 137q1 63 -44 102q-46 40 -155 71q-73 21 -102 40q-28 19 -27 46q1 35 30 55q28 21 77 21q50 0 83 -26q32 -26 46 -76l76 17q-16 74 -70 115q-54 42 -135 43q-82 -1 -133 -43q-51 -41 -52 -109q-1 -54 40 -89t141 -63q83 -24 115 -47q32 -24 31 -60q-1 -35 -31 -55
q-31 -21 -86 -21q-72 -1 -110 32t-49 105l-76 -14q9 -87 63 -138q53 -50 144 -57l-49 -92l43 -19q12 14 25 20q14 6 30 6q20 0 33 -11q14 -10 14 -29q0 -18 -13 -29q-13 -12 -35 -12q-37 0 -68 30l-34 -41q23 -20 48 -30q26 -10 54 -10q45 1 73 25q29 24 30 66q-1 38 -27 61
t-64 24q-19 0 -34 -6l27 47q79 7 125 47q45 40 46 104v0z" />
    <glyph glyph-name="Scaron" unicode="&#x160;" horiz-adv-x="602" 
d="M347 765l66 85l-47 37l-73 -92l-73 92l-47 -37l66 -85h108zM319 407q-94 29 -132 56q-37 28 -36 67q1 49 39 78q37 28 102 29q69 0 113 -37q44 -36 61 -106l81 17q-19 95 -86 149q-68 54 -168 55q-101 -1 -161 -52q-61 -50 -63 -133q-2 -69 49 -114q50 -44 174 -84
q108 -33 151 -69q44 -35 42 -87q-1 -52 -44 -82t-117 -31q-95 0 -146 45t-61 138l-82 -14q12 -120 86 -183q73 -64 202 -64q110 1 176 53t68 139q2 81 -56 134q-57 53 -192 96v0z" />
    <glyph glyph-name="scaron" unicode="&#x161;" horiz-adv-x="502" 
d="M300 595l66 85l-47 37l-73 -92l-73 92l-47 -37l66 -85h108zM268 310q-73 21 -102 40q-28 19 -27 46q1 35 30 55q28 21 77 21q50 0 83 -26q32 -26 46 -76l76 17q-16 74 -70 115q-54 42 -135 43q-82 -1 -133 -43q-51 -41 -52 -109q-1 -54 40 -89t141 -63q83 -24 115 -47
q32 -24 31 -60q-1 -35 -31 -55q-31 -21 -86 -21q-72 -1 -110 32t-49 105l-76 -14q10 -94 71 -145q61 -50 164 -51q90 1 142 42q53 40 54 110q1 63 -44 102q-46 40 -155 71v0z" />
    <glyph glyph-name="uni0162" unicode="&#x162;" horiz-adv-x="589" 
d="M336 0v622h218v78h-519v-78h218v-622h13l-49 -91l43 -19q12 14 25 20q14 6 30 6q20 0 33 -11q14 -10 14 -29q0 -18 -13 -29q-13 -12 -35 -12q-37 0 -68 30l-34 -41q23 -20 48 -30q26 -10 54 -10q45 1 73 25q29 24 30 66q-1 38 -27 61t-64 24q-19 0 -34 -6l27 46h17z" />
    <glyph glyph-name="uni0163" unicode="&#x163;" horiz-adv-x="338" 
d="M219 -40q-19 0 -34 -6l27 46h18h50v73h-44q-32 0 -45 11q-13 12 -13 37v339h130v70h-130v120h-78v-120h-80v-70h80v-338q0 -48 15 -76t48 -38l-53 -99l43 -19q12 14 25 20q14 6 30 6q20 0 33 -11q14 -10 14 -29q0 -18 -13 -29q-13 -12 -35 -12q-37 0 -68 30l-34 -41
q23 -20 48 -30q26 -10 54 -10q45 1 73 25q29 24 30 66q-1 38 -27 61t-64 24v0z" />
    <glyph glyph-name="Tcaron" unicode="&#x164;" horiz-adv-x="589" 
d="M348 750l66 85l-47 37l-73 -92l-73 92l-47 -37l66 -85h108zM35 700v-78h218v-622h83v622h218v78h-519z" />
    <glyph glyph-name="tcaron" unicode="&#x165;" horiz-adv-x="338" 
d="M233 767v-96h45q0 -23 -9 -35q-10 -12 -31 -16v-37q48 2 74 28q25 26 25 73v83h-104zM178 650h-78v-120h-80v-70h80v-338q-1 -67 29 -95t101 -27h50v73h-44q-32 0 -45 11q-13 12 -13 37v339h130v70h-130v120z" />
    <glyph glyph-name="Tbar" unicode="&#x166;" horiz-adv-x="589" 
d="M554 622v78h-519v-78h218v-236h-136v-69h136v-317h83v317h133v69h-133v236h218z" />
    <glyph glyph-name="tbar" unicode="&#x167;" horiz-adv-x="338" 
d="M308 460v70h-130v120h-78v-120h-80v-70h80v-156h-80v-59h80v-123q-1 -67 29 -95t101 -27h50v73h-44q-32 0 -45 11q-13 12 -13 37v124h130v59h-130v156h130z" />
    <glyph glyph-name="Utilde" unicode="&#x168;" horiz-adv-x="662" 
d="M386 755q38 0 61 25t26 68h-47q-4 -16 -12 -25q-9 -8 -24 -8q-26 2 -51 19q-26 17 -64 19q-38 0 -61 -25t-26 -68h47q4 17 12 25q9 8 24 8q26 -2 52 -19q25 -17 63 -19v0zM330 -15q122 1 187 63q64 62 65 180v472h-83v-468q0 -83 -43 -126t-126 -43t-125 43t-42 128v466
h-82v-472q0 -118 64 -180t185 -63v0z" />
    <glyph glyph-name="utilde" unicode="&#x169;" horiz-adv-x="543" 
d="M322 585q38 0 61 25t26 68h-47q-4 -16 -12 -25q-9 -8 -24 -8q-26 2 -51 19q-26 17 -64 19q-38 0 -61 -25t-26 -68h47q4 17 12 25q9 8 24 8q26 -2 52 -19q25 -17 63 -19v0zM243 -15q49 0 90 17t66 47h2v-49h76v530h-78v-333q-1 -63 -36 -101q-36 -37 -97 -38
q-67 0 -100 34q-32 35 -32 105v333h-78v-344q1 -97 49 -148q49 -52 138 -53v0z" />
    <glyph glyph-name="Umacron" unicode="&#x16a;" horiz-adv-x="662" 
d="M198 760h267v63h-267v-63zM330 -15q122 1 187 63q64 62 65 180v472h-83v-468q0 -83 -43 -126t-126 -43t-125 43t-42 128v466h-82v-472q0 -118 64 -180t185 -63v0z" />
    <glyph glyph-name="umacron" unicode="&#x16b;" horiz-adv-x="543" 
d="M134 590h267v63h-267v-63zM243 -15q49 0 90 17t66 47h2v-49h76v530h-78v-333q-1 -63 -36 -101q-36 -37 -97 -38q-67 0 -100 34q-32 35 -32 105v333h-78v-344q1 -97 49 -148q49 -52 138 -53v0z" />
    <glyph glyph-name="Ubreve" unicode="&#x16c;" horiz-adv-x="662" 
d="M332 750q57 1 90 32q33 32 37 89h-49q-5 -27 -25 -41q-20 -15 -53 -15t-54 15q-20 14 -25 41h-49q4 -57 37 -89q34 -31 91 -32v0zM330 -15q122 1 187 63q64 62 65 180v472h-83v-468q0 -83 -43 -126t-126 -43t-125 43t-42 128v466h-82v-472q0 -118 64 -180t185 -63v0z" />
    <glyph glyph-name="ubreve" unicode="&#x16d;" horiz-adv-x="543" 
d="M268 580q57 1 90 32q33 32 37 89h-49q-5 -27 -25 -41q-20 -15 -53 -15t-54 15q-20 14 -25 41h-49q4 -57 37 -89q34 -31 91 -32v0zM243 -15q49 0 90 17t66 47h2v-49h76v530h-78v-333q-1 -63 -36 -101q-36 -37 -97 -38q-67 0 -100 34q-32 35 -32 105v333h-78v-344
q1 -97 49 -148q49 -52 138 -53v0z" />
    <glyph glyph-name="Uring" unicode="&#x16e;" horiz-adv-x="662" 
d="M331 652q54 1 88 32q33 31 34 81q-1 50 -34 82q-34 31 -88 32q-54 -1 -87 -32q-34 -32 -35 -82q1 -50 35 -81q33 -31 87 -32v0zM331 700q-29 1 -47 18q-17 18 -18 47q1 30 18 48q18 18 47 18t47 -18t19 -48q-1 -29 -19 -47q-18 -17 -47 -18v0zM330 -15q122 1 187 63
q64 62 65 180v472h-83v-468q0 -83 -43 -126t-126 -43t-125 43t-42 128v466h-82v-472q0 -118 64 -180t185 -63v0z" />
    <glyph glyph-name="uring" unicode="&#x16f;" horiz-adv-x="543" 
d="M272 530q54 1 88 32q33 31 34 81q-1 50 -34 82q-34 31 -88 32q-54 -1 -87 -32q-34 -32 -35 -82q1 -50 35 -81q33 -31 87 -32v0zM272 578q-29 1 -47 18q-17 18 -18 47q1 30 18 48q18 18 47 18t47 -18t19 -48q-1 -29 -19 -47q-18 -17 -47 -18v0zM243 -15q49 0 90 17t66 47
h2v-49h76v530h-78v-333q-1 -63 -36 -101q-36 -37 -97 -38q-67 0 -100 34q-32 35 -32 105v333h-78v-344q1 -97 49 -148q49 -52 138 -53v0z" />
    <glyph glyph-name="Uhungarumlaut" unicode="&#x170;" horiz-adv-x="662" 
d="M198 760h70l102 116h-98zM352 760h70l102 116h-98zM330 -15q122 1 187 63q64 62 65 180v472h-83v-468q0 -83 -43 -126t-126 -43t-125 43t-42 128v466h-82v-472q0 -118 64 -180t185 -63v0z" />
    <glyph glyph-name="uhungarumlaut" unicode="&#x171;" horiz-adv-x="543" 
d="M134 590h70l102 116h-98zM288 590h70l102 116h-98zM243 -15q49 0 90 17t66 47h2v-49h76v530h-78v-333q-1 -63 -36 -101q-36 -37 -97 -38q-67 0 -100 34q-32 35 -32 105v333h-78v-344q1 -97 49 -148q49 -52 138 -53v0z" />
    <glyph glyph-name="Uogonek" unicode="&#x172;" horiz-adv-x="662" 
d="M499 700v-468q0 -83 -43 -126t-126 -43t-125 43t-42 128v466h-82v-472q0 -118 64 -180t185 -63q12 0 22 1q-28 -23 -44 -49t-18 -52q-1 -40 22 -62q24 -23 67 -23q26 0 50 6q23 5 44 15l-24 63q-15 -8 -30 -13t-29 -5q-17 0 -25 9q-9 8 -9 26q1 32 22 56q22 25 55 43
q73 23 111 81q38 57 38 147v472h-83z" />
    <glyph glyph-name="uogonek" unicode="&#x173;" horiz-adv-x="543" 
d="M485 -116q-15 -8 -30 -13t-29 -5q-17 0 -25 9q-9 8 -9 26q1 32 23 56q21 25 55 43h7v530h-78v-333q-1 -63 -36 -101q-36 -37 -97 -38q-67 0 -100 34q-32 35 -32 105v333h-78v-344q1 -97 49 -148q49 -52 138 -53q49 0 90 17t66 47h2v-49h7q-37 -25 -59 -55
q-21 -30 -23 -60q-1 -40 22 -62q24 -23 67 -23q26 0 50 6q23 5 44 15z" />
    <glyph glyph-name="Wcircumflex" unicode="&#x174;" horiz-adv-x="845" 
d="M422 832l73 -92l47 37l-66 85h-108l-66 -85l47 -37zM740 700l-103 -569h-2l-174 569h-78l-173 -569h-2l-103 569h-85l129 -700h101l171 562h2l172 -562h100l130 700h-85z" />
    <glyph glyph-name="wcircumflex" unicode="&#x175;" horiz-adv-x="755" 
d="M378 662l73 -92l47 37l-66 85h-108l-66 -85l47 -37zM653 530l-96 -412h-2l-142 412h-71l-142 -412h-2l-96 412h-77l127 -530h74l151 433h2l150 -433h74l127 530h-77z" />
    <glyph glyph-name="Ycircumflex" unicode="&#x176;" horiz-adv-x="573" 
d="M286 832l73 -92l47 37l-66 85h-108l-66 -85l47 -37zM477 700l-190 -327h-2l-189 327h-96l245 -408v-292h83v292l245 408h-96z" />
    <glyph glyph-name="ycircumflex" unicode="&#x177;" horiz-adv-x="511" 
d="M256 662l73 -92l47 37l-66 85h-108l-66 -85l47 -37zM418 530l-162 -395h-2l-161 395h-83l204 -485l-112 -270h81l318 755h-83z" />
    <glyph glyph-name="Ydieresis" unicode="&#x178;" horiz-adv-x="573" 
d="M148 750h96v94h-96v-94zM328 750h96v94h-96v-94zM245 0h83v292l245 408h-96l-190 -327h-2l-189 327h-96l245 -408v-292z" />
    <glyph glyph-name="Zacute" unicode="&#x179;" horiz-adv-x="593" 
d="M258 760h70l102 116h-98zM45 0h493v78h-392v2l402 550v70h-487v-78h387v-2l-403 -550v-70z" />
    <glyph glyph-name="zacute" unicode="&#x17a;" horiz-adv-x="500" 
d="M203 590h70l102 116h-98zM30 0h440v70h-345v2l337 388v70h-420v-70h325v-2l-337 -388v-70z" />
    <glyph glyph-name="Zdotaccent" unicode="&#x17b;" horiz-adv-x="593" 
d="M257 760h96v94h-96v-94zM45 0h493v78h-392v2l402 550v70h-487v-78h387v-2l-403 -550v-70z" />
    <glyph glyph-name="zdotaccent" unicode="&#x17c;" horiz-adv-x="500" 
d="M205 623h90v87h-90v-87zM30 0h440v70h-345v2l337 388v70h-420v-70h325v-2l-337 -388v-70z" />
    <glyph glyph-name="Zcaron" unicode="&#x17d;" horiz-adv-x="593" 
d="M359 750l66 85l-47 37l-73 -92l-73 92l-47 -37l66 -85h108zM548 630v70h-487v-78h387v-2l-403 -550v-70h493v78h-392v2z" />
    <glyph glyph-name="zcaron" unicode="&#x17e;" horiz-adv-x="500" 
d="M304 580l66 85l-47 37l-73 -92l-73 92l-47 -37l66 -85h108zM125 70v2l337 388v70h-420v-70h325v-2l-337 -388v-70h440v70h-345z" />
    <glyph glyph-name="longs" unicode="&#x17f;" horiz-adv-x="273" 
d="M101 0h78v591q0 26 12 38q13 12 38 12h69v73h-78q-57 -1 -88 -30t-31 -81v-73h-81v-71h81v-459z" />
    <glyph glyph-name="uni018E" unicode="&#x18e;" horiz-adv-x="561" 
d="M475 0v700h-420v-78h338v-224h-310v-74h310v-246h-338v-78h420z" />
    <glyph glyph-name="uni018F" unicode="&#x18f;" horiz-adv-x="672" 
d="M335 -15q134 2 212 100q78 97 80 264q-2 169 -80 266q-78 98 -212 100q-94 0 -163 -51q-69 -52 -106 -151l77 -27q26 75 75 113q48 38 117 38q93 -1 148 -69t59 -188h-497v-30q2 -170 79 -267q77 -96 211 -98v0zM335 63q-90 1 -144 64t-59 180h410q-8 -116 -62 -179
q-54 -64 -145 -65v0z" />
    <glyph glyph-name="florin" unicode="&#x192;" horiz-adv-x="427" 
d="M316 641h77v73h-78q-57 0 -91 -27q-34 -28 -44 -81l-14 -76h-127v-73h115l-89 -505q-5 -30 -18 -41q-14 -12 -43 -12h-55v-73h56q116 1 135 109l14 78l78 444h141v73h-129l11 58q5 30 19 42q14 11 42 11v0z" />
    <glyph glyph-name="uni01CD" unicode="&#x1cd;" horiz-adv-x="593" 
d="M351 750l66 85l-47 37l-73 -92l-73 92l-47 -37l66 -85h108zM503 0h85l-251 700h-80l-252 -700h85l49 141h315zM165 213l131 374h2l131 -374h-264z" />
    <glyph glyph-name="uni01CE" unicode="&#x1ce;" horiz-adv-x="510" 
d="M312 595l66 85l-47 37l-73 -92l-73 92l-47 -37l66 -85h108zM258 545q-84 -1 -141 -46q-56 -45 -71 -124l79 -15q11 54 46 84q34 30 87 30q50 0 79 -22t30 -59q1 -31 -29 -52q-31 -20 -106 -38q-99 -23 -143 -62t-43 -106q1 -70 47 -109q46 -40 127 -41q51 0 91 19t63 52
h2v-56h73v373q-1 80 -51 126q-50 45 -140 46v0zM371 179q-1 -53 -41 -87q-39 -33 -104 -34q-50 0 -76 21t-26 61q-1 34 30 56q30 23 99 40q53 13 81 28q27 15 35 34h2v-119z" />
    <glyph glyph-name="uni01CF" unicode="&#x1cf;" horiz-adv-x="254" 
d="M200 872l-73 -92l-73 92l-47 -37l66 -85h108l66 85zM86 0h82v700h-82v-700z" />
    <glyph glyph-name="uni01D0" unicode="&#x1d0;" horiz-adv-x="209" 
d="M178 702l-73 -92l-73 92l-47 -37l66 -85h108l66 85zM66 0h78v530h-78v-530z" />
    <glyph glyph-name="uni01D1" unicode="&#x1d1;" horiz-adv-x="680" 
d="M394 765l66 85l-47 37l-73 -92l-73 92l-47 -37l66 -85h108zM340 715q-135 -2 -214 -100t-81 -265q2 -167 81 -265t214 -100q135 2 214 100t81 265q-2 167 -81 265t-214 100v0zM340 63q-99 1 -155 77t-57 210q1 134 57 210t155 77q99 -1 155 -77t57 -210q-1 -134 -57 -210
t-155 -77v0z" />
    <glyph glyph-name="uni01D2" unicode="&#x1d2;" horiz-adv-x="590" 
d="M349 595l66 85l-47 37l-73 -92l-73 92l-47 -37l66 -85h108zM295 545q-114 -2 -181 -77q-66 -76 -68 -203q2 -127 68 -203q67 -75 181 -77q114 2 181 77q67 76 69 203q-2 127 -69 203q-67 75 -181 77v0zM295 58q-80 1 -125 56t-46 151q1 96 46 151t125 56q80 -1 125 -56
q46 -55 47 -151q-1 -96 -47 -151q-45 -55 -125 -56v0z" />
    <glyph glyph-name="uni01D3" unicode="&#x1d3;" horiz-adv-x="662" 
d="M385 750l66 85l-47 37l-73 -92l-73 92l-47 -37l66 -85h108zM499 700v-468q0 -83 -43 -126t-126 -43t-125 43t-42 128v466h-82v-472q0 -118 64 -180t185 -63q122 1 187 63q64 62 65 180v472h-83z" />
    <glyph glyph-name="uni01D4" unicode="&#x1d4;" horiz-adv-x="543" 
d="M321 580l66 85l-47 37l-73 -92l-73 92l-47 -37l66 -85h108zM399 530v-333q-1 -63 -36 -101q-36 -37 -97 -38q-67 0 -100 34q-32 35 -32 105v333h-78v-344q1 -97 49 -148q49 -52 138 -53q49 0 90 17t66 47h2v-49h76v530h-78z" />
    <glyph glyph-name="uni01D5" unicode="&#x1d5;" horiz-adv-x="662" 
d="M198 884h267v63h-267v-63zM193 750h96v94h-96v-94zM373 750h96v94h-96v-94zM330 -15q122 1 187 63q64 62 65 180v472h-83v-468q0 -83 -43 -126t-126 -43t-125 43t-42 128v466h-82v-472q0 -118 64 -180t185 -63v0z" />
    <glyph glyph-name="uni01D6" unicode="&#x1d6;" horiz-adv-x="543" 
d="M134 714h267v63h-267v-63zM129 580h96v94h-96v-94zM309 580h96v94h-96v-94zM243 -15q49 0 90 17t66 47h2v-49h76v530h-78v-333q-1 -63 -36 -101q-36 -37 -97 -38q-67 0 -100 34q-32 35 -32 105v333h-78v-344q1 -97 49 -148q49 -52 138 -53v0z" />
    <glyph glyph-name="uni01D7" unicode="&#x1d7;" horiz-adv-x="662" 
d="M284 884h70l102 116h-98zM193 750h96v94h-96v-94zM373 750h96v94h-96v-94zM330 -15q122 1 187 63q64 62 65 180v472h-83v-468q0 -83 -43 -126t-126 -43t-125 43t-42 128v466h-82v-472q0 -118 64 -180t185 -63v0z" />
    <glyph glyph-name="uni01D8" unicode="&#x1d8;" horiz-adv-x="543" 
d="M220 714h70l102 116h-98zM129 580h96v94h-96v-94zM309 580h96v94h-96v-94zM243 -15q49 0 90 17t66 47h2v-49h76v530h-78v-333q-1 -63 -36 -101q-36 -37 -97 -38q-67 0 -100 34q-32 35 -32 105v333h-78v-344q1 -97 49 -148q49 -52 138 -53v0z" />
    <glyph glyph-name="uni01D9" unicode="&#x1d9;" horiz-adv-x="662" 
d="M385 874l66 85l-47 37l-73 -92l-73 92l-47 -37l66 -85h108zM289 844h-96v-94h96v94zM373 750h96v94h-96v-94zM499 700v-468q0 -83 -43 -126t-126 -43t-125 43t-42 128v466h-82v-472q0 -118 64 -180t185 -63q122 1 187 63q64 62 65 180v472h-83z" />
    <glyph glyph-name="uni01DA" unicode="&#x1da;" horiz-adv-x="543" 
d="M321 704l66 85l-47 37l-73 -92l-73 92l-47 -37l66 -85h108zM225 674h-96v-94h96v94zM309 580h96v94h-96v-94zM399 530v-333q-1 -63 -36 -101q-36 -37 -97 -38q-67 0 -100 34q-32 35 -32 105v333h-78v-344q1 -97 49 -148q49 -52 138 -53q49 0 90 17t66 47h2v-49h76v530
h-78z" />
    <glyph glyph-name="uni01DB" unicode="&#x1db;" horiz-adv-x="662" 
d="M305 884h70l-74 116h-98zM193 750h96v94h-96v-94zM373 750h96v94h-96v-94zM330 -15q122 1 187 63q64 62 65 180v472h-83v-468q0 -83 -43 -126t-126 -43t-125 43t-42 128v466h-82v-472q0 -118 64 -180t185 -63v0z" />
    <glyph glyph-name="uni01DC" unicode="&#x1dc;" horiz-adv-x="543" 
d="M241 714h70l-74 116h-98zM129 580h96v94h-96v-94zM309 580h96v94h-96v-94zM243 -15q49 0 90 17t66 47h2v-49h76v530h-78v-333q-1 -63 -36 -101q-36 -37 -97 -38q-67 0 -100 34q-32 35 -32 105v333h-78v-344q1 -97 49 -148q49 -52 138 -53v0z" />
    <glyph glyph-name="uni01DE" unicode="&#x1de;" horiz-adv-x="593" 
d="M431 947h-267v-63h267v63zM255 844h-96v-94h96v94zM339 750h96v94h-96v-94zM503 0h85l-251 700h-80l-252 -700h85l49 141h315zM165 213l131 374h2l131 -374h-264z" />
    <glyph glyph-name="uni01DF" unicode="&#x1df;" horiz-adv-x="510" 
d="M125 729h267v63h-267v-63zM120 595h96v94h-96v-94zM300 595h96v94h-96v-94zM220 -15q51 0 91 19t63 52h2v-56h73v373q-1 80 -51 126q-50 45 -140 46q-84 -1 -141 -46q-56 -45 -71 -124l79 -15q11 54 46 84q34 30 87 30q50 0 79 -22t30 -59q1 -31 -29 -52
q-31 -20 -106 -38q-99 -23 -143 -62t-43 -106q1 -70 47 -109q46 -40 127 -41v0zM226 58q-50 0 -76 21t-26 61q-1 34 30 56q30 23 99 40q53 13 81 28q27 15 35 34h2v-119q-1 -53 -41 -87q-39 -33 -104 -34v0z" />
    <glyph glyph-name="Aringacute" unicode="&#x1fa;" horiz-adv-x="593" 
d="M503 0h85l-237 662q31 14 49 41q19 26 19 62q-1 43 -25 73q-25 29 -68 38l96 109h-98l-72 -113q-35 -12 -56 -40q-20 -28 -21 -67q0 -36 19 -62q18 -27 49 -41l-238 -662h85l49 141h315zM297 831q29 0 47 -18t19 -48q-1 -29 -19 -47q-18 -17 -47 -18q-29 1 -47 18
q-17 18 -18 47q1 30 18 48q18 18 47 18v0zM165 213l131 374h2l131 -374h-264z" />
    <glyph glyph-name="aringacute" unicode="&#x1fb;" horiz-adv-x="510" 
d="M253 578q49 1 79 29t31 72q0 37 -21 63q-21 27 -57 36l93 106h-98l-70 -109q-30 -12 -48 -37q-19 -25 -19 -59q1 -44 31 -72q31 -28 79 -29v0zM253 739q26 0 43 -16q16 -17 17 -44q-1 -26 -17 -42q-17 -16 -43 -16t-42 16t-17 42q1 27 17 44q16 16 42 16v0zM258 545
q-84 -1 -141 -46q-56 -45 -71 -124l79 -15q11 54 46 84q34 30 87 30q50 0 79 -22t30 -59q1 -31 -29 -52q-31 -20 -106 -38q-99 -23 -143 -62t-43 -106q1 -70 47 -109q46 -40 127 -41q51 0 91 19t63 52h2v-56h73v373q-1 80 -51 126q-50 45 -140 46v0zM371 179q-1 -53 -41 -87
q-39 -33 -104 -34q-50 0 -76 21t-26 61q-1 34 30 56q30 23 99 40q53 13 81 28q27 15 35 34h2v-119z" />
    <glyph glyph-name="AEacute" unicode="&#x1fc;" horiz-adv-x="858" 
d="M560 876h-98l-74 -116h70zM803 622v78h-482l-316 -700h92l66 149h280v-149h360v78h-277v245h249v75h-249v224h277zM197 225l176 397h70v-397h-246z" />
    <glyph glyph-name="aeacute" unicode="&#x1fd;" horiz-adv-x="888" 
d="M570 706h-98l-74 -116h70zM843 282q-2 119 -64 190q-63 71 -167 73q-57 0 -104 -23t-77 -65q-21 42 -66 65t-108 23q-83 -1 -139 -45t-72 -123l74 -15q11 55 48 85t91 30q52 -1 81 -23q30 -23 30 -60q-20 -79 -160 -97q-141 -17 -161 -162q1 -70 46 -109q46 -40 127 -41
q70 0 120 27t75 77q32 -50 83 -77q50 -27 112 -27q74 0 130 35q56 34 90 101l-63 40q-32 -60 -68 -84q-36 -25 -91 -24q-72 1 -115 52q-44 51 -46 138h394v39zM450 304q3 76 48 124q46 47 114 49q68 -1 110 -47t45 -126h-317zM375 178q-1 -52 -40 -88q-40 -36 -107 -37
q-52 0 -79 23q-26 22 -26 64q12 77 112 93q100 17 138 68h2v-123z" />
    <glyph glyph-name="Oslashacute" unicode="&#x1fe;" horiz-adv-x="681" 
d="M465 891h-98l-74 -116h70zM531 639l33 60l-48 28l-29 -53q-32 20 -69 31q-37 10 -78 10q-135 -2 -214 -100t-81 -265q0 -94 27 -168t77 -122l-33 -61l49 -27l29 53q32 -20 68 -30q37 -10 78 -10q135 2 214 100t81 265q0 94 -27 168q-27 73 -77 121v0zM128 350
q1 134 57 210t155 77q63 0 109 -32l-259 -471q-30 37 -46 92t-16 124v0zM340 63q-61 1 -108 31l259 472q29 -38 45 -92q16 -55 16 -124q-1 -134 -57 -210t-155 -77v0z" />
    <glyph glyph-name="oslashacute" unicode="&#x1ff;" horiz-adv-x="591" 
d="M421 721h-98l-74 -116h70zM481 463l39 50l-35 27l-36 -46q-31 25 -69 38q-39 13 -84 13q-113 -2 -181 -77q-67 -76 -69 -203q0 -62 17 -112q18 -51 50 -88l-40 -50l35 -26l36 46q31 -24 69 -37q39 -13 83 -13q114 2 181 77q67 76 68 203q0 61 -17 111q-16 50 -47 87v0z
M121 265q1 97 48 153q47 57 127 58q32 0 60 -10q27 -10 48 -29l-245 -312q-18 27 -28 63q-10 35 -10 77v0zM296 54q-32 0 -59 10q-27 9 -48 28l245 311q17 -26 27 -61q9 -35 9 -77q-1 -97 -47 -153q-46 -57 -127 -58v0z" />
    <glyph glyph-name="uni0218" unicode="&#x218;" horiz-adv-x="602" 
d="M323 -15q110 1 176 53t68 139q2 81 -56 134q-57 53 -192 96q-94 29 -132 56q-37 28 -36 67q1 49 39 78q37 28 102 29q69 0 113 -37q44 -36 61 -106l81 17q-19 95 -86 149q-68 54 -168 55q-101 -1 -161 -52q-61 -50 -63 -133q-2 -69 49 -114q50 -44 174 -84
q108 -33 151 -69q44 -35 42 -87q-1 -52 -44 -82t-117 -31q-95 0 -146 45t-61 138l-82 -14q12 -120 86 -183q73 -64 202 -64v0zM276 -249q48 2 74 28q25 26 25 73v83h-104v-96h45q0 -23 -9 -35q-10 -12 -31 -16v-37z" />
    <glyph glyph-name="uni0219" unicode="&#x219;" horiz-adv-x="502" 
d="M271 -15q90 1 142 42q53 40 54 110q1 63 -44 102q-46 40 -155 71q-73 21 -102 40q-28 19 -27 46q1 35 30 55q28 21 77 21q50 0 83 -26q32 -26 46 -76l76 17q-16 74 -70 115q-54 42 -135 43q-82 -1 -133 -43q-51 -41 -52 -109q-1 -54 40 -89t141 -63q83 -24 115 -47
q32 -24 31 -60q-1 -35 -31 -55q-31 -21 -86 -21q-72 -1 -110 32t-49 105l-76 -14q10 -94 71 -145q61 -50 164 -51v0zM224 -249q48 2 74 28q25 26 25 73v83h-104v-96h45q0 -23 -9 -35q-10 -12 -31 -16v-37z" />
    <glyph glyph-name="uni021A" unicode="&#x21a;" horiz-adv-x="589" 
d="M253 0h83v622h218v78h-519v-78h218v-622zM247 -234q48 2 74 28q25 26 25 73v83h-104v-96h45q0 -23 -9 -35q-10 -12 -31 -16v-37z" />
    <glyph glyph-name="uni021B" unicode="&#x21b;" horiz-adv-x="338" 
d="M308 460v70h-130v120h-78v-120h-80v-70h80v-338q-1 -67 29 -95t101 -27h50v73h-44q-32 0 -45 11q-13 12 -13 37v339h130zM135 -146h45q0 -23 -9 -35q-10 -12 -31 -16v-37q48 2 74 28q25 26 25 73v83h-104v-96z" />
    <glyph glyph-name="uni0228" unicode="&#x228;" horiz-adv-x="561" 
d="M506 622v78h-420v-700h182l-49 -91l43 -19q12 14 25 20q14 6 30 6q20 0 33 -11q14 -10 14 -29q0 -18 -13 -29q-13 -12 -35 -12q-37 0 -68 30l-34 -41q23 -20 48 -30q26 -10 54 -10q45 1 73 25q29 24 30 66q-1 38 -27 61t-64 24q-19 0 -34 -6l27 46h185v78h-338v246h310
v74h-310v224h338z" />
    <glyph glyph-name="uni0229" unicode="&#x229;" horiz-adv-x="573" 
d="M528 282q-1 119 -65 190q-63 71 -172 73q-111 -2 -177 -77q-66 -76 -68 -203q1 -118 60 -193q58 -74 158 -86l-50 -92l43 -19q12 14 25 20q14 6 30 6q20 0 33 -11q14 -10 14 -29q0 -18 -13 -29q-13 -12 -35 -12q-37 0 -68 30l-34 -41q23 -20 48 -30q26 -10 54 -10
q45 1 73 25q29 24 30 66q-1 38 -27 61t-64 24q-19 0 -34 -6l27 47q68 5 118 40t82 97l-65 39q-33 -58 -70 -82q-37 -25 -92 -24q-74 2 -118 55t-46 131h403v40zM127 305q3 69 48 118q46 49 116 51q71 -2 113 -49t45 -120h-322z" />
    <glyph glyph-name="uni0237" unicode="&#x237;" horiz-adv-x="220" 
d="M-10 -174h47q61 0 89 25q29 26 29 83v596h-78v-592q0 -39 -44 -39h-43v-73z" />
    <glyph glyph-name="uni0258" unicode="&#x258;" horiz-adv-x="573" 
d="M282 -15q112 2 178 77q65 76 67 203q-2 127 -68 203q-66 75 -177 77q-109 -2 -172 -73q-64 -71 -65 -190v-40h403q-2 -78 -46 -131t-118 -55q-55 -1 -92 24q-37 24 -70 82l-65 -39q35 -68 92 -103q56 -35 133 -35v0zM446 305h-322q3 73 45 120t113 49q70 -2 116 -51
q45 -49 48 -118v0z" />
    <glyph glyph-name="uni0259" unicode="&#x259;" horiz-adv-x="573" 
d="M282 -15q111 2 178 77q66 76 68 203q-2 127 -68 203q-66 75 -178 77q-77 0 -133 -36q-57 -36 -91 -105l64 -36q33 58 70 82q37 25 92 24q74 -2 118 -55t46 -131h-402v-40q1 -119 64 -190t172 -73v0zM282 56q-71 2 -113 49t-44 120h321q-2 -69 -48 -118q-45 -49 -116 -51
v0z" />
    <glyph glyph-name="circumflex" unicode="&#x2c6;" horiz-adv-x="361" 
d="M301 607l-66 85h-108l-66 -85l47 -37l73 92l73 -92z" />
    <glyph glyph-name="caron" unicode="&#x2c7;" horiz-adv-x="361" 
d="M254 702l-73 -92l-73 92l-47 -37l66 -85h108l66 85z" />
    <glyph glyph-name="breve" unicode="&#x2d8;" horiz-adv-x="369" 
d="M189 580q57 1 90 32q33 32 37 89h-49q-5 -27 -25 -41q-20 -15 -53 -15t-54 15q-20 14 -25 41h-49q4 -57 37 -89q34 -31 91 -32v0z" />
    <glyph glyph-name="dotaccent" unicode="&#x2d9;" horiz-adv-x="217" 
d="M61 590h96v94h-96v-94z" />
    <glyph glyph-name="ring" unicode="&#x2da;" horiz-adv-x="366" 
d="M183 482q54 1 88 32q33 31 34 81q-1 50 -34 82q-34 31 -88 32q-54 -1 -87 -32q-34 -32 -35 -82q1 -50 35 -81q33 -31 87 -32v0zM183 530q-29 1 -47 18q-17 18 -18 47q1 30 18 48q18 18 47 18t47 -18t19 -48q-1 -29 -19 -47q-18 -17 -47 -18v0z" />
    <glyph glyph-name="ogonek" unicode="&#x2db;" horiz-adv-x="304" 
d="M150 -200q26 0 50 6q23 5 44 15l-24 63q-15 -8 -30 -13t-29 -5q-17 0 -25 9q-9 8 -9 26q1 32 23 56q21 25 55 43l-42 12q-46 -26 -73 -59q-27 -34 -29 -68q-1 -40 22 -62q24 -23 67 -23v0z" />
    <glyph glyph-name="tilde" unicode="&#x2dc;" horiz-adv-x="406" 
d="M259 585q38 0 61 25t26 68h-47q-4 -16 -12 -25q-9 -8 -24 -8q-26 2 -51 19q-26 17 -64 19q-38 0 -61 -25t-26 -68h47q4 17 12 25q9 8 24 8q26 -2 52 -19q25 -17 63 -19v0z" />
    <glyph glyph-name="hungarumlaut" unicode="&#x2dd;" horiz-adv-x="447" 
d="M61 590h70l102 116h-98zM215 590h70l102 116h-98z" />
    <glyph glyph-name="gravecomb" unicode="&#x300;" horiz-adv-x="0" 
d="M-70 590h70l-74 116h-98z" />
    <glyph glyph-name="acutecomb" unicode="&#x301;" horiz-adv-x="0" 
d="M-172 590h70l102 116h-98z" />
    <glyph glyph-name="uni0302" unicode="&#x302;" horiz-adv-x="0" 
d="M0 607l-66 85h-108l-66 -85l47 -37l73 92l73 -92z" />
    <glyph glyph-name="tildecomb" unicode="&#x303;" horiz-adv-x="0" 
d="M-87 585q38 0 61 25t26 68h-47q-4 -16 -12 -25q-9 -8 -24 -8q-26 2 -51 19q-26 17 -64 19q-38 0 -61 -25t-26 -68h47q4 17 12 25q9 8 24 8q26 -2 52 -19q25 -17 63 -19v0z" />
    <glyph glyph-name="uni0304" unicode="&#x304;" horiz-adv-x="0" 
d="M-267 590h267v63h-267v-63z" />
    <glyph glyph-name="uni0306" unicode="&#x306;" horiz-adv-x="0" 
d="M-127 580q57 1 90 32q33 32 37 89h-49q-5 -27 -25 -41q-20 -15 -53 -15t-54 15q-20 14 -25 41h-49q4 -57 37 -89q34 -31 91 -32v0z" />
    <glyph glyph-name="uni0307" unicode="&#x307;" horiz-adv-x="0" 
d="M-96 590h96v94h-96v-94z" />
    <glyph glyph-name="uni0308" unicode="&#x308;" horiz-adv-x="0" 
d="M-276 580h96v94h-96v-94zM-96 580h96v94h-96v-94z" />
    <glyph glyph-name="uni030A" unicode="&#x30a;" horiz-adv-x="0" 
d="M-122 482q54 1 88 32q33 31 34 81q-1 50 -34 82q-34 31 -88 32q-54 -1 -87 -32q-34 -32 -35 -82q1 -50 35 -81q33 -31 87 -32v0zM-122 530q-29 1 -47 18q-17 18 -18 47q1 30 18 48q18 18 47 18t47 -18t19 -48q-1 -29 -19 -47q-18 -17 -47 -18v0z" />
    <glyph glyph-name="uni030B" unicode="&#x30b;" horiz-adv-x="0" 
d="M-326 590h70l102 116h-98zM-172 590h70l102 116h-98z" />
    <glyph glyph-name="uni030C" unicode="&#x30c;" horiz-adv-x="0" 
d="M-47 702l-73 -92l-73 92l-47 -37l66 -85h108l66 85z" />
    <glyph glyph-name="uni0312" unicode="&#x312;" horiz-adv-x="0" 
d="M-4 774q-52 -2 -79 -28t-27 -73v-83h110v96h-47q0 23 10 35q11 12 33 16v37z" />
    <glyph glyph-name="dotbelowcomb" unicode="&#x323;" horiz-adv-x="0" 
d="M-96 -144h96v94h-96v-94z" />
    <glyph glyph-name="uni0326" unicode="&#x326;" horiz-adv-x="0" 
d="M-99 -234q48 2 74 28q25 26 25 73v83h-104v-96h45q0 -23 -9 -35q-10 -12 -31 -16v-37z" />
    <glyph glyph-name="uni0327" unicode="&#x327;" horiz-adv-x="0" 
d="M-91 -40q-19 0 -34 -6l35 60l-46 14l-64 -119l43 -19q12 14 25 20q14 6 30 6q20 0 33 -11q14 -10 14 -29q0 -18 -13 -29q-13 -12 -35 -12q-37 0 -68 30l-34 -41q23 -20 48 -30q26 -10 54 -10q45 1 73 25q29 24 30 66q-1 38 -27 61t-64 24v0z" />
    <glyph glyph-name="uni0328" unicode="&#x328;" horiz-adv-x="0" 
d="M-94 -200q26 0 50 6q23 5 44 15l-24 63q-15 -8 -30 -13t-29 -5q-17 0 -25 9q-9 8 -9 26q1 32 23 56q21 25 55 43l-42 12q-46 -26 -73 -59q-27 -34 -29 -68q-1 -40 22 -62q24 -23 67 -23v0z" />
    <glyph glyph-name="uni0335" unicode="&#x335;" horiz-adv-x="0" 
d="M-352 325h352v69h-352v-69z" />
    <glyph glyph-name="uni0336" unicode="&#x336;" horiz-adv-x="0" 
d="M-642 325h642v69h-642v-69z" />
    <glyph glyph-name="uni0337" unicode="&#x337;" horiz-adv-x="0" 
d="M-410 -9l410 525l-35 27l-410 -525z" />
    <glyph glyph-name="uni0338" unicode="&#x338;" horiz-adv-x="0" 
d="M-399 -27l399 727l-48 28l-400 -728z" />
    <glyph glyph-name="uni0394" unicode="&#x394;" horiz-adv-x="594" 
d="M338 700h-80l-253 -700h584zM116 73l180 514h2l180 -514h-362z" />
    <glyph glyph-name="uni03A9" unicode="&#x3a9;" horiz-adv-x="680" 
d="M491 70q67 41 105 118q38 76 39 172q-2 161 -82 257t-213 98q-133 -2 -213 -98t-82 -257q1 -95 38 -172q38 -77 103 -118v-2h-129v-68h246v66q-75 18 -124 100t-51 194q1 128 58 202q56 74 154 75q98 -1 154 -75q57 -74 58 -202q-2 -112 -51 -194t-125 -100v-66h245v68
h-130v2z" />
    <glyph glyph-name="uni03BC" unicode="&#x3bc;" horiz-adv-x="553" 
d="M409 530v-333q-1 -63 -36 -101q-36 -37 -97 -38q-67 0 -100 34q-32 35 -32 105v333h-78v-755h78v251h2q22 -20 52 -31q31 -10 69 -10q44 0 82 17q37 17 60 47h2v-49h76v530h-78z" />
    <glyph glyph-name="pi" unicode="&#x3c0;" horiz-adv-x="646" 
d="M596 457v73h-576v-73h104v-457h78v457h209v-337q0 -61 29 -91q30 -29 92 -29h59v73h-44q-32 0 -45 13t-13 45v326h107z" />
    <glyph glyph-name="uni0E3F" unicode="&#xe3f;" 
d="M595 207q-1 61 -30 105q-29 43 -79 61v2q39 18 61 55q22 38 22 89q-1 83 -56 131q-55 49 -148 50h-15v101h-49v-101h-205v-700h205v-110h49v110q120 0 183 53q62 52 62 154v0zM178 622h123v-219h-123v219zM486 515q0 -112 -136 -112v219q68 0 102 -27t34 -80v0zM178 78
v252h123v-252h-123zM350 78v252q86 -1 125 -30q38 -30 37 -93q0 -65 -39 -96t-123 -33v0z" />
    <glyph glyph-name="uni1E04" unicode="&#x1e04;" horiz-adv-x="631" 
d="M86 0h253q121 0 183 53q63 52 63 154q-1 61 -30 105q-29 43 -78 61v2q39 18 60 55q22 38 22 89q-1 83 -56 131q-55 49 -148 50h-269v-700zM168 403v219h172q68 0 102 -27t34 -80q0 -112 -136 -112h-172zM168 78v252h162q91 0 132 -29t40 -94q1 -67 -41 -98t-133 -31h-160
zM268 -144h96v94h-96v-94z" />
    <glyph glyph-name="uni1E05" unicode="&#x1e05;" horiz-adv-x="586" 
d="M302 -15q106 2 171 78t67 202q-2 126 -67 202t-171 78q-50 0 -90 -20q-40 -19 -66 -51h-2v256h-78v-730h75v53h2q27 -32 68 -50q42 -18 91 -18v0zM297 58q-65 2 -108 45q-43 44 -45 111v103q2 66 46 110q44 43 112 45q72 -1 116 -57q43 -55 44 -150q-1 -95 -45 -150
q-44 -56 -120 -57v0zM257 -159h96v94h-96v-94z" />
    <glyph glyph-name="uni1E0C" unicode="&#x1e0c;" horiz-adv-x="651" 
d="M86 0h212q139 -1 223 83q83 84 85 268q-2 167 -85 257q-82 91 -217 92h-218v-700zM168 78v544h131q103 0 163 -68q60 -69 61 -203q-1 -147 -62 -211q-60 -63 -168 -62h-125zM275 -144h96v94h-96v-94z" />
    <glyph glyph-name="uni1E0D" unicode="&#x1e0d;" horiz-adv-x="586" 
d="M284 -15q49 0 91 18q41 18 68 50h2v-53h75v730h-78v-256h-2q-26 32 -66 51q-40 20 -90 20q-106 -2 -171 -78t-67 -202q2 -126 67 -202t171 -78v0zM289 58q-76 1 -120 57q-44 55 -45 150q1 95 44 150q44 56 116 57q68 -2 112 -45q44 -44 46 -110v-103q-2 -67 -45 -111
q-43 -43 -108 -45v0zM246 -144h96v94h-96v-94z" />
    <glyph glyph-name="uni1E24" unicode="&#x1e24;" horiz-adv-x="652" 
d="M86 0h82v324h316v-324h82v700h-82v-304h-316v304h-82v-700zM278 -144h96v94h-96v-94z" />
    <glyph glyph-name="uni1E25" unicode="&#x1e25;" horiz-adv-x="555" 
d="M66 0h78v333q1 63 39 100q37 38 101 39q62 -1 97 -37q34 -37 35 -102v-333h78v344q-1 93 -55 146q-53 54 -146 55q-44 0 -84 -18q-39 -17 -63 -46h-2v249h-78v-730zM232 -144h96v94h-96v-94z" />
    <glyph glyph-name="uni1E36" unicode="&#x1e36;" horiz-adv-x="519" 
d="M86 0h398v78h-316v622h-82v-700zM237 -144h96v94h-96v-94z" />
    <glyph glyph-name="uni1E37" unicode="&#x1e37;" horiz-adv-x="209" 
d="M66 0h78v730h-78v-730zM57 -144h96v94h-96v-94z" />
    <glyph glyph-name="uni1E44" unicode="&#x1e44;" horiz-adv-x="672" 
d="M288 760h96v94h-96v-94zM86 0h82v571h2l318 -571h98v700h-83v-571h-2l-318 571h-97v-700z" />
    <glyph glyph-name="uni1E45" unicode="&#x1e45;" horiz-adv-x="555" 
d="M244 605h96v94h-96v-94zM66 0h78v333q1 63 39 100q37 38 101 39q62 -1 97 -37q34 -37 35 -102v-333h78v343q-1 93 -54 147q-54 54 -147 55q-44 0 -84 -18q-40 -17 -65 -46h-2v49h-76v-530z" />
    <glyph glyph-name="uni1E46" unicode="&#x1e46;" horiz-adv-x="672" 
d="M86 0h82v571h2l318 -571h98v700h-83v-571h-2l-318 571h-97v-700zM296 -144h96v94h-96v-94z" />
    <glyph glyph-name="uni1E47" unicode="&#x1e47;" horiz-adv-x="555" 
d="M66 0h78v333q1 63 39 100q37 38 101 39q62 -1 97 -37q34 -37 35 -102v-333h78v343q-1 93 -54 147q-54 54 -147 55q-44 0 -84 -18q-40 -17 -65 -46h-2v49h-76v-530zM232 -144h96v94h-96v-94z" />
    <glyph glyph-name="uni1E4C" unicode="&#x1e4c;" horiz-adv-x="680" 
d="M293 898h70l102 116h-98zM395 770q38 0 61 25t26 68h-47q-4 -16 -12 -25q-9 -8 -24 -8q-26 2 -51 19q-26 17 -64 19q-38 0 -61 -25t-26 -68h47q4 17 12 25q9 8 24 8q26 -2 52 -19q25 -17 63 -19v0zM340 -15q135 2 214 100t81 265q-2 167 -81 265t-214 100
q-135 -2 -214 -100t-81 -265q2 -167 81 -265t214 -100v0zM340 63q-99 1 -155 77t-57 210q1 134 57 210t155 77q99 -1 155 -77t57 -210q-1 -134 -57 -210t-155 -77v0z" />
    <glyph glyph-name="uni1E4D" unicode="&#x1e4d;" horiz-adv-x="590" 
d="M248 728h70l102 116h-98zM350 600q38 0 61 25t26 68h-47q-4 -16 -12 -25q-9 -8 -24 -8q-26 2 -51 19q-26 17 -64 19q-38 0 -61 -25t-26 -68h47q4 17 12 25q9 8 24 8q26 -2 52 -19q25 -17 63 -19v0zM295 -15q114 2 181 77q67 76 69 203q-2 127 -69 203q-67 75 -181 77
q-114 -2 -181 -77q-66 -76 -68 -203q2 -127 68 -203q67 -75 181 -77v0zM295 58q-80 1 -125 56t-46 151q1 96 46 151t125 56q80 -1 125 -56q46 -55 47 -151q-1 -96 -47 -151q-45 -55 -125 -56v0z" />
    <glyph glyph-name="uni1E62" unicode="&#x1e62;" horiz-adv-x="602" 
d="M323 -15q110 1 176 53t68 139q2 81 -56 134q-57 53 -192 96q-94 29 -132 56q-37 28 -36 67q1 49 39 78q37 28 102 29q69 0 113 -37q44 -36 61 -106l81 17q-19 95 -86 149q-68 54 -168 55q-101 -1 -161 -52q-61 -50 -63 -133q-2 -69 49 -114q50 -44 174 -84
q108 -33 151 -69q44 -35 42 -87q-1 -52 -44 -82t-117 -31q-95 0 -146 45t-61 138l-82 -14q12 -120 86 -183q73 -64 202 -64v0zM275 -159h96v94h-96v-94z" />
    <glyph glyph-name="uni1E63" unicode="&#x1e63;" horiz-adv-x="502" 
d="M271 -15q90 1 142 42q53 40 54 110q1 63 -44 102q-46 40 -155 71q-73 21 -102 40q-28 19 -27 46q1 35 30 55q28 21 77 21q50 0 83 -26q32 -26 46 -76l76 17q-16 74 -70 115q-54 42 -135 43q-82 -1 -133 -43q-51 -41 -52 -109q-1 -54 40 -89t141 -63q83 -24 115 -47
q32 -24 31 -60q-1 -35 -31 -55q-31 -21 -86 -21q-72 -1 -110 32t-49 105l-76 -14q10 -94 71 -145q61 -50 164 -51v0zM223 -159h96v94h-96v-94z" />
    <glyph glyph-name="uni1E6C" unicode="&#x1e6c;" horiz-adv-x="589" 
d="M253 0h83v622h218v78h-519v-78h218v-622zM246 -144h96v94h-96v-94z" />
    <glyph glyph-name="uni1E6D" unicode="&#x1e6d;" horiz-adv-x="338" 
d="M308 460v70h-130v120h-78v-120h-80v-70h80v-338q-1 -67 29 -95t101 -27h50v73h-44q-32 0 -45 11q-13 12 -13 37v339h130zM139 -144h96v94h-96v-94z" />
    <glyph glyph-name="Wgrave" unicode="&#x1e80;" horiz-adv-x="845" 
d="M396 760h70l-74 116h-98zM149 0h101l171 562h2l172 -562h100l130 700h-85l-103 -569h-2l-174 569h-78l-173 -569h-2l-103 569h-85z" />
    <glyph glyph-name="wgrave" unicode="&#x1e81;" horiz-adv-x="755" 
d="M352 590h70l-74 116h-98zM152 0h74l151 433h2l150 -433h74l127 530h-77l-96 -412h-2l-142 412h-71l-142 -412h-2l-96 412h-77z" />
    <glyph glyph-name="Wacute" unicode="&#x1e82;" horiz-adv-x="845" 
d="M375 760h70l102 116h-98zM149 0h101l171 562h2l172 -562h100l130 700h-85l-103 -569h-2l-174 569h-78l-173 -569h-2l-103 569h-85z" />
    <glyph glyph-name="wacute" unicode="&#x1e83;" horiz-adv-x="755" 
d="M331 590h70l102 116h-98zM152 0h74l151 433h2l150 -433h74l127 530h-77l-96 -412h-2l-142 412h-71l-142 -412h-2l-96 412h-77z" />
    <glyph glyph-name="Wdieresis" unicode="&#x1e84;" horiz-adv-x="845" 
d="M284 750h96v94h-96v-94zM464 750h96v94h-96v-94zM149 0h101l171 562h2l172 -562h100l130 700h-85l-103 -569h-2l-174 569h-78l-173 -569h-2l-103 569h-85z" />
    <glyph glyph-name="wdieresis" unicode="&#x1e85;" horiz-adv-x="755" 
d="M240 580h96v94h-96v-94zM420 580h96v94h-96v-94zM152 0h74l151 433h2l150 -433h74l127 530h-77l-96 -412h-2l-142 412h-71l-142 -412h-2l-96 412h-77z" />
    <glyph glyph-name="uni1E92" unicode="&#x1e92;" horiz-adv-x="593" 
d="M45 0h493v78h-392v2l402 550v70h-487v-78h387v-2l-403 -550v-70zM249 -144h96v94h-96v-94z" />
    <glyph glyph-name="uni1E93" unicode="&#x1e93;" horiz-adv-x="500" 
d="M30 0h440v70h-345v2l337 388v70h-420v-70h325v-2l-337 -388v-70zM202 -144h96v94h-96v-94z" />
    <glyph glyph-name="uni1EA0" unicode="&#x1ea0;" horiz-adv-x="593" 
d="M588 0l-251 700h-80l-252 -700h85l49 141h315l49 -141h85zM165 213l131 374h2l131 -374h-264zM249 -144h96v94h-96v-94z" />
    <glyph glyph-name="uni1EA1" unicode="&#x1ea1;" horiz-adv-x="510" 
d="M220 -15q51 0 91 19t63 52h2v-56h73v373q-1 80 -51 126q-50 45 -140 46q-84 -1 -141 -46q-56 -45 -71 -124l79 -15q11 54 46 84q34 30 87 30q50 0 79 -22t30 -59q1 -31 -29 -52q-31 -20 -106 -38q-99 -23 -143 -62t-43 -106q1 -70 47 -109q46 -40 127 -41v0zM226 58
q-50 0 -76 21t-26 61q-1 34 30 56q30 23 99 40q53 13 81 28q27 15 35 34h2v-119q-1 -53 -41 -87q-39 -33 -104 -34v0zM213 -159h96v94h-96v-94z" />
    <glyph glyph-name="uni1EAC" unicode="&#x1eac;" horiz-adv-x="593" 
d="M297 832l73 -92l47 37l-66 85h-108l-66 -85l47 -37zM588 0l-251 700h-80l-252 -700h85l49 141h315l49 -141h85zM165 213l131 374h2l131 -374h-264zM249 -144h96v94h-96v-94z" />
    <glyph glyph-name="uni1EAD" unicode="&#x1ead;" horiz-adv-x="510" 
d="M258 677l73 -92l47 37l-66 85h-108l-66 -85l47 -37zM258 545q-84 -1 -141 -46q-56 -45 -71 -124l79 -15q11 54 46 84q34 30 87 30q50 0 79 -22t30 -59q1 -31 -29 -52q-31 -20 -106 -38q-99 -23 -143 -62t-43 -106q1 -70 47 -109q46 -40 127 -41q51 0 91 19t63 52h2v-56
h73v373q-1 80 -51 126q-50 45 -140 46v0zM371 179q-1 -53 -41 -87q-39 -33 -104 -34q-50 0 -76 21t-26 61q-1 34 30 56q30 23 99 40q53 13 81 28q27 15 35 34h2v-119zM213 -159h96v94h-96v-94z" />
    <glyph glyph-name="uni1EB8" unicode="&#x1eb8;" horiz-adv-x="561" 
d="M86 0h420v78h-338v246h310v74h-310v224h338v78h-420v-700zM248 -144h96v94h-96v-94z" />
    <glyph glyph-name="uni1EB9" unicode="&#x1eb9;" horiz-adv-x="573" 
d="M291 -15q77 0 134 35q56 35 91 103l-65 39q-33 -58 -70 -82q-37 -25 -92 -24q-74 2 -118 55t-46 131h403v40q-1 119 -65 190q-63 71 -172 73q-111 -2 -177 -77q-66 -76 -68 -203q2 -127 67 -203q66 -75 178 -77v0zM127 305q3 69 48 118q46 49 116 51q71 -2 113 -49
t45 -120h-322zM243 -159h96v94h-96v-94z" />
    <glyph glyph-name="uni1EBC" unicode="&#x1ebc;" horiz-adv-x="561" 
d="M362 755q38 0 61 25t26 68h-47q-4 -16 -12 -25q-9 -8 -24 -8q-26 2 -51 19q-26 17 -64 19q-38 0 -61 -25t-26 -68h47q4 17 12 25q9 8 24 8q26 -2 52 -19q25 -17 63 -19v0zM86 0h420v78h-338v246h310v74h-310v224h338v78h-420v-700z" />
    <glyph glyph-name="uni1EBD" unicode="&#x1ebd;" horiz-adv-x="573" 
d="M346 600q38 0 61 25t26 68h-47q-4 -16 -12 -25q-9 -8 -24 -8q-26 2 -51 19q-26 17 -64 19q-38 0 -61 -25t-26 -68h47q4 17 12 25q9 8 24 8q26 -2 52 -19q25 -17 63 -19v0zM291 -15q77 0 134 35q56 35 91 103l-65 39q-33 -58 -70 -82q-37 -25 -92 -24q-74 2 -118 55
t-46 131h403v40q-1 119 -65 190q-63 71 -172 73q-111 -2 -177 -77q-66 -76 -68 -203q2 -127 67 -203q66 -75 178 -77v0zM127 305q3 69 48 118q46 49 116 51q71 -2 113 -49t45 -120h-322z" />
    <glyph glyph-name="uni1EC6" unicode="&#x1ec6;" horiz-adv-x="561" 
d="M307 832l73 -92l47 37l-66 85h-108l-66 -85l47 -37zM506 622v78h-420v-700h420v78h-338v246h310v74h-310v224h338zM248 -144h96v94h-96v-94z" />
    <glyph glyph-name="uni1EC7" unicode="&#x1ec7;" horiz-adv-x="573" 
d="M291 677l73 -92l47 37l-66 85h-108l-66 -85l47 -37zM528 282q-1 119 -65 190q-63 71 -172 73q-111 -2 -177 -77q-66 -76 -68 -203q2 -127 67 -203q66 -75 178 -77q77 0 134 35q56 35 91 103l-65 39q-33 -58 -70 -82q-37 -25 -92 -24q-74 2 -118 55t-46 131h403v40z
M127 305q3 69 48 118q46 49 116 51q71 -2 113 -49t45 -120h-322zM243 -159h96v94h-96v-94z" />
    <glyph glyph-name="uni1ECA" unicode="&#x1eca;" horiz-adv-x="254" 
d="M86 0h82v700h-82v-700zM79 -144h96v94h-96v-94z" />
    <glyph glyph-name="uni1ECB" unicode="&#x1ecb;" horiz-adv-x="209" 
d="M60 623h90v87h-90v-87zM66 0h78v530h-78v-530zM52 -144h96v94h-96v-94z" />
    <glyph glyph-name="uni1ECC" unicode="&#x1ecc;" horiz-adv-x="680" 
d="M340 -15q135 2 214 100t81 265q-2 167 -81 265t-214 100q-135 -2 -214 -100t-81 -265q2 -167 81 -265t214 -100v0zM340 63q-99 1 -155 77t-57 210q1 134 57 210t155 77q99 -1 155 -77t57 -210q-1 -134 -57 -210t-155 -77v0zM292 -159h96v94h-96v-94z" />
    <glyph glyph-name="uni1ECD" unicode="&#x1ecd;" horiz-adv-x="590" 
d="M295 -15q114 2 181 77q67 76 69 203q-2 127 -69 203q-67 75 -181 77q-114 -2 -181 -77q-66 -76 -68 -203q2 -127 68 -203q67 -75 181 -77v0zM295 58q-80 1 -125 56t-46 151q1 96 46 151t125 56q80 -1 125 -56q46 -55 47 -151q-1 -96 -47 -151q-45 -55 -125 -56v0z
M247 -159h96v94h-96v-94z" />
    <glyph glyph-name="uni1ED8" unicode="&#x1ed8;" horiz-adv-x="680" 
d="M340 847l73 -92l47 37l-66 85h-108l-66 -85l47 -37zM340 715q-135 -2 -214 -100t-81 -265q2 -167 81 -265t214 -100q135 2 214 100t81 265q-2 167 -81 265t-214 100v0zM340 63q-99 1 -155 77t-57 210q1 134 57 210t155 77q99 -1 155 -77t57 -210q-1 -134 -57 -210
t-155 -77v0zM292 -159h96v94h-96v-94z" />
    <glyph glyph-name="uni1ED9" unicode="&#x1ed9;" horiz-adv-x="590" 
d="M295 677l73 -92l47 37l-66 85h-108l-66 -85l47 -37zM295 545q-114 -2 -181 -77q-66 -76 -68 -203q2 -127 68 -203q67 -75 181 -77q114 2 181 77q67 76 69 203q-2 127 -69 203q-67 75 -181 77v0zM295 58q-80 1 -125 56t-46 151q1 96 46 151t125 56q80 -1 125 -56
q46 -55 47 -151q-1 -96 -47 -151q-45 -55 -125 -56v0zM247 -159h96v94h-96v-94z" />
    <glyph glyph-name="uni1EE4" unicode="&#x1ee4;" horiz-adv-x="662" 
d="M330 -15q122 1 187 63q64 62 65 180v472h-83v-468q0 -83 -43 -126t-126 -43t-125 43t-42 128v466h-82v-472q0 -118 64 -180t185 -63v0zM282 -159h96v94h-96v-94z" />
    <glyph glyph-name="uni1EE5" unicode="&#x1ee5;" horiz-adv-x="543" 
d="M243 -15q49 0 90 17t66 47h2v-49h76v530h-78v-333q-1 -63 -36 -101q-36 -37 -97 -38q-67 0 -100 34q-32 35 -32 105v333h-78v-344q1 -97 49 -148q49 -52 138 -53v0zM195 -159h96v94h-96v-94z" />
    <glyph glyph-name="Ygrave" unicode="&#x1ef2;" horiz-adv-x="573" 
d="M260 760h70l-74 116h-98zM245 0h83v292l245 408h-96l-190 -327h-2l-189 327h-96l245 -408v-292z" />
    <glyph glyph-name="ygrave" unicode="&#x1ef3;" horiz-adv-x="511" 
d="M230 590h70l-74 116h-98zM102 -225h81l318 755h-83l-162 -395h-2l-161 395h-83l204 -485z" />
    <glyph glyph-name="uni1EF4" unicode="&#x1ef4;" horiz-adv-x="573" 
d="M245 0h83v292l245 408h-96l-190 -327h-2l-189 327h-96l245 -408v-292zM238 -144h96v94h-96v-94z" />
    <glyph glyph-name="uni1EF5" unicode="&#x1ef5;" horiz-adv-x="511" 
d="M102 -225h81l318 755h-83l-162 -395h-2l-161 395h-83l204 -485zM307 -144h96v94h-96v-94z" />
    <glyph glyph-name="uni1EF8" unicode="&#x1ef8;" horiz-adv-x="573" 
d="M341 755q38 0 61 25t26 68h-47q-4 -16 -12 -25q-9 -8 -24 -8q-26 2 -51 19q-26 17 -64 19q-38 0 -61 -25t-26 -68h47q4 17 12 25q9 8 24 8q26 -2 52 -19q25 -17 63 -19v0zM245 0h83v292l245 408h-96l-190 -327h-2l-189 327h-96l245 -408v-292z" />
    <glyph glyph-name="uni1EF9" unicode="&#x1ef9;" horiz-adv-x="511" 
d="M311 585q38 0 61 25t26 68h-47q-4 -16 -12 -25q-9 -8 -24 -8q-26 2 -51 19q-26 17 -64 19q-38 0 -61 -25t-26 -68h47q4 17 12 25q9 8 24 8q26 -2 52 -19q25 -17 63 -19v0zM102 -225h81l318 755h-83l-162 -395h-2l-161 395h-83l204 -485z" />
    <glyph glyph-name="uni2002" unicode="&#x2002;" horiz-adv-x="750" 
 />
    <glyph glyph-name="uni2003" unicode="&#x2003;" horiz-adv-x="1000" 
 />
    <glyph glyph-name="uni2004" unicode="&#x2004;" horiz-adv-x="350" 
 />
    <glyph glyph-name="uni2005" unicode="&#x2005;" horiz-adv-x="250" 
 />
    <glyph glyph-name="uni2007" unicode="&#x2007;" 
 />
    <glyph glyph-name="uni2008" unicode="&#x2008;" horiz-adv-x="301" 
 />
    <glyph glyph-name="uni2009" unicode="&#x2009;" horiz-adv-x="150" 
 />
    <glyph glyph-name="uni200A" unicode="&#x200a;" horiz-adv-x="75" 
 />
    <glyph glyph-name="uni200B" unicode="&#x200b;" horiz-adv-x="0" 
 />
    <glyph glyph-name="endash" unicode="&#x2013;" horiz-adv-x="555" 
d="M51 259h453v75h-453v-75z" />
    <glyph glyph-name="emdash" unicode="&#x2014;" horiz-adv-x="840" 
d="M51 259h738v75h-738v-75z" />
    <glyph glyph-name="quoteleft" unicode="&#x2018;" horiz-adv-x="263" 
d="M187 700q-57 -3 -87 -34q-30 -30 -30 -85v-98h122v113h-52q0 27 11 42q11 14 36 18v44z" />
    <glyph glyph-name="quoteright" unicode="&#x2019;" horiz-adv-x="263" 
d="M76 483q57 3 87 34q30 30 30 85v98h-122v-113h52q0 -27 -11 -42q-11 -14 -36 -18v-44z" />
    <glyph glyph-name="quotesinglbase" unicode="&#x201a;" horiz-adv-x="303" 
d="M96 -104q57 3 87 34q30 30 30 85v98h-122v-113h52q0 -27 -11 -42q-11 -14 -36 -18v-44z" />
    <glyph glyph-name="quotedblleft" unicode="&#x201c;" horiz-adv-x="470" 
d="M207 700q-57 -3 -87 -34q-30 -30 -30 -85v-98h122v113h-52q0 27 11 42q11 14 36 18v44zM374 700q-57 -3 -87 -34q-30 -30 -30 -85v-98h122v113h-52q0 27 11 42q11 14 36 18v44z" />
    <glyph glyph-name="quotedblright" unicode="&#x201d;" horiz-adv-x="470" 
d="M96 483q57 3 87 34q30 30 30 85v98h-122v-113h52q0 -27 -11 -42q-11 -14 -36 -18v-44zM263 483q57 3 87 34q30 30 30 85v98h-122v-113h52q0 -27 -11 -42q-11 -14 -36 -18v-44z" />
    <glyph glyph-name="quotedblbase" unicode="&#x201e;" horiz-adv-x="470" 
d="M96 -104q57 3 87 34q30 30 30 85v98h-122v-113h52q0 -27 -11 -42q-11 -14 -36 -18v-44zM263 -104q57 3 87 34q30 30 30 85v98h-122v-113h52q0 -27 -11 -42q-11 -14 -36 -18v-44z" />
    <glyph glyph-name="dagger" unicode="&#x2020;" horiz-adv-x="623" 
d="M270 -196h83v648h219v78h-219v230h-83v-230h-219v-78h219v-648z" />
    <glyph glyph-name="daggerdbl" unicode="&#x2021;" horiz-adv-x="623" 
d="M270 -196h83v232h219v78h-219v338h219v78h-219v229h-83v-229h-219v-78h219v-338h-219v-78h219v-232z" />
    <glyph glyph-name="bullet" unicode="&#x2022;" horiz-adv-x="358" 
d="M179 291q41 1 65 25t24 64q0 39 -24 64t-65 26q-41 -1 -64 -26q-24 -25 -24 -64t24 -64q23 -24 64 -25v0z" />
    <glyph glyph-name="ellipsis" unicode="&#x2026;" horiz-adv-x="765" 
d="M91 0h119v116h-119v-116zM323 0h119v116h-119v-116zM556 0h119v116h-119v-116z" />
    <glyph glyph-name="perthousand" unicode="&#x2030;" horiz-adv-x="1414" 
d="M295 -72l486 809l-62 38l-487 -811zM236 271q83 1 129 59q47 58 48 160q-1 102 -48 160q-46 58 -129 59q-82 -1 -128 -59t-47 -160q1 -102 47 -160t128 -59v0zM236 339q-49 0 -74 39q-26 39 -26 112t26 112q25 39 74 39q50 0 76 -39t26 -112t-26 -112t-76 -39v0zM766 -9
q83 1 129 59q47 58 48 160q-1 102 -48 160q-46 58 -129 59q-82 -1 -128 -59t-47 -160q1 -102 47 -160t128 -59v0zM1177 -9q83 1 129 59q47 58 48 160q-1 102 -48 160q-46 58 -129 59q-82 -1 -128 -59t-47 -160q1 -102 47 -160t128 -59v0zM766 59q-49 0 -74 39
q-26 39 -26 112t26 112q25 39 74 39q50 0 75 -39q26 -39 26 -112t-26 -112q-25 -39 -75 -39v0zM1177 59q-48 0 -74 39t-26 112t26 112t74 39q50 0 76 -39t26 -112t-26 -112t-76 -39v0z" />
    <glyph glyph-name="guilsinglleft" unicode="&#x2039;" horiz-adv-x="322" 
d="M181 95h81l-113 186l113 186h-81l-110 -186z" />
    <glyph glyph-name="guilsinglright" unicode="&#x203a;" horiz-adv-x="322" 
d="M141 95l110 186l-110 186h-81l113 -186l-113 -186h81z" />
    <glyph glyph-name="fraction" unicode="&#x2044;" horiz-adv-x="206" 
d="M-111 -70l486 810l-56 35l-488 -812z" />
    <glyph glyph-name="uni207A" unicode="&#x207a;" horiz-adv-x="432" 
d="M372 238h-123v126h-66v-126h-122v-58h122v-125h66v125h123v58z" />
    <glyph glyph-name="uni207B" unicode="&#x207b;" horiz-adv-x="402" 
d="M61 180h281v58h-281v-58z" />
    <glyph glyph-name="lira" unicode="&#x20a4;" horiz-adv-x="550" 
d="M437 365q-1 -134 -57 -210t-155 -77v286l187 68l-23 65l-164 -60v78l187 69l-23 64l-164 -60v112h-83v-143l-102 -37l25 -64l77 28v-78l-102 -37l25 -64l77 28v-333h83q135 2 214 100t81 265h-83z" />
    <glyph glyph-name="uni20A8" unicode="&#x20a8;" horiz-adv-x="581" 
d="M541 630v70h-475v-78h175q67 0 106 -23q38 -24 48 -69h-329v-74h328q-9 -46 -48 -70t-105 -24h-175v-77h148l149 -285h97l-156 288v2q75 12 120 55t55 111h62v74h-63q-5 28 -18 53q-14 25 -36 45v2h117z" />
    <glyph glyph-name="uni20A9" unicode="&#x20a9;" horiz-adv-x="911" 
d="M891 430v66h-73l38 204h-77l-38 -204h-187l-62 204h-72l-63 -204h-187l-38 204h-77l38 -204h-73v-66h86l15 -82h-101v-67h113l53 -281h91l87 281h183l87 -281h91l53 281h113v67h-101l15 82h86zM455 574h2l24 -78h-50zM182 430h155l-25 -82h-115zM385 348l25 82h91l26 -82
h-142zM714 348h-114l-25 82h154zM241 119h-2l-30 162h82zM672 119h-2l-50 162h82z" />
    <glyph glyph-name="Euro" unicode="&#x20ac;" horiz-adv-x="784" 
d="M656 258q-12 -96 -67 -146q-54 -51 -147 -51q-87 1 -146 47q-59 45 -83 130h217v73h-229q-2 20 -2 39q0 17 1 33h300v73h-288q23 87 82 135q60 47 148 48q88 0 143 -47q54 -46 72 -134l79 13q-19 113 -96 178q-78 65 -198 66q-122 -1 -203 -70q-82 -68 -110 -189h-104
v-73h94q-1 -16 -1 -33q0 -19 1 -39h-94v-73h105q28 -119 109 -185q81 -67 203 -68q128 1 206 70q77 69 91 192z" />
    <glyph glyph-name="uni20BD" unicode="&#x20bd;" horiz-adv-x="701" 
d="M224 270h187q112 1 173 57q60 56 61 157q-1 101 -61 158q-61 57 -173 58h-270v-357h-101v-73h101v-80h-101v-73h101v-117h83v117h198v73h-198v80zM224 622h182q79 0 117 -34q39 -34 39 -104t-38 -103q-39 -33 -118 -33h-182v274z" />
    <glyph glyph-name="uni2116" unicode="&#x2116;" horiz-adv-x="1070" 
d="M846 271q81 1 127 59t47 160q-1 102 -47 160t-127 59q-82 -1 -127 -59q-46 -58 -47 -160q1 -102 47 -160q45 -58 127 -59v0zM81 0h83v571h2l318 -571h97v700h-83v-571h-2l-318 571h-97v-700zM846 341q-48 0 -73 39q-26 38 -26 110t26 111q25 38 73 38t74 -38
q25 -39 25 -111t-25 -110q-26 -39 -74 -39v0zM672 144h348v70h-348v-70z" />
    <glyph glyph-name="uni2117" unicode="&#x2117;" horiz-adv-x="717" 
d="M358 16q134 3 220 89q85 86 88 219q-3 133 -88 218q-86 85 -220 88q-133 -3 -219 -88q-85 -85 -88 -218q3 -133 88 -219q86 -86 219 -89v0zM358 67q-111 2 -180 74q-69 71 -71 183q2 112 71 182q69 71 180 73q112 -2 180 -73q69 -70 71 -182q-2 -112 -71 -183
q-68 -72 -180 -74v0zM264 146h68v128h61q58 0 90 29q32 28 32 81t-32 82q-32 30 -90 30h-129v-350zM332 331v108h57q28 0 43 -14t15 -40q0 -24 -16 -39t-43 -15h-56z" />
    <glyph glyph-name="trademark" unicode="&#x2122;" horiz-adv-x="772" 
d="M146 361h59v283h100v56h-259v-56h100v-283zM351 361h59v253h1l102 -253h46l103 253h1v-253h59v339h-80l-105 -254h-1l-104 254h-81v-339z" />
    <glyph glyph-name="oneeighth" unicode="&#x215b;" horiz-adv-x="872" 
d="M160 -70l486 810l-56 35l-488 -812zM130 280h70v420h-66l-109 -65v-73l105 63v-345zM675 -9q77 1 122 34q44 34 45 93q0 39 -20 68q-19 29 -55 46v1q24 13 38 34t14 48q-1 50 -40 82q-39 31 -104 32q-65 -1 -105 -32q-39 -32 -40 -82q0 -27 15 -48q14 -21 38 -34v-1
q-36 -17 -56 -46t-20 -68q1 -59 45 -93q45 -33 123 -34v0zM675 253q-36 0 -57 16t-21 43q1 27 22 43t56 16q36 0 58 -16q21 -16 22 -43q0 -27 -22 -43q-21 -16 -58 -16v0zM675 54q-45 0 -71 20q-26 19 -27 53q1 32 27 52q27 19 71 20q43 -1 70 -20q26 -20 27 -52
q0 -34 -26 -53q-26 -20 -71 -20v0z" />
    <glyph glyph-name="threeeighths" unicode="&#x215c;" horiz-adv-x="971" 
d="M259 -70l486 810l-56 35l-488 -812zM190 271q68 1 109 35q40 34 41 92q0 37 -16 64t-48 43v1q27 19 39 40t12 47q-1 52 -40 84q-39 31 -102 32q-62 -1 -103 -33q-40 -32 -49 -89l69 -11q5 33 27 51q21 19 56 19q33 0 52 -17q20 -16 20 -43q0 -29 -20 -44t-58 -15h-29v-57
h36q85 0 85 -66q0 -33 -22 -51q-21 -18 -59 -18q-43 0 -67 24q-24 25 -29 72l-69 -10q6 -72 49 -111t116 -39v0zM774 -9q77 1 122 34q44 34 45 93q0 39 -20 68q-19 29 -55 46v1q24 13 38 34t14 48q-1 50 -40 82q-39 31 -104 32q-65 -1 -105 -32q-39 -32 -40 -82
q0 -27 15 -48q14 -21 38 -34v-1q-36 -17 -56 -46t-20 -68q1 -59 45 -93q45 -33 123 -34v0zM774 253q-36 0 -57 16t-21 43q1 27 22 43t56 16q36 0 58 -16q21 -16 22 -43q0 -27 -22 -43q-21 -16 -58 -16v0zM774 54q-45 0 -71 20q-26 19 -27 53q1 32 27 52q27 19 71 20
q43 -1 70 -20q26 -20 27 -52q0 -34 -26 -53q-26 -20 -71 -20v0z" />
    <glyph glyph-name="fiveeighths" unicode="&#x215d;" horiz-adv-x="989" 
d="M277 -70l486 810l-56 35l-488 -812zM196 271q72 1 116 42q45 42 46 108q-1 63 -43 102q-42 38 -111 39q-49 0 -88 -25l-1 1l18 98h183v64h-236l-41 -218l64 -18q18 20 42 30q24 11 51 11q42 -1 67 -23q24 -23 25 -62q-1 -38 -26 -61q-25 -24 -66 -25q-41 0 -66 20
q-26 19 -34 55l-66 -21q13 -54 57 -85t109 -32v0zM792 -9q77 1 122 34q44 34 45 93q0 39 -20 68q-19 29 -55 46v1q24 13 38 34t14 48q-1 50 -40 82q-39 31 -104 32q-65 -1 -105 -32q-39 -32 -40 -82q0 -27 15 -48q14 -21 38 -34v-1q-36 -17 -56 -46t-20 -68q1 -59 45 -93
q45 -33 123 -34v0zM792 253q-36 0 -57 16t-21 43q1 27 22 43t56 16q36 0 58 -16q21 -16 22 -43q0 -27 -22 -43q-21 -16 -58 -16v0zM792 54q-45 0 -71 20q-26 19 -27 53q1 32 27 52q27 19 71 20q43 -1 70 -20q26 -20 27 -52q0 -34 -26 -53q-26 -20 -71 -20v0z" />
    <glyph glyph-name="seveneighths" unicode="&#x215e;" horiz-adv-x="877" 
d="M165 -70l486 810l-56 35l-488 -812zM51 280h79l171 361v59h-301v-64h222v-1zM680 -9q77 1 122 34q44 34 45 93q0 39 -20 68q-19 29 -55 46v1q24 13 38 34t14 48q-1 50 -40 82q-39 31 -104 32q-65 -1 -105 -32q-39 -32 -40 -82q0 -27 15 -48q14 -21 38 -34v-1
q-36 -17 -56 -46t-20 -68q1 -59 45 -93q45 -33 123 -34v0zM680 253q-36 0 -57 16t-21 43q1 27 22 43t56 16q36 0 58 -16q21 -16 22 -43q0 -27 -22 -43q-21 -16 -58 -16v0zM680 54q-45 0 -71 20q-26 19 -27 53q1 32 27 52q27 19 71 20q43 -1 70 -20q26 -20 27 -52
q0 -34 -26 -53q-26 -20 -71 -20v0z" />
    <glyph glyph-name="arrowleft" unicode="&#x2190;" horiz-adv-x="720" 
d="M669 383h-476l167 155l-53 55l-256 -247l256 -247l53 55l-168 156h477v73z" />
    <glyph glyph-name="arrowup" unicode="&#x2191;" horiz-adv-x="595" 
d="M544 403l-247 256l-246 -256l55 -55l152 165v-472h78v472l153 -165z" />
    <glyph glyph-name="arrowright" unicode="&#x2192;" horiz-adv-x="720" 
d="M413 593l-53 -55l167 -155h-476v-73h477l-168 -156l53 -55l256 247z" />
    <glyph glyph-name="arrowdown" unicode="&#x2193;" horiz-adv-x="595" 
d="M489 353l-153 -165v472h-78v-472l-152 165l-55 -55l246 -256l247 256z" />
    <glyph glyph-name="arrowboth" unicode="&#x2194;" horiz-adv-x="851" 
d="M542 593l-50 -54l169 -158h-471l169 158l-51 54l-257 -247l257 -247l51 54l-171 159h475l-171 -159l50 -54l258 247z" />
    <glyph glyph-name="arrowupdn" unicode="&#x2195;" horiz-adv-x="595" 
d="M332 127v446l158 -169l54 52l-247 257l-246 -257l54 -52l157 168v-444l-157 168l-54 -52l246 -257l247 257l-54 52z" />
    <glyph glyph-name="uni2196" unicode="&#x2196;" horiz-adv-x="566" 
d="M515 172l-336 334l224 -8l1 74l-353 8l8 -354l73 2l-7 225l336 -336z" />
    <glyph glyph-name="uni2197" unicode="&#x2197;" horiz-adv-x="566" 
d="M51 172l54 -55l336 336l-7 -225l73 -2l8 354l-353 -8l1 -74l224 8z" />
    <glyph glyph-name="uni2198" unicode="&#x2198;" horiz-adv-x="566" 
d="M51 525l336 -334l-224 8l-1 -74l353 -8l-8 354l-73 -2l7 -225l-336 336z" />
    <glyph glyph-name="uni2199" unicode="&#x2199;" horiz-adv-x="566" 
d="M515 529l-54 55l-336 -336l7 225l-73 2l-8 -354l353 8l-1 74l-224 -8z" />
    <glyph glyph-name="uni21B3" unicode="&#x21b3;" horiz-adv-x="733" 
d="M426 593l-53 -55l167 -155h-362v317h-77v-390h440l-168 -156l53 -55l256 247z" />
    <glyph glyph-name="partialdiff" unicode="&#x2202;" horiz-adv-x="582" 
d="M309 788q-40 0 -79 -19q-38 -19 -73 -57l54 -55q23 24 48 38q24 15 50 15q133 0 142 -250q-41 20 -86 30q-46 10 -96 10q-104 -1 -163 -73t-60 -197q1 -115 62 -179q61 -65 169 -66q130 0 195 109t65 326q0 179 -59 273q-58 94 -169 95v0zM277 63q-69 1 -109 45
q-39 44 -40 122q0 94 39 144q38 50 109 51q42 0 86 -11q44 -12 89 -35q-5 -157 -49 -236q-44 -80 -125 -80v0z" />
    <glyph glyph-name="emptyset" unicode="&#x2205;" horiz-adv-x="839" 
d="M686 606l92 106l-51 44l-93 -106q-45 31 -100 48q-54 17 -115 17q-159 -3 -262 -105q-102 -101 -106 -260q0 -76 27 -141q26 -65 74 -114l-90 -103l51 -43l90 103q45 -32 100 -50q54 -17 116 -17q160 3 263 105q103 101 106 260q0 76 -27 142q-27 65 -75 114v0zM131 350
q2 129 82 209q79 81 206 83q47 0 89 -13t77 -36l-383 -440q-34 38 -52 88q-19 50 -19 109v0zM419 58q-48 0 -90 13t-77 37l384 441q34 -38 53 -89q19 -50 19 -110q-2 -129 -82 -209q-80 -81 -207 -83v0z" />
    <glyph glyph-name="product" unicode="&#x220f;" horiz-adv-x="777" 
d="M165 -141h83v763h282v-763h82v763h130v78h-707v-78h130v-763z" />
    <glyph glyph-name="summation" unicode="&#x2211;" horiz-adv-x="603" 
d="M71 -100h487v78h-381l257 322l-257 322h381v78h-487v-72l256 -328l-256 -328v-72z" />
    <glyph glyph-name="minus" unicode="&#x2212;" horiz-adv-x="540" 
d="M61 334h418v67h-418v-67z" />
    <glyph glyph-name="radical" unicode="&#x221a;" horiz-adv-x="658" 
d="M555 700l-231 -588h-2l-119 304h-182v-78h126l138 -338h78l284 700h-92z" />
    <glyph glyph-name="infinity" unicode="&#x221e;" horiz-adv-x="723" 
d="M225 110q43 1 79 26q37 25 58 67q20 -42 57 -67t79 -26q73 2 118 55q45 52 46 138q-1 86 -46 139q-45 52 -118 54q-42 -1 -79 -26t-57 -67q-21 42 -58 67q-36 25 -79 26q-73 -2 -118 -54q-45 -53 -46 -139q1 -86 46 -138q45 -53 118 -55v0zM227 179q-44 1 -70 34
q-25 32 -26 90q1 58 26 91q26 32 70 33q36 0 64 -31t46 -93q-18 -62 -46 -93t-64 -31v0zM496 179q-35 0 -64 31q-28 31 -46 93q18 62 46 93q29 31 64 31q44 -1 70 -33q25 -33 26 -91q-1 -58 -26 -90q-26 -33 -70 -34v0z" />
    <glyph glyph-name="integral" unicode="&#x222b;" horiz-adv-x="481" 
d="M61 -240q119 -1 171 45q51 46 50 153v584q-1 71 29 99q30 27 110 26v78q-120 1 -171 -45q-52 -46 -51 -153v-584q1 -71 -29 -99q-30 -27 -109 -26v-78z" />
    <glyph glyph-name="approxequal" unicode="&#x2248;" horiz-adv-x="610" 
d="M129 364q13 44 31 62q17 19 44 18q45 -5 90 -40q46 -35 114 -40q54 1 90 35t51 96l-68 22q-14 -44 -31 -63q-18 -19 -45 -19q-44 5 -90 41q-47 35 -114 40q-53 0 -89 -34q-37 -34 -51 -98zM129 189q13 44 31 62q17 19 44 18q45 -5 90 -40q46 -35 114 -40q54 1 90 35
t51 96l-68 22q-14 -44 -31 -63q-18 -19 -45 -19q-44 5 -90 41q-47 35 -114 40q-53 0 -89 -34q-37 -34 -51 -98z" />
    <glyph glyph-name="notequal" unicode="&#x2260;" horiz-adv-x="553" 
d="M493 411v72h-113l47 83l-48 27l-62 -110h-256v-72h216l-65 -116h-151v-72h111l-46 -82l47 -28l62 110h258v72h-218l65 116h153z" />
    <glyph glyph-name="lessequal" unicode="&#x2264;" horiz-adv-x="556" 
d="M450 124l39 60l-347 208l347 207l-39 61l-389 -234v-68zM495 0v73h-434v-73h434z" />
    <glyph glyph-name="greaterequal" unicode="&#x2265;" horiz-adv-x="556" 
d="M106 124l389 234v68l-389 234l-39 -61l347 -207l-347 -208zM61 0h434v73h-434v-73z" />
    <glyph glyph-name="lozenge" unicode="&#x25ca;" horiz-adv-x="661" 
d="M276 0h109l215 350l-215 350h-109l-215 -350zM330 54l-184 296l184 296l185 -296z" />
    <glyph glyph-name="uniF8FF" unicode="&#xf8ff;" horiz-adv-x="686" 
d="M50 0h26l66 65l67 -65l63 65l69 -65l71 65l63 -65l68 65l65 -65h28v423q-3 122 -87 205q-84 84 -207 87q-121 -3 -205 -87q-83 -83 -87 -205v-423zM216 307q-30 1 -50 21t-21 49q1 31 21 51t50 21q31 -1 51 -21q19 -20 20 -51q-1 -30 -21 -50q-20 -19 -50 -20v0zM470 307
q-29 1 -49 21t-21 49q1 31 20 51q20 20 50 21q31 -1 51 -21t21 -51q-1 -29 -21 -49q-21 -20 -51 -21v0z" />
    <glyph glyph-name="uniFB01" unicode="&#xfb01;" horiz-adv-x="535" 
d="M385 710v-87h90v87h-90zM189 530v47q0 25 12 38q13 12 38 12h69v73h-78q-57 -1 -88 -30q-31 -30 -31 -82v-58h-91v-70h91v-460h78v460h205v-460h78v530h-283z" />
    <glyph glyph-name="uniFB02" unicode="&#xfb02;" horiz-adv-x="537" 
d="M394 730v-200h-205v47q0 25 12 38q13 12 38 12h69v73h-78q-57 -1 -88 -30q-31 -30 -31 -82v-58h-91v-70h91v-460h78v460h205v-460h78v730h-78z" />
    <glyph glyph-name="uniFEFF" unicode="&#xfeff;" horiz-adv-x="0" 
 />
    <glyph glyph-name="glyph224" horiz-adv-x="209" 
d="M60 623h90v87h-90v-87zM66 0h78v530h-78v-530z" />
    <glyph glyph-name="glyph326" horiz-adv-x="280" 
d="M109 417q29 0 52 10q22 9 33 26h1v-29h55v186q-1 45 -30 71q-29 25 -80 26q-50 -1 -84 -26q-33 -25 -41 -68l61 -10q5 25 22 38q16 14 42 14q22 0 35 -9q13 -8 13 -24q0 -12 -14 -20t-49 -16q-57 -12 -82 -34q-26 -21 -26 -57q1 -36 25 -57q25 -21 67 -21v0zM123 470
q-44 0 -44 30q-1 13 12 22q13 10 46 19q18 4 32 10q13 5 19 15h1v-42q-1 -22 -20 -38q-19 -15 -46 -16v0z" />
    <glyph glyph-name="glyph327" horiz-adv-x="318" 
d="M176 707q-26 0 -47 -8q-21 -9 -34 -24h-1v129h-64v-380h62v27h1q12 -16 34 -25t49 -9q57 1 91 41q35 39 36 104q-1 65 -36 104q-34 40 -91 41v0zM164 474q-30 1 -50 19q-19 19 -20 47v44q1 28 20 47q20 19 50 20q34 -1 55 -25t22 -64q-1 -40 -22 -64q-21 -23 -55 -24v0z
" />
    <glyph glyph-name="glyph328" horiz-adv-x="297" 
d="M152 417q52 1 87 29t43 73l-62 11q-12 -56 -68 -56q-34 1 -53 24q-20 24 -20 64t20 64q19 23 53 24q56 0 68 -56l62 11q-8 45 -43 73t-87 29q-61 -1 -98 -41q-38 -39 -39 -104q1 -65 39 -104q37 -40 98 -41v0z" />
    <glyph glyph-name="glyph329" horiz-adv-x="318" 
d="M142 707q-56 -1 -91 -41q-35 -39 -36 -104q1 -65 36 -104q35 -40 91 -41q27 0 49 9t34 25h1v-27h62v380h-64v-129h-1q-13 15 -34 24q-21 8 -47 8v0zM154 474q-34 1 -55 24q-21 24 -22 64q1 40 22 64t55 25q30 -1 50 -20q19 -19 20 -47v-44q-1 -28 -20 -47
q-20 -18 -50 -19v0z" />
    <glyph glyph-name="glyph330" horiz-adv-x="302" 
d="M287 563q-1 65 -37 104q-37 39 -98 40q-60 -1 -98 -41t-39 -104q1 -67 38 -105q37 -39 101 -40q39 0 70 16q31 15 52 46l-49 37q-18 -22 -34 -32q-17 -10 -37 -10q-32 0 -51 17q-20 16 -25 46h207v26zM80 590q5 29 24 44q18 16 48 16q31 0 50 -16q20 -17 22 -44h-144z
" />
    <glyph glyph-name="glyph331" horiz-adv-x="198" 
d="M54 424h63v219h76v57h-76v25q0 13 6 18q6 6 19 6h41v54h-46q-40 0 -61 -19q-22 -19 -22 -56v-28h-49v-57h49v-219z" />
    <glyph glyph-name="glyph332" horiz-adv-x="314" 
d="M157 296q57 0 91 34q35 34 36 98v272h-60v-24h-1q-13 15 -34 23q-20 8 -43 8q-59 -2 -95 -42q-35 -41 -36 -103q1 -65 35 -104q34 -40 92 -41q26 0 46 8t33 22h1v-23q-1 -38 -19 -55q-18 -16 -46 -16q-23 0 -41 10q-18 11 -31 35l-51 -32q19 -35 51 -53q33 -17 72 -17v0z
M154 474q-35 1 -55 25q-20 23 -20 63t20 64q20 23 55 24q28 -1 47 -16t20 -38v-66q-1 -24 -19 -40q-19 -15 -48 -16v0z" />
    <glyph glyph-name="glyph333" horiz-adv-x="311" 
d="M30 424h64v162q0 29 17 47t48 18q30 0 47 -18q17 -19 17 -49v-160h63v185q-1 46 -29 72q-29 26 -77 26q-27 0 -49 -9q-22 -10 -36 -28h-1v134h-64v-380z" />
    <glyph glyph-name="glyph334" horiz-adv-x="129" 
d="M30 747h69v64h-69v-64zM33 424h64v276h-64v-276z" />
    <glyph glyph-name="glyph335" horiz-adv-x="135" 
d="M36 747h69v64h-69v-64zM-20 323h38q44 0 65 19q20 18 20 60v298h-64v-291q0 -16 -6 -22q-7 -6 -24 -6h-29v-58z" />
    <glyph glyph-name="glyph336" horiz-adv-x="275" 
d="M30 424h64v85l34 36h1l71 -121h74l-103 167l104 109h-84l-96 -104h-1v208h-64v-380z" />
    <glyph glyph-name="glyph337" horiz-adv-x="124" 
d="M30 424h64v380h-64v-380z" />
    <glyph glyph-name="glyph338" horiz-adv-x="455" 
d="M30 424h64v174q0 25 15 38q14 14 38 14t38 -13q15 -14 15 -38v-175h61v174q0 25 15 38q15 14 39 14q23 0 37 -13q14 -14 14 -38v-175h64v181q-1 46 -28 74q-28 27 -74 28q-24 0 -46 -10q-21 -10 -35 -27h-1q-12 17 -33 27q-22 10 -46 10q-21 0 -41 -8q-19 -9 -33 -26h-1
v27h-62v-276z" />
    <glyph glyph-name="glyph339" horiz-adv-x="311" 
d="M30 424h64v162q0 29 17 46q17 18 48 18q30 0 47 -18t17 -48v-160h63v185q-1 46 -29 72q-29 26 -77 26q-28 0 -50 -10t-38 -30h-1v33h-61v-276z" />
    <glyph glyph-name="glyph340" horiz-adv-x="310" 
d="M155 417q63 1 101 40q38 40 39 105q-1 66 -39 105t-101 40q-63 -1 -101 -40t-39 -105q1 -65 39 -105q38 -39 101 -40v0zM155 474q-36 0 -56 24q-20 23 -20 64t20 64q20 24 56 24t56 -24q20 -23 20 -64t-20 -64q-20 -24 -56 -24v0z" />
    <glyph glyph-name="glyph341" horiz-adv-x="321" 
d="M177 707q-28 0 -50 -10q-23 -9 -35 -26h-1v29h-61v-397h64v146h1q13 -15 34 -23q22 -9 48 -9q57 1 93 41q35 39 36 104q-1 65 -36 104q-36 40 -93 41v0zM165 474q-30 1 -50 19q-20 19 -21 47v44q1 28 21 47t50 20q35 -1 56 -25t22 -64q-1 -40 -22 -64q-21 -23 -56 -24v0z
" />
    <glyph glyph-name="glyph342" horiz-adv-x="321" 
d="M144 707q-57 -1 -93 -41q-35 -39 -36 -104q1 -65 36 -104q36 -40 93 -41q27 0 48 9q21 8 34 23h1v-146h64v397h-61v-29h-1q-12 17 -35 26q-22 10 -50 10v0zM156 474q-35 1 -56 24q-21 24 -22 64q1 40 22 64t56 25q30 -1 50 -20t21 -47v-44q-1 -28 -21 -47
q-20 -18 -50 -19v0z" />
    <glyph glyph-name="glyph343" horiz-adv-x="196" 
d="M159 705q-22 0 -40 -8q-18 -9 -28 -24h-1v27h-60v-276h64v142q0 42 17 61q16 19 46 19q8 0 15 -1t13 -3l11 59q-7 2 -16 3t-21 1v0z" />
    <glyph glyph-name="glyph344" horiz-adv-x="292" 
d="M156 417q51 1 81 24q29 24 30 65q1 33 -25 53t-84 34q-34 9 -47 16q-14 8 -13 19q0 13 11 20t31 7q24 0 40 -12q17 -11 24 -33l55 16q-12 39 -43 60t-76 21q-46 -1 -74 -22q-28 -22 -29 -59q-1 -30 24 -49q24 -19 80 -33q38 -10 52 -19q15 -9 14 -21q0 -18 -13 -26
q-13 -9 -38 -9q-32 0 -49 15q-18 15 -26 46l-56 -15q9 -46 43 -72q35 -26 88 -26v0z" />
    <glyph glyph-name="glyph345" horiz-adv-x="189" 
d="M183 643v57h-72v67h-63v-67h-43v-57h43v-142q-1 -41 20 -59t69 -18h35v61h-31q-16 0 -23 5q-7 4 -7 17v136h72z" />
    <glyph glyph-name="glyph346" horiz-adv-x="303" 
d="M210 700v-162q0 -30 -17 -47t-45 -17q-30 0 -44 15q-15 14 -15 41v170h-64v-175q1 -55 30 -82q30 -26 77 -26q25 0 45 8q20 7 34 23h1v-24h61v276h-63z" />
    <glyph glyph-name="glyph347" horiz-adv-x="305" 
d="M125 424h54l116 276h-68l-73 -187h-1l-74 187h-69z" />
    <glyph glyph-name="glyph348" horiz-adv-x="429" 
d="M76 424h68l70 197h1l71 -197h67l66 276h-67l-41 -192h-1l-64 192h-62l-65 -192h-1l-41 192h-67z" />
    <glyph glyph-name="glyph349" horiz-adv-x="311" 
d="M10 424h80l65 94h1l65 -94h80l-106 139l104 137h-78l-65 -92h-1l-65 92h-78l104 -137z" />
    <glyph glyph-name="glyph350" horiz-adv-x="309" 
d="M229 700l-74 -179h-1l-73 179h-71l111 -254l-60 -143h69l169 397h-70z" />
    <glyph glyph-name="glyph351" horiz-adv-x="279" 
d="M10 424h258v57h-168v1l163 167v51h-249v-57h159v-1l-163 -167v-51z" />
    <glyph glyph-name="glyph352" horiz-adv-x="580" 
d="M441 530v-48h-2q-25 29 -65 46q-41 17 -90 17q-105 -2 -170 -76q-66 -75 -68 -204q2 -129 68 -204q65 -74 170 -76q49 0 90 17q40 17 65 46h2v-48h74v530h-74zM290 58q-76 1 -120 54q-45 53 -46 153q1 100 46 153q44 53 120 54q65 -2 105 -39q41 -37 42 -90v-156
q-1 -53 -42 -90q-40 -37 -105 -39v0z" />
    <glyph glyph-name="glyph353" horiz-adv-x="580" 
d="M249 605h70l102 116h-98zM441 530v-48h-2q-25 29 -65 46q-41 17 -90 17q-105 -2 -170 -76q-66 -75 -68 -204q2 -129 68 -204q65 -74 170 -76q49 0 90 17q40 17 65 46h2v-48h74v530h-74zM290 58q-76 1 -120 54q-45 53 -46 153q1 100 46 153q44 53 120 54q65 -2 105 -39
q41 -37 42 -90v-156q-1 -53 -42 -90q-40 -37 -105 -39v0z" />
    <glyph glyph-name="glyph354" horiz-adv-x="580" 
d="M297 595q57 1 90 32q33 32 37 89h-49q-5 -27 -25 -41q-20 -15 -53 -15t-54 15q-20 14 -25 41h-49q4 -57 37 -89q34 -31 91 -32v0zM441 530v-48h-2q-25 29 -65 46q-41 17 -90 17q-105 -2 -170 -76q-66 -75 -68 -204q2 -129 68 -204q65 -74 170 -76q49 0 90 17q40 17 65 46
h2v-48h74v530h-74zM290 58q-76 1 -120 54q-45 53 -46 153q1 100 46 153q44 53 120 54q65 -2 105 -39q41 -37 42 -90v-156q-1 -53 -42 -90q-40 -37 -105 -39v0z" />
    <glyph glyph-name="glyph355" horiz-adv-x="580" 
d="M350 595l66 85l-47 37l-73 -92l-73 92l-47 -37l66 -85h108zM441 530v-48h-2q-25 29 -65 46q-41 17 -90 17q-105 -2 -170 -76q-66 -75 -68 -204q2 -129 68 -204q65 -74 170 -76q49 0 90 17q40 17 65 46h2v-48h74v530h-74zM437 187q-1 -53 -42 -90q-40 -37 -105 -39
q-76 1 -120 54q-45 53 -46 153q1 100 46 153q44 53 120 54q65 -2 105 -39q41 -37 42 -90v-156z" />
    <glyph glyph-name="glyph356" horiz-adv-x="580" 
d="M296 677l73 -92l47 37l-66 85h-108l-66 -85l47 -37zM441 530v-48h-2q-25 29 -65 46q-41 17 -90 17q-105 -2 -170 -76q-66 -75 -68 -204q2 -129 68 -204q65 -74 170 -76q49 0 90 17q40 17 65 46h2v-48h74v530h-74zM437 187q-1 -53 -42 -90q-40 -37 -105 -39q-76 1 -120 54
q-45 53 -46 153q1 100 46 153q44 53 120 54q65 -2 105 -39q41 -37 42 -90v-156z" />
    <glyph glyph-name="glyph357" horiz-adv-x="580" 
d="M296 677l73 -92l47 37l-66 85h-108l-66 -85l47 -37zM441 530v-48h-2q-25 29 -65 46q-41 17 -90 17q-105 -2 -170 -76q-66 -75 -68 -204q2 -129 68 -204q65 -74 170 -76q49 0 90 17q40 17 65 46h2v-48h74v530h-74zM437 187q-1 -53 -42 -90q-40 -37 -105 -39q-76 1 -120 54
q-45 53 -46 153q1 100 46 153q44 53 120 54q65 -2 105 -39q41 -37 42 -90v-156zM248 -159h96v94h-96v-94z" />
    <glyph glyph-name="glyph358" horiz-adv-x="580" 
d="M158 595h96v94h-96v-94zM338 595h96v94h-96v-94zM441 530v-48h-2q-25 29 -65 46q-41 17 -90 17q-105 -2 -170 -76q-66 -75 -68 -204q2 -129 68 -204q65 -74 170 -76q49 0 90 17q40 17 65 46h2v-48h74v530h-74zM290 58q-76 1 -120 54q-45 53 -46 153q1 100 46 153
q44 53 120 54q65 -2 105 -39q41 -37 42 -90v-156q-1 -53 -42 -90q-40 -37 -105 -39v0z" />
    <glyph glyph-name="glyph359" horiz-adv-x="580" 
d="M163 729h267v63h-267v-63zM158 595h96v94h-96v-94zM338 595h96v94h-96v-94zM441 530v-48h-2q-25 29 -65 46q-41 17 -90 17q-105 -2 -170 -76q-66 -75 -68 -204q2 -129 68 -204q65 -74 170 -76q49 0 90 17q40 17 65 46h2v-48h74v530h-74zM290 58q-76 1 -120 54
q-45 53 -46 153q1 100 46 153q44 53 120 54q65 -2 105 -39q41 -37 42 -90v-156q-1 -53 -42 -90q-40 -37 -105 -39v0z" />
    <glyph glyph-name="glyph360" horiz-adv-x="580" 
d="M441 530v-48h-2q-25 29 -65 46q-41 17 -90 17q-105 -2 -170 -76q-66 -75 -68 -204q2 -129 68 -204q65 -74 170 -76q49 0 90 17q40 17 65 46h2v-48h74v530h-74zM290 58q-76 1 -120 54q-45 53 -46 153q1 100 46 153q44 53 120 54q65 -2 105 -39q41 -37 42 -90v-156
q-1 -53 -42 -90q-40 -37 -105 -39v0zM248 -159h96v94h-96v-94z" />
    <glyph glyph-name="glyph361" horiz-adv-x="580" 
d="M270 605h70l-74 116h-98zM441 530v-48h-2q-25 29 -65 46q-41 17 -90 17q-105 -2 -170 -76q-66 -75 -68 -204q2 -129 68 -204q65 -74 170 -76q49 0 90 17q40 17 65 46h2v-48h74v530h-74zM290 58q-76 1 -120 54q-45 53 -46 153q1 100 46 153q44 53 120 54q65 -2 105 -39
q41 -37 42 -90v-156q-1 -53 -42 -90q-40 -37 -105 -39v0z" />
    <glyph glyph-name="glyph362" horiz-adv-x="580" 
d="M163 605h267v63h-267v-63zM441 530v-48h-2q-25 29 -65 46q-41 17 -90 17q-105 -2 -170 -76q-66 -75 -68 -204q2 -129 68 -204q65 -74 170 -76q49 0 90 17q40 17 65 46h2v-48h74v530h-74zM290 58q-76 1 -120 54q-45 53 -46 153q1 100 46 153q44 53 120 54q65 -2 105 -39
q41 -37 42 -90v-156q-1 -53 -42 -90q-40 -37 -105 -39v0z" />
    <glyph glyph-name="glyph363" horiz-adv-x="580" 
d="M524 -116q-15 -8 -30 -13t-29 -5q-17 0 -25 9q-9 8 -9 26q1 32 23 56q21 25 55 43h6v530h-74v-48h-2q-25 29 -65 46q-41 17 -90 17q-105 -2 -170 -76q-66 -75 -68 -204q2 -129 68 -204q65 -74 170 -76q49 0 90 17q40 17 65 46h2v-48h6q-37 -25 -59 -55q-21 -30 -23 -60
q-1 -40 22 -62q24 -23 67 -23q26 0 50 6q23 5 44 15zM437 187q-1 -53 -42 -90q-40 -37 -105 -39q-76 1 -120 54q-45 53 -46 153q1 100 46 153q44 53 120 54q65 -2 105 -39q41 -37 42 -90v-156z" />
    <glyph glyph-name="glyph364" horiz-adv-x="581" 
d="M282 578q49 1 79 29t31 72q-1 46 -31 74t-79 29q-48 -1 -79 -29q-30 -28 -31 -74q1 -44 31 -72q31 -28 79 -29v0zM282 621q-26 0 -42 16t-17 42q1 27 17 44q16 16 42 16t43 -16q16 -17 17 -44q-1 -26 -17 -42q-17 -16 -43 -16v0zM441 530v-48h-2q-25 29 -65 46
q-41 17 -90 17q-105 -2 -170 -76q-66 -75 -68 -204q2 -129 68 -204q65 -74 170 -76q49 0 90 17q40 17 65 46h2v-48h74v530h-74zM290 58q-76 1 -120 54q-45 53 -46 153q1 100 46 153q44 53 120 54q65 -2 105 -39q41 -37 42 -90v-156q-1 -53 -42 -90q-40 -37 -105 -39v0z" />
    <glyph glyph-name="glyph365" horiz-adv-x="580" 
d="M282 578q49 1 79 29t31 72q0 37 -21 63q-20 26 -54 35l94 107h-98l-69 -108q-33 -10 -52 -36q-20 -25 -20 -61q1 -44 31 -72q31 -28 79 -29v0zM282 739q26 0 43 -16q16 -17 17 -44q-1 -26 -17 -42q-17 -16 -43 -16t-42 16t-17 42q1 27 17 44q16 16 42 16v0zM441 530v-48
h-2q-25 29 -65 46q-41 17 -90 17q-105 -2 -170 -76q-66 -75 -68 -204q2 -129 68 -204q65 -74 170 -76q49 0 90 17q40 17 65 46h2v-48h74v530h-74zM437 187q-1 -53 -42 -90q-40 -37 -105 -39q-76 1 -120 54q-45 53 -46 153q1 100 46 153q44 53 120 54q65 -2 105 -39
q41 -37 42 -90v-156z" />
    <glyph glyph-name="glyph366" horiz-adv-x="580" 
d="M351 600q38 0 61 25t26 68h-47q-4 -16 -12 -25q-9 -8 -24 -8q-26 2 -51 19q-26 17 -64 19q-38 0 -61 -25t-26 -68h47q4 17 12 25q9 8 24 8q26 -2 52 -19q25 -17 63 -19v0zM441 530v-48h-2q-25 29 -65 46q-41 17 -90 17q-105 -2 -170 -76q-66 -75 -68 -204q2 -129 68 -204
q65 -74 170 -76q49 0 90 17q40 17 65 46h2v-48h74v530h-74zM290 58q-76 1 -120 54q-45 53 -46 153q1 100 46 153q44 53 120 54q65 -2 105 -39q41 -37 42 -90v-156q-1 -53 -42 -90q-40 -37 -105 -39v0z" />
    <glyph glyph-name="glyph367" horiz-adv-x="510" 
d="M347 530q16 15 24 36q9 20 9 44q-1 50 -34 82q-34 31 -88 32q-54 -1 -87 -32q-34 -32 -35 -82q0 -24 9 -45q9 -20 25 -36q-49 -19 -81 -59q-33 -39 -43 -95l79 -15q11 54 46 84q34 30 87 30q50 0 79 -22t30 -59q1 -31 -29 -52q-31 -20 -106 -38q-99 -23 -143 -62
t-43 -106q1 -70 47 -109q46 -40 127 -41q51 0 91 19t63 52h2v-56h73v373q0 57 -27 98q-26 40 -75 59v0zM193 610q1 30 18 48q18 18 47 18t47 -18t19 -48q-1 -29 -19 -47q-18 -17 -47 -18q-29 1 -47 18q-17 18 -18 47v0zM371 179q-1 -53 -41 -87q-39 -33 -104 -34
q-50 0 -76 21t-26 61q-1 34 30 56q30 23 99 40q53 13 81 28q27 15 35 34h2v-119z" />
    <glyph glyph-name="glyph368" horiz-adv-x="510" 
d="M347 530q16 15 24 36q9 20 9 44q-1 43 -25 73q-25 29 -68 38l96 109h-98l-72 -113q-35 -12 -56 -40q-20 -28 -21 -67q0 -24 9 -45q9 -20 25 -36q-49 -19 -81 -59q-33 -39 -43 -95l79 -15q11 54 46 84q34 30 87 30q50 0 79 -22t30 -59q1 -31 -29 -52q-31 -20 -106 -38
q-99 -23 -143 -62t-43 -106q1 -70 47 -109q46 -40 127 -41q51 0 91 19t63 52h2v-56h73v373q0 57 -27 98q-26 40 -75 59v0zM193 610q1 30 18 48q18 18 47 18t47 -18t19 -48q-1 -29 -19 -47q-18 -17 -47 -18q-29 1 -47 18q-17 18 -18 47v0zM371 179q-1 -53 -41 -87
q-39 -33 -104 -34q-50 0 -76 21t-26 61q-1 34 30 56q30 23 99 40q53 13 81 28q27 15 35 34h2v-119z" />
    <glyph glyph-name="glyph369" horiz-adv-x="309" 
d="M111 0h78v460h104v70h-104v47q0 25 12 38q13 12 38 12h69v73h-78q-57 -1 -88 -30q-31 -30 -31 -82v-58h-91v-70h91v-460z" />
    <glyph glyph-name="glyph370" horiz-adv-x="209" 
d="M59 623h90v87h-90v-87zM66 -225h78v755h-78v-755z" />
    <glyph glyph-name="glyph371" horiz-adv-x="304" 
d="M289 460v70h-111v120h-78v-120h-80v-70h80v-338q-1 -67 29 -95t101 -27h50v73h-44q-32 0 -45 11q-13 12 -13 37v339h111z" />
    <glyph glyph-name="glyph372" horiz-adv-x="2126" 
d="M149 0h101l171 562h2l172 -562h82l172 562h2l171 -562h82l172 562h2l171 -562h82l172 562h2l172 -562h100l129 700h-85l-103 -569h-2l-173 569h-78l-174 -569h-2l-173 569h-78l-174 -569h-2l-173 569h-78l-174 -569h-2l-174 569h-78l-173 -569h-2l-103 569h-85z" />
    <glyph glyph-name="glyph375" horiz-adv-x="1828" 
d="M152 0h74l151 433h2l150 -433h55l150 433h2l151 -433h54l151 433h2l150 -433h55l150 433h2l151 -433h74l127 530h-77l-96 -412h-2l-143 412h-70l-142 -412h-2l-143 412h-70l-143 -412h-2l-143 412h-70l-143 -412h-2l-142 412h-71l-142 -412h-2l-96 412h-77z" />
    <glyph glyph-name="glyph392" horiz-adv-x="644" 
d="M322 -15q125 2 200 97q75 96 77 268q-2 172 -77 268q-75 95 -200 97q-125 -2 -200 -97q-75 -96 -77 -268q2 -172 78 -268q75 -95 199 -97v0zM322 63q-89 1 -141 75t-53 212q1 138 53 212t141 75q89 -1 141 -75t53 -212q-1 -138 -53 -212t-141 -75v0z" />
    <glyph glyph-name="glyph393" horiz-adv-x="375" 
d="M191 0h83v700h-73l-166 -108v-87l156 101v-606z" />
    <glyph glyph-name="glyph394" horiz-adv-x="598" 
d="M170 164q11 25 46 50q35 24 121 67q114 57 161 112t45 130q-2 83 -66 137q-64 53 -163 55q-114 -1 -182 -65q-69 -64 -76 -176l83 -7q6 82 50 126q45 44 125 44q65 -1 105 -32t41 -82q2 -51 -39 -92t-148 -95q-81 -42 -121 -73t-57 -64q-15 -25 -22 -57q-7 -33 -7 -76
v-66h465v78h-377q1 31 5 51t11 35v0z" />
    <glyph glyph-name="glyph395" horiz-adv-x="592" 
d="M304 -15q106 1 168 59q63 57 64 154q-1 65 -30 113q-30 48 -82 69v2q43 22 69 62q25 39 26 85q-1 84 -60 135q-58 50 -156 51q-98 -1 -162 -53q-64 -53 -77 -143l81 -12q10 62 51 97q41 34 107 35q63 0 98 -31q34 -30 35 -85q-1 -48 -42 -80t-105 -33h-50v-72h50
q83 0 124 -34q41 -35 41 -106q-1 -62 -41 -98t-109 -37q-77 0 -121 45q-44 46 -55 138l-82 -13q13 -119 80 -183q66 -64 178 -65v0z" />
    <glyph glyph-name="glyph396" horiz-adv-x="563" 
d="M360 0h83v143h89v73h-89v484h-125l-308 -485v-72h350v-143zM92 216l266 419h2v-419h-268z" />
    <glyph glyph-name="glyph397" horiz-adv-x="591" 
d="M300 -15q114 2 184 69t72 180q-2 106 -69 173q-67 66 -174 68q-50 0 -90 -12q-40 -13 -71 -36l-2 1l38 194h304v78h-367l-67 -353l73 -18q33 34 74 54t95 20q80 -1 126 -48t47 -121q-1 -79 -48 -124q-47 -46 -125 -47q-76 0 -120 35q-44 36 -59 107l-81 -20
q21 -95 88 -147t172 -53v0z" />
    <glyph glyph-name="glyph398" horiz-adv-x="615" 
d="M341 466q-74 -1 -128 -30q-53 -28 -81 -75h-2q7 128 63 202t144 76q57 1 96 -30q39 -30 58 -100l78 19q-23 92 -84 139q-61 48 -150 48q-128 -3 -208 -105q-80 -103 -82 -271q1 -165 75 -258q74 -94 212 -96q106 1 176 65q69 64 72 176q-2 106 -68 172t-171 68v0zM332 61
q-82 2 -129 47q-47 46 -48 118q1 73 48 120q47 46 128 48q75 -1 121 -46t47 -122q-2 -80 -50 -122q-49 -43 -117 -43v0z" />
    <glyph glyph-name="glyph399" horiz-adv-x="503" 
d="M96 0h93l284 628v72h-458v-78h364v-2z" />
    <glyph glyph-name="glyph400" horiz-adv-x="567" 
d="M284 -15q119 1 188 58q69 56 70 152q-1 66 -35 115q-34 48 -95 73v2q46 25 69 62q23 36 23 84q-2 81 -62 132q-61 50 -158 52q-98 -2 -158 -52q-60 -51 -62 -132q0 -49 23 -85t69 -61v-2q-62 -25 -96 -73q-34 -49 -35 -115q1 -96 71 -152q69 -57 188 -58v0zM284 416
q-63 1 -100 30t-38 80q1 52 38 83q37 30 100 31q62 -1 100 -31q37 -31 38 -83q-1 -51 -38 -80q-38 -29 -100 -30v0zM284 65q-81 1 -127 36q-46 36 -47 99q1 64 47 101q46 36 127 37q80 -1 126 -37q46 -37 47 -101q-1 -63 -47 -99q-46 -35 -126 -36v0z" />
    <glyph glyph-name="glyph401" horiz-adv-x="590" 
d="M283 715q-109 -2 -178 -67q-68 -65 -70 -170q1 -112 65 -175q65 -64 179 -65q62 0 107 21q46 21 73 58h1q-5 -137 -46 -197t-124 -59q-53 -1 -91 28t-58 94l-76 -20q23 -85 81 -131q59 -46 144 -47q133 -1 195 97q61 98 60 310q-2 161 -72 242t-190 81v0zM283 311
q-77 1 -122 45q-44 44 -45 122q1 74 46 117q44 43 121 44q76 -1 121 -45q44 -45 45 -121q-1 -74 -46 -117q-45 -44 -120 -45v0z" />
    <glyph glyph-name="glyph402" 
d="M325 -15q125 2 200 97q75 96 77 268q-2 172 -77 268q-75 95 -200 97q-125 -2 -200 -97q-75 -96 -77 -268q2 -172 78 -268q75 -95 199 -97v0zM325 63q-89 1 -141 75t-53 212q1 138 53 212t141 75q89 -1 141 -75t53 -212q-1 -138 -53 -212t-141 -75v0z" />
    <glyph glyph-name="glyph403" 
d="M372 78v622h-73l-166 -108v-87l156 101v-528h-163v-78h397v78h-151z" />
    <glyph glyph-name="glyph404" 
d="M196 164q11 25 46 50q35 24 121 67q114 57 161 112t45 130q-2 83 -66 137q-64 53 -163 55q-114 -1 -182 -65q-69 -64 -76 -176l83 -7q6 82 50 126q45 44 125 44q65 -1 105 -32t41 -82q2 -51 -39 -92t-148 -95q-81 -42 -121 -73t-57 -64q-15 -25 -22 -57q-7 -33 -7 -76
v-66h465v78h-377q1 31 5 51t11 35v0z" />
    <glyph glyph-name="glyph405" 
d="M338 -15q106 1 168 59q63 57 64 154q-1 65 -30 113q-30 48 -82 69v2q43 22 69 62q25 39 26 85q-1 84 -60 135q-58 50 -156 51q-98 -1 -162 -53q-64 -53 -77 -143l81 -12q10 62 51 97q41 34 107 35q63 0 98 -31q34 -30 35 -85q-1 -48 -42 -80t-105 -33h-50v-72h50
q83 0 124 -34q41 -35 41 -106q-1 -62 -41 -98t-109 -37q-77 0 -121 45q-44 46 -55 138l-82 -13q13 -119 80 -183q66 -64 178 -65v0z" />
    <glyph glyph-name="glyph406" 
d="M413 0h83v143h89v73h-89v484h-125l-308 -485v-72h350v-143zM145 216l266 419h2v-419h-268z" />
    <glyph glyph-name="glyph407" 
d="M326 -15q114 2 184 69t72 180q-2 106 -69 173q-67 66 -174 68q-50 0 -90 -12q-40 -13 -71 -36l-2 1l38 194h304v78h-367l-67 -353l73 -18q33 34 74 54t95 20q80 -1 126 -48t47 -121q-1 -79 -48 -124q-47 -46 -125 -47q-76 0 -120 35q-44 36 -59 107l-81 -20
q21 -95 88 -147t172 -53v0z" />
    <glyph glyph-name="glyph408" 
d="M357 466q-74 -1 -128 -30q-53 -28 -81 -75h-2q7 128 63 202t144 76q57 1 96 -30q39 -30 58 -100l78 19q-23 92 -84 139q-61 48 -150 48q-128 -3 -208 -105q-80 -103 -82 -271q1 -165 75 -258q74 -94 212 -96q106 1 176 65q69 64 72 176q-2 106 -68 172t-171 68v0zM348 61
q-82 2 -129 47q-47 46 -48 118q1 73 48 120q47 46 128 48q75 -1 121 -46t47 -122q-2 -80 -50 -122q-49 -43 -117 -43v0z" />
    <glyph glyph-name="glyph409" 
d="M177 0h93l284 628v72h-458v-78h364v-2z" />
    <glyph glyph-name="glyph410" 
d="M326 -15q119 1 188 58q69 56 70 152q-1 66 -35 115q-34 48 -95 73v2q46 25 69 62q23 36 23 84q-2 81 -62 132q-61 50 -158 52q-98 -2 -158 -52q-60 -51 -62 -132q0 -49 23 -85t69 -61v-2q-62 -25 -96 -73q-34 -49 -35 -115q1 -96 71 -152q69 -57 188 -58v0zM326 416
q-63 1 -100 30t-38 80q1 52 38 83q37 30 100 31q62 -1 100 -31q37 -31 38 -83q-1 -51 -38 -80q-38 -29 -100 -30v0zM326 65q-81 1 -127 36q-46 36 -47 99q1 64 47 101q46 36 127 37q80 -1 126 -37q46 -37 47 -101q-1 -63 -47 -99q-46 -35 -126 -36v0z" />
    <glyph glyph-name="glyph411" 
d="M322 715q-109 -2 -178 -67q-68 -65 -70 -170q1 -112 65 -175q65 -64 179 -65q62 0 107 21q46 21 73 58h1q-5 -137 -46 -197t-124 -59q-53 -1 -91 28t-58 94l-76 -20q23 -85 81 -131q59 -46 144 -47q133 -1 195 97q61 98 60 310q-2 161 -72 242t-190 81v0zM322 311
q-77 1 -122 45q-44 44 -45 122q1 74 46 117q44 43 121 44q76 -1 121 -45q44 -45 45 -121q-1 -74 -46 -117q-45 -44 -120 -45v0z" />
    <glyph glyph-name="glyph412" horiz-adv-x="644" 
d="M322 686q-125 -1 -200 -93t-77 -257q2 -165 77 -257q76 -92 200 -93q124 1 200 93q75 92 77 257q-2 165 -77 257t-200 93v0zM121 336q1 134 56 207q54 72 145 73q48 0 87 -21l-225 -476q-30 36 -46 91q-17 55 -17 126v0zM322 56q-25 0 -48 6q-22 6 -42 17l225 477
q32 -36 49 -92q17 -55 17 -128q-1 -134 -55 -207q-55 -72 -146 -73v0z" />
    <glyph glyph-name="glyph413" horiz-adv-x="644" 
d="M322 715q-125 -2 -200 -97q-75 -96 -77 -268q2 -172 78 -268q75 -95 199 -97q125 2 200 97q75 96 77 268q-2 172 -77 268q-75 95 -200 97v0zM124 350q1 141 54 217q54 75 144 76q53 0 93 -26l-232 -490q-28 38 -43 94q-16 55 -16 129v0zM322 57q-52 0 -93 26l232 489
q29 -38 44 -93q15 -56 15 -129q-1 -141 -54 -217q-54 -75 -144 -76v0z" />
    <glyph glyph-name="glyph414" 
d="M325 715q-125 -2 -200 -97q-75 -96 -77 -268q2 -172 78 -268q75 -95 199 -97q125 2 200 97q75 96 77 268q-2 172 -77 268q-75 95 -200 97v0zM127 350q1 141 54 217q54 75 144 76q53 0 93 -26l-232 -490q-28 38 -43 94q-16 55 -16 129v0zM325 57q-52 0 -93 26l232 489
q29 -38 44 -93q15 -56 15 -129q-1 -141 -54 -217q-54 -75 -144 -76v0z" />
    <glyph glyph-name="glyph415" horiz-adv-x="408" 
d="M204 -159q81 1 127 59t47 160q-1 102 -47 160t-127 59q-82 -1 -127 -59q-46 -58 -47 -160q1 -102 47 -160q45 -58 127 -59v0zM204 -96q-50 0 -77 41q-27 40 -27 115t27 116q27 40 77 40t77 -40q27 -41 27 -116t-27 -115q-27 -41 -77 -41v0z" />
    <glyph glyph-name="glyph416" horiz-adv-x="271" 
d="M130 -150h70v420h-66l-109 -65v-73l105 63v-345z" />
    <glyph glyph-name="glyph417" horiz-adv-x="372" 
d="M122 -40q5 8 25 19q19 11 73 36q69 31 96 62q27 32 26 77q-1 55 -42 90q-40 34 -106 35q-72 -1 -116 -40t-48 -106l70 -5q3 42 28 65q25 24 66 24q36 0 57 -18q21 -17 21 -45q1 -26 -21 -47q-22 -20 -78 -44q-46 -19 -72 -36q-27 -16 -41 -33q-13 -16 -19 -38
q-6 -23 -6 -54v-52h305v63h-229q1 20 3 30q3 10 8 17v0z" />
    <glyph glyph-name="glyph418" horiz-adv-x="370" 
d="M190 -159q68 1 109 35q40 34 41 92q0 37 -16 64t-48 43v1q27 19 39 40t12 47q-1 52 -40 84q-39 31 -102 32q-62 -1 -103 -33q-40 -32 -49 -89l69 -11q5 33 27 51q21 19 56 19q33 0 52 -17q20 -16 20 -43q0 -29 -20 -44t-58 -15h-29v-57h36q85 0 85 -66q0 -33 -22 -51
q-21 -18 -59 -18q-43 0 -67 24q-24 25 -29 72l-69 -10q6 -72 49 -111t116 -39v0z" />
    <glyph glyph-name="glyph419" horiz-adv-x="373" 
d="M232 -150h71v78h55v64h-55v278h-114l-179 -277v-65h222v-78zM82 -8l149 229h1v-229h-150z" />
    <glyph glyph-name="glyph420" horiz-adv-x="388" 
d="M196 -159q72 1 116 42q45 42 46 108q-1 63 -43 102q-42 38 -111 39q-49 0 -88 -25l-1 1l18 98h183v64h-236l-41 -218l64 -18q18 20 42 30q24 11 51 11q42 -1 67 -23q24 -23 25 -62q-1 -38 -26 -61q-25 -24 -66 -25q-41 0 -66 20q-26 19 -34 55l-66 -21q13 -54 57 -85
t109 -32v0z" />
    <glyph glyph-name="glyph421" horiz-adv-x="398" 
d="M216 131q-33 0 -62 -12q-28 -12 -47 -35h-2q4 64 32 98t74 34q32 0 53 -15q20 -16 29 -46l66 18q-14 50 -51 78q-38 28 -97 28q-82 -1 -131 -61q-49 -59 -50 -161q0 -102 46 -159q45 -57 132 -58q72 1 115 41q44 39 45 107q-1 65 -42 104q-41 38 -110 39v0zM208 -96
q-45 1 -67 24q-22 24 -22 62q1 40 27 62t65 22q40 0 63 -22t24 -62q-1 -41 -25 -63q-25 -23 -65 -23v0z" />
    <glyph glyph-name="glyph422" horiz-adv-x="306" 
d="M51 -150h79l171 361v59h-301v-64h222v-1z" />
    <glyph glyph-name="glyph423" horiz-adv-x="395" 
d="M198 -159q77 1 122 34q44 34 45 93q0 39 -20 68q-19 29 -55 46v1q24 13 38 34t14 48q-1 50 -40 82q-39 31 -104 32q-65 -1 -105 -32q-39 -32 -40 -82q0 -27 15 -48q14 -21 38 -34v-1q-36 -17 -56 -46t-20 -68q1 -59 45 -93q45 -33 123 -34v0zM198 103q-36 0 -57 16
t-21 43q1 27 22 43t56 16q36 0 58 -16q21 -16 22 -43q0 -27 -22 -43q-21 -16 -58 -16v0zM198 -96q-45 0 -71 20q-26 19 -27 53q1 32 27 52q27 19 71 20q43 -1 70 -20q26 -20 27 -52q0 -34 -26 -53q-26 -20 -71 -20v0z" />
    <glyph glyph-name="glyph424" horiz-adv-x="390" 
d="M188 279q-72 -1 -114 -40q-43 -39 -44 -105q1 -65 43 -102q43 -38 115 -39q32 0 58 10q25 10 42 28q-2 -61 -26 -94t-67 -33q-36 0 -56 16q-21 15 -28 48l-68 -17q12 -51 52 -80q39 -29 100 -30q165 0 165 232q-1 98 -45 152q-45 53 -127 54v0zM100 134q0 38 24 60
q23 22 64 22q40 -1 65 -22q25 -22 26 -59q0 -39 -24 -60q-23 -21 -65 -21t-66 22q-24 21 -24 58v0z" />
    <glyph glyph-name="glyph425" horiz-adv-x="408" 
d="M204 -9q81 1 127 59t47 160q-1 102 -47 160t-127 59q-82 -1 -127 -59q-46 -58 -47 -160q1 -102 47 -160q45 -58 127 -59v0zM204 54q-50 0 -77 41q-27 40 -27 115t27 116q27 40 77 40t77 -40q27 -41 27 -116t-27 -115q-27 -41 -77 -41v0z" />
    <glyph glyph-name="glyph426" horiz-adv-x="271" 
d="M130 0h70v420h-66l-109 -65v-73l105 63v-345z" />
    <glyph glyph-name="glyph427" horiz-adv-x="372" 
d="M122 110q5 8 25 19q19 11 73 36q69 31 96 62q27 32 26 77q-1 55 -42 90q-40 34 -106 35q-72 -1 -116 -40t-48 -106l70 -5q3 42 28 65q25 24 66 24q36 0 57 -18q21 -17 21 -45q1 -26 -21 -47q-22 -20 -78 -44q-46 -19 -72 -36q-27 -16 -41 -33q-13 -16 -19 -38
q-6 -23 -6 -54v-52h305v63h-229q1 20 3 30q3 10 8 17v0z" />
    <glyph glyph-name="glyph428" horiz-adv-x="370" 
d="M190 -9q68 1 109 35q40 34 41 92q0 37 -16 64t-48 43v1q27 19 39 40t12 47q-1 52 -40 84q-39 31 -102 32q-62 -1 -103 -33q-40 -32 -49 -89l69 -11q5 33 27 51q21 19 56 19q33 0 52 -17q20 -16 20 -43q0 -29 -20 -44t-58 -15h-29v-57h36q85 0 85 -66q0 -33 -22 -51
q-21 -18 -59 -18q-43 0 -67 24q-24 25 -29 72l-69 -10q6 -72 49 -111t116 -39v0z" />
    <glyph glyph-name="glyph429" horiz-adv-x="373" 
d="M232 0h71v78h55v64h-55v278h-114l-179 -277v-65h222v-78zM82 142l149 229h1v-229h-150z" />
    <glyph glyph-name="glyph430" horiz-adv-x="388" 
d="M196 -9q72 1 116 42q45 42 46 108q-1 63 -43 102q-42 38 -111 39q-49 0 -88 -25l-1 1l18 98h183v64h-236l-41 -218l64 -18q18 20 42 30q24 11 51 11q42 -1 67 -23q24 -23 25 -62q-1 -38 -26 -61q-25 -24 -66 -25q-41 0 -66 20q-26 19 -34 55l-66 -21q13 -54 57 -85
t109 -32v0z" />
    <glyph glyph-name="glyph431" horiz-adv-x="398" 
d="M216 281q-33 0 -62 -12q-28 -12 -47 -35h-2q4 64 32 98t74 34q32 0 53 -15q20 -16 29 -46l66 18q-14 50 -51 78q-38 28 -97 28q-82 -1 -131 -61q-49 -59 -50 -161q0 -102 46 -159q45 -57 132 -58q72 1 115 41q44 39 45 107q-1 65 -42 104q-41 38 -110 39v0zM208 54
q-45 1 -67 24q-22 24 -22 62q1 40 27 62t65 22q40 0 63 -22t24 -62q-1 -41 -25 -63q-25 -23 -65 -23v0z" />
    <glyph glyph-name="glyph432" horiz-adv-x="306" 
d="M51 0h79l171 361v59h-301v-64h222v-1z" />
    <glyph glyph-name="glyph433" horiz-adv-x="395" 
d="M198 -9q77 1 122 34q44 34 45 93q0 39 -20 68q-19 29 -55 46v1q24 13 38 34t14 48q-1 50 -40 82q-39 31 -104 32q-65 -1 -105 -32q-39 -32 -40 -82q0 -27 15 -48q14 -21 38 -34v-1q-36 -17 -56 -46t-20 -68q1 -59 45 -93q45 -33 123 -34v0zM198 253q-36 0 -57 16t-21 43
q1 27 22 43t56 16q36 0 58 -16q21 -16 22 -43q0 -27 -22 -43q-21 -16 -58 -16v0zM198 54q-45 0 -71 20q-26 19 -27 53q1 32 27 52q27 19 71 20q43 -1 70 -20q26 -20 27 -52q0 -34 -26 -53q-26 -20 -71 -20v0z" />
    <glyph glyph-name="glyph434" horiz-adv-x="390" 
d="M188 429q-72 -1 -114 -40q-43 -39 -44 -105q1 -65 43 -102q43 -38 115 -39q32 0 58 10q25 10 42 28q-2 -61 -26 -94t-67 -33q-36 0 -56 16q-21 15 -28 48l-68 -17q12 -51 52 -80q39 -29 100 -30q165 0 165 232q-1 98 -45 152q-45 53 -127 54v0zM100 284q0 38 24 60
q23 22 64 22q40 -1 65 -22q25 -22 26 -59q0 -39 -24 -60q-23 -21 -65 -21t-66 22q-24 21 -24 58v0z" />
    <glyph glyph-name="glyph435" horiz-adv-x="408" 
d="M204 271q81 1 127 59t47 160q-1 102 -47 160t-127 59q-82 -1 -127 -59q-46 -58 -47 -160q1 -102 47 -160q45 -58 127 -59v0zM204 334q-50 0 -77 41q-27 40 -27 115t27 116q27 40 77 40t77 -40q27 -41 27 -116t-27 -115q-27 -41 -77 -41v0z" />
    <glyph glyph-name="glyph436" horiz-adv-x="271" 
d="M130 280h70v420h-66l-109 -65v-73l105 63v-345z" />
    <glyph glyph-name="glyph437" horiz-adv-x="372" 
d="M122 390q5 8 25 19q19 11 73 36q69 31 96 62q27 32 26 77q-1 55 -42 90q-40 34 -106 35q-72 -1 -116 -40t-48 -106l70 -5q3 42 28 65q25 24 66 24q36 0 57 -18q21 -17 21 -45q1 -26 -21 -47q-22 -20 -78 -44q-46 -19 -72 -36q-27 -16 -41 -33q-13 -16 -19 -38
q-6 -23 -6 -54v-52h305v63h-229q1 20 3 30q3 10 8 17v0z" />
    <glyph glyph-name="glyph438" horiz-adv-x="370" 
d="M190 271q68 1 109 35q40 34 41 92q0 37 -16 64t-48 43v1q27 19 39 40t12 47q-1 52 -40 84q-39 31 -102 32q-62 -1 -103 -33q-40 -32 -49 -89l69 -11q5 33 27 51q21 19 56 19q33 0 52 -17q20 -16 20 -43q0 -29 -20 -44t-58 -15h-29v-57h36q85 0 85 -66q0 -33 -22 -51
q-21 -18 -59 -18q-43 0 -67 24q-24 25 -29 72l-69 -10q6 -72 49 -111t116 -39v0z" />
    <glyph glyph-name="glyph439" horiz-adv-x="373" 
d="M232 280h71v78h55v64h-55v278h-114l-179 -277v-65h222v-78zM82 422l149 229h1v-229h-150z" />
    <glyph glyph-name="glyph440" horiz-adv-x="388" 
d="M196 271q72 1 116 42q45 42 46 108q-1 63 -43 102q-42 38 -111 39q-49 0 -88 -25l-1 1l18 98h183v64h-236l-41 -218l64 -18q18 20 42 30q24 11 51 11q42 -1 67 -23q24 -23 25 -62q-1 -38 -26 -61q-25 -24 -66 -25q-41 0 -66 20q-26 19 -34 55l-66 -21q13 -54 57 -85
t109 -32v0z" />
    <glyph glyph-name="glyph441" horiz-adv-x="398" 
d="M216 561q-33 0 -62 -12q-28 -12 -47 -35h-2q4 64 32 98t74 34q32 0 53 -15q20 -16 29 -46l66 18q-14 50 -51 78q-38 28 -97 28q-82 -1 -131 -61q-49 -59 -50 -161q0 -102 46 -159q45 -57 132 -58q72 1 115 41q44 39 45 107q-1 65 -42 104q-41 38 -110 39v0zM208 334
q-45 1 -67 24q-22 24 -22 62q1 40 27 62t65 22q40 0 63 -22t24 -62q-1 -41 -25 -63q-25 -23 -65 -23v0z" />
    <glyph glyph-name="glyph442" horiz-adv-x="306" 
d="M51 280h79l171 361v59h-301v-64h222v-1z" />
    <glyph glyph-name="glyph443" horiz-adv-x="395" 
d="M198 271q77 1 122 34q44 34 45 93q0 39 -20 68q-19 29 -55 46v1q24 13 38 34t14 48q-1 50 -40 82q-39 31 -104 32q-65 -1 -105 -32q-39 -32 -40 -82q0 -27 15 -48q14 -21 38 -34v-1q-36 -17 -56 -46t-20 -68q1 -59 45 -93q45 -33 123 -34v0zM198 533q-36 0 -57 16t-21 43
q1 27 22 43t56 16q36 0 58 -16q21 -16 22 -43q0 -27 -22 -43q-21 -16 -58 -16v0zM198 334q-45 0 -71 20q-26 19 -27 53q1 32 27 52q27 19 71 20q43 -1 70 -20q26 -20 27 -52q0 -34 -26 -53q-26 -20 -71 -20v0z" />
    <glyph glyph-name="glyph444" horiz-adv-x="390" 
d="M188 709q-72 -1 -114 -40q-43 -39 -44 -105q1 -65 43 -102q43 -38 115 -39q32 0 58 10q25 10 42 28q-2 -61 -26 -94t-67 -33q-36 0 -56 16q-21 15 -28 48l-68 -17q12 -51 52 -80q39 -29 100 -30q165 0 165 232q-1 98 -45 152q-45 53 -127 54v0zM100 564q0 38 24 60
q23 22 64 22q40 -1 65 -22q25 -22 26 -59q0 -39 -24 -60q-23 -21 -65 -21t-66 22q-24 21 -24 58v0z" />
    <glyph glyph-name="glyph445" horiz-adv-x="408" 
d="M204 371q81 1 127 59t47 160q-1 102 -47 160t-127 59q-82 -1 -127 -59q-46 -58 -47 -160q1 -102 47 -160q45 -58 127 -59v0zM204 434q-50 0 -77 41q-27 40 -27 115t27 116q27 40 77 40t77 -40q27 -41 27 -116t-27 -115q-27 -41 -77 -41v0z" />
    <glyph glyph-name="glyph446" horiz-adv-x="271" 
d="M130 380h70v420h-66l-109 -65v-73l105 63v-345z" />
    <glyph glyph-name="glyph447" horiz-adv-x="372" 
d="M122 490q5 8 25 19q19 11 73 36q69 31 96 62q27 32 26 77q-1 55 -42 90q-40 34 -106 35q-72 -1 -116 -40t-48 -106l70 -5q3 42 28 65q25 24 66 24q36 0 57 -18q21 -17 21 -45q1 -26 -21 -47q-22 -20 -78 -44q-46 -19 -72 -36q-27 -16 -41 -33q-13 -16 -19 -38
q-6 -23 -6 -54v-52h305v63h-229q1 20 3 30q3 10 8 17v0z" />
    <glyph glyph-name="glyph448" horiz-adv-x="370" 
d="M190 371q68 1 109 35q40 34 41 92q0 37 -16 64t-48 43v1q27 19 39 40t12 47q-1 52 -40 84q-39 31 -102 32q-62 -1 -103 -33q-40 -32 -49 -89l69 -11q5 33 27 51q21 19 56 19q33 0 52 -17q20 -16 20 -43q0 -29 -20 -44t-58 -15h-29v-57h36q85 0 85 -66q0 -33 -22 -51
q-21 -18 -59 -18q-43 0 -67 24q-24 25 -29 72l-69 -10q6 -72 49 -111t116 -39v0z" />
    <glyph glyph-name="glyph449" horiz-adv-x="373" 
d="M232 380h71v78h55v64h-55v278h-114l-179 -277v-65h222v-78zM82 522l149 229h1v-229h-150z" />
    <glyph glyph-name="glyph450" horiz-adv-x="388" 
d="M196 371q72 1 116 42q45 42 46 108q-1 63 -43 102q-42 38 -111 39q-49 0 -88 -25l-1 1l18 98h183v64h-236l-41 -218l64 -18q18 20 42 30q24 11 51 11q42 -1 67 -23q24 -23 25 -62q-1 -38 -26 -61q-25 -24 -66 -25q-41 0 -66 20q-26 19 -34 55l-66 -21q13 -54 57 -85
t109 -32v0z" />
    <glyph glyph-name="glyph451" horiz-adv-x="398" 
d="M216 661q-33 0 -62 -12q-28 -12 -47 -35h-2q4 64 32 98t74 34q32 0 53 -15q20 -16 29 -46l66 18q-14 50 -51 78q-38 28 -97 28q-82 -1 -131 -61q-49 -59 -50 -161q0 -102 46 -159q45 -57 132 -58q72 1 115 41q44 39 45 107q-1 65 -42 104q-41 38 -110 39v0zM208 434
q-45 1 -67 24q-22 24 -22 62q1 40 27 62t65 22q40 0 63 -22t24 -62q-1 -41 -25 -63q-25 -23 -65 -23v0z" />
    <glyph glyph-name="glyph452" horiz-adv-x="306" 
d="M51 380h79l171 361v59h-301v-64h222v-1z" />
    <glyph glyph-name="glyph453" horiz-adv-x="395" 
d="M198 371q77 1 122 34q44 34 45 93q0 39 -20 68q-19 29 -55 46v1q24 13 38 34t14 48q-1 50 -40 82q-39 31 -104 32q-65 -1 -105 -32q-39 -32 -40 -82q0 -27 15 -48q14 -21 38 -34v-1q-36 -17 -56 -46t-20 -68q1 -59 45 -93q45 -33 123 -34v0zM198 633q-36 0 -57 16t-21 43
q1 27 22 43t56 16q36 0 58 -16q21 -16 22 -43q0 -27 -22 -43q-21 -16 -58 -16v0zM198 434q-45 0 -71 20q-26 19 -27 53q1 32 27 52q27 19 71 20q43 -1 70 -20q26 -20 27 -52q0 -34 -26 -53q-26 -20 -71 -20v0z" />
    <glyph glyph-name="glyph454" horiz-adv-x="390" 
d="M188 809q-72 -1 -114 -40q-43 -39 -44 -105q1 -65 43 -102q43 -38 115 -39q32 0 58 10q25 10 42 28q-2 -61 -26 -94t-67 -33q-36 0 -56 16q-21 15 -28 48l-68 -17q12 -51 52 -80q39 -29 100 -30q165 0 165 232q-1 98 -45 152q-45 53 -127 54v0zM100 664q0 38 24 60
q23 22 64 22q40 -1 65 -22q25 -22 26 -59q0 -39 -24 -60q-23 -21 -65 -21t-66 22q-24 21 -24 58v0z" />
    <glyph glyph-name="glyph487" horiz-adv-x="365" 
d="M274 -131h71v78h-57q-36 0 -51 20t-15 65v209q-1 47 -22 70t-51 23v2q30 0 51 23t22 69v190q0 45 15 65q15 19 51 19h57v79h-71q-69 0 -100 -34q-32 -35 -32 -110v-197q0 -35 -11 -47q-12 -13 -42 -12h-28v-92h28q30 1 42 -12q11 -13 11 -47v-217q0 -75 32 -110
q31 -34 100 -34v0z" />
    <glyph glyph-name="glyph488" horiz-adv-x="365" 
d="M91 -131q69 0 101 34q31 35 31 110v217q0 34 12 47q11 13 41 12h28v92h-28q-30 -1 -41 12q-12 12 -12 47v197q0 75 -31 110q-32 34 -101 34h-71v-79h57q36 0 51 -19q15 -20 15 -65v-190q1 -46 22 -69q22 -23 51 -23v-2q-29 0 -51 -23q-21 -23 -22 -70v-209q0 -45 -15 -65
t-51 -20h-57v-78h71z" />
    <glyph glyph-name="glyph489" horiz-adv-x="309" 
d="M86 -131h202v74h-123v764h123v74h-202v-912z" />
    <glyph glyph-name="glyph490" horiz-adv-x="309" 
d="M223 -131v912h-202v-74h123v-764h-123v-74h202z" />
    <glyph glyph-name="glyph491" horiz-adv-x="366" 
d="M291 -147l54 44q-91 108 -131 214q-41 107 -40 234q-1 127 40 234q40 106 131 214l-54 44q-103 -114 -152 -234q-48 -120 -48 -258t48 -258q49 -120 152 -234v0z" />
    <glyph glyph-name="glyph492" horiz-adv-x="366" 
d="M75 -147q103 114 152 234q48 120 48 258t-48 258q-49 120 -152 234l-54 -44q91 -108 131 -214q41 -107 40 -234q1 -127 -40 -234q-40 -106 -131 -214z" />
    <glyph glyph-name="glyph497" horiz-adv-x="840" 
d="M51 324h738v75h-738v-75z" />
    <glyph glyph-name="glyph498" horiz-adv-x="555" 
d="M51 324h453v75h-453v-75z" />
    <glyph glyph-name="glyph499" horiz-adv-x="363" 
d="M51 324h261v75h-261v-75z" />
    <glyph glyph-name="glyph500" horiz-adv-x="363" 
d="M51 324h261v75h-261v-75z" />
    <glyph glyph-name="glyph511" horiz-adv-x="479" 
d="M181 145h81l-113 186l113 186h-81l-110 -186zM338 145h81l-113 186l113 186h-81l-110 -186z" />
    <glyph glyph-name="glyph512" horiz-adv-x="479" 
d="M141 145l110 186l-110 186h-81l113 -186l-113 -186h81zM298 145l110 186l-110 186h-81l113 -186l-113 -186h81z" />
    <glyph glyph-name="glyph513" horiz-adv-x="322" 
d="M181 145h81l-113 186l113 186h-81l-110 -186z" />
    <glyph glyph-name="glyph514" horiz-adv-x="322" 
d="M141 145l110 186l-110 186h-81l113 -186l-113 -186h81z" />
    <glyph glyph-name="glyph527" horiz-adv-x="0" 
 />
    <glyph glyph-name="glyph541" 
d="M481 373v2q39 18 61 55q22 38 22 89q-1 83 -56 131q-55 49 -148 50h-21v101h-49v-101h-200v-700h200v-110h49v110h4q122 0 184 53q63 52 63 154q-1 61 -30 105q-30 43 -79 61v0zM173 622h117v-219h-117v219zM344 622q68 0 102 -27q35 -27 35 -80q0 -112 -136 -112h-6v219
h5zM173 78v252h117v-252h-117zM339 78v252q89 0 129 -30q40 -29 39 -93q0 -66 -40 -97q-41 -32 -128 -32v0z" />
    <glyph glyph-name="glyph542" 
d="M358 57v416q61 -7 100 -42q40 -34 52 -94l75 15q-17 83 -77 134q-60 50 -150 58v87h-49v-87q-110 -10 -176 -84q-66 -75 -68 -195q2 -120 68 -195q66 -74 176 -84v-96h49v96q90 8 150 58q60 51 77 134l-75 15q-12 -59 -52 -94q-39 -35 -100 -42v0zM141 265q1 89 46 144
t122 64v-416q-77 9 -122 64t-46 144v0z" />
    <glyph glyph-name="glyph543" 
d="M558 330q0 42 -11 80q-12 37 -33 68l65 66l-40 39l-63 -63q-30 26 -69 41q-39 14 -83 14t-83 -14q-39 -15 -69 -41l-62 63l-40 -39l65 -65q-22 -31 -33 -68q-12 -38 -12 -81q0 -44 12 -81q12 -38 34 -69l-66 -66l40 -40l65 65q29 -26 67 -39q38 -14 82 -14t82 14t68 39
l65 -65l40 40l-67 66q22 31 34 69t12 81v0zM325 161q-70 1 -109 45q-39 45 -40 122q1 80 40 125q40 46 109 47q68 -1 107 -47t40 -125q-1 -77 -40 -121q-39 -45 -107 -46v0z" />
    <glyph glyph-name="glyph544" 
d="M607 177q-5 105 -83 153q-78 47 -175 71v235q62 -9 99 -46q37 -36 52 -95l82 16q-16 83 -76 137q-60 53 -157 65v88h-49v-86q-102 -3 -166 -54q-64 -50 -66 -133q4 -88 73 -129q68 -41 159 -63v-272q-76 9 -119 52q-44 44 -57 129l-81 -13q11 -112 79 -173
q67 -62 178 -72v-97h49v95q119 2 188 54q69 53 70 138v0zM148 530q1 51 43 79q41 28 109 30v-224q-65 18 -107 44q-43 25 -45 71v0zM349 61v260q73 -20 125 -51q51 -32 53 -94q-1 -53 -47 -84q-46 -30 -131 -31v0z" />
    <glyph glyph-name="glyph545" 
d="M532 259q-12 -95 -55 -145q-43 -51 -112 -51q-67 1 -116 46q-48 45 -69 129h165v73h-176q-1 20 -1 39q0 17 1 33h247v73h-237q21 85 69 133q49 47 117 48q66 0 108 -47q42 -46 57 -133l82 14q-16 112 -82 177q-66 66 -165 67q-101 -1 -171 -70t-94 -189h-85v-73h76
q-1 -16 -1 -33q0 -19 1 -39h-76v-73h86q24 -119 93 -185q69 -67 171 -68q103 2 170 72q67 71 80 191z" />
    <glyph glyph-name="glyph546" 
d="M470 641h77v73h-78q-57 0 -91 -27q-34 -28 -44 -81l-14 -76h-127v-73h116l-79 -443l-11 -62q-5 -30 -18 -41q-14 -12 -43 -12h-55v-73h56q116 1 135 109l14 78l79 444h140v73h-129l11 58q5 30 19 42q14 11 42 11v0z" />
    <glyph glyph-name="glyph547" 
d="M481 365q-1 -134 -57 -210t-155 -77v285l188 69l-24 65l-164 -60v78l188 69l-24 64l-164 -60v112h-83v-143l-101 -37l24 -64l77 28v-78l-101 -37l24 -64l77 28v-333h83q135 2 214 100t81 265h-83z" />
    <glyph glyph-name="glyph548" 
d="M195 270h171q112 1 173 57q60 56 61 157q-1 101 -61 158q-61 57 -173 58h-254v-357h-72v-73h72v-80h-72v-73h72v-117h83v117h178v73h-178v80zM195 622h166q79 0 117 -34q39 -34 39 -104t-38 -103q-39 -33 -118 -33h-166v274z" />
    <glyph glyph-name="glyph549" 
d="M562 630v70h-475v-78h175q67 0 106 -23q38 -24 48 -69h-329v-74h329q-10 -46 -49 -70t-105 -24h-175v-77h148l150 -285h96l-155 288v2q75 12 120 55t54 111h62v74h-63q-4 28 -18 53q-13 25 -36 45v2h117z" />
    <glyph glyph-name="glyph550" 
d="M268 80q23 23 34 54t11 64q0 32 -8 60q-8 27 -21 50h182v73h-226q-24 32 -42 67t-19 77q1 52 39 82q38 29 108 30q76 0 118 -35t48 -106l82 8q-6 98 -72 154t-177 57q-106 -1 -168 -52t-63 -138q1 -43 16 -79q16 -35 38 -65h-72v-73h121q17 -25 28 -52t11 -58
q0 -52 -26 -85q-27 -34 -77 -35h-57v-78h480v78h-288v2z" />
    <glyph glyph-name="glyph551" 
d="M645 485v66h-41l20 149h-78l-18 -149h-407l-18 149h-78l20 -149h-40v-66h49l10 -69h-59v-67h68l48 -349h90l97 349h32l97 -349h91l48 349h69v67h-60l10 69h50zM130 485h149l-20 -69h-121zM511 416h-121l-20 69h149zM177 119h-2l-29 230h95zM474 119h-2l-64 230h95z" />
    <glyph glyph-name="glyph552" 
d="M625 700h-96l-203 -340h-2l-203 340h-96l219 -355h-166v-73h205v-71h-205v-73h205v-128h84v128h206v73h-206v71h206v73h-167z" />
    <glyph glyph-name="glyph578" 
d="M559 401h-198v213h-71v-213h-199v-67h199v-213h71v213h198v67z" />
    <glyph glyph-name="glyph579" 
d="M116 334h418v67h-418v-67z" />
    <glyph glyph-name="glyph580" 
d="M164 131l161 164l162 -164l49 49l-164 162l164 162l-49 49l-162 -164l-161 164l-49 -49l164 -162l-164 -162z" />
    <glyph glyph-name="glyph581" 
d="M324 495q31 1 51 20q19 20 20 50q-1 31 -20 51q-20 19 -51 20q-29 -1 -49 -21q-19 -20 -20 -50q1 -30 20 -50q20 -19 49 -20v0zM116 334h418v67h-418v-67zM324 95q31 1 51 20q19 19 20 50q-1 30 -20 50q-20 19 -51 20q-29 -1 -49 -20q-19 -20 -20 -50q1 -31 20 -50
q20 -19 49 -20v0z" />
    <glyph glyph-name="glyph582" 
d="M109 411h432v72h-432v-72zM109 223h432v72h-432v-72z" />
    <glyph glyph-name="glyph583" 
d="M541 411v72h-113l47 83l-48 27l-62 -110h-256v-72h216l-65 -116h-151v-72h111l-46 -82l47 -28l62 110h258v72h-218l65 116h153z" />
    <glyph glyph-name="glyph584" 
d="M151 83l388 234v68l-388 234l-41 -63l344 -205l-344 -205z" />
    <glyph glyph-name="glyph585" 
d="M498 83l41 63l-344 205l344 205l-41 63l-388 -234v-68z" />
    <glyph glyph-name="glyph586" 
d="M153 124l389 234v68l-389 234l-39 -61l347 -207l-347 -208zM108 0h434v73h-434v-73z" />
    <glyph glyph-name="glyph587" 
d="M497 124l39 60l-347 208l347 207l-39 61l-389 -234v-68zM542 0v73h-434v-73h434z" />
    <glyph glyph-name="glyph588" 
d="M289 199h71v194h198v67h-198v193h-71v-193h-199v-67h199v-194zM91 137v-68h468v68h-468z" />
    <glyph glyph-name="glyph589" 
d="M149 364q13 44 31 62q17 19 44 18q45 -5 90 -40q46 -35 114 -40q54 1 90 35t51 96l-68 22q-14 -44 -31 -63q-18 -19 -45 -19q-44 5 -90 41q-47 35 -114 40q-53 0 -89 -34q-37 -34 -51 -98zM149 189q13 44 31 62q17 19 44 18q45 -5 90 -40q46 -35 114 -40q54 1 90 35
t51 96l-68 22q-14 -44 -31 -63q-18 -19 -45 -19q-44 5 -90 41q-47 35 -114 40q-53 0 -89 -34q-37 -34 -51 -98z" />
    <glyph glyph-name="glyph590" 
d="M206 441q83 1 129 59t47 160q-1 102 -47 160t-129 59q-83 -1 -129 -59t-47 -160q1 -102 47 -160t129 -59v0zM206 509q-49 0 -75 39t-26 112t26 112t75 39q50 0 76 -39q25 -39 25 -112t-25 -112q-26 -39 -76 -39v0zM144 202l395 229l-38 65l-395 -228zM443 -179
q83 1 130 59q46 58 47 160q-1 102 -47 160q-47 58 -130 59q-82 -1 -128 -59t-47 -160q1 -102 47 -160t128 -59v0zM443 -111q-49 0 -74 39q-26 39 -26 112t26 112q25 39 74 39q50 0 77 -39q26 -39 26 -112t-26 -112q-27 -39 -77 -39v0z" />
    <glyph glyph-name="glyph591" 
d="M205 472q82 1 129 59q46 58 47 160q-1 102 -47 160q-47 58 -129 59q-83 -1 -129 -59t-47 -160q1 -102 47 -160t129 -59v0zM205 540q-49 0 -75 39t-26 112t26 111q26 39 75 39t75 -39q26 -38 26 -111t-26 -112t-75 -39v0zM75 265l447 163l-24 68l-448 -162zM190 -220
q63 0 106 37q42 37 58 106q20 -22 47 -32q27 -11 59 -11q82 1 128 60q46 58 47 160q-1 101 -47 159q-46 59 -128 60q-64 0 -107 -37q-42 -37 -57 -107q-21 23 -48 33t-58 10q-82 -1 -128 -59t-47 -160q1 -102 47 -160t128 -59v0zM458 -51q-49 0 -75 39q-26 38 -26 112
q0 73 26 112t75 39q50 0 76 -39t26 -112q0 -74 -26 -112q-26 -39 -76 -39v0zM191 -151q-50 0 -75 39q-26 38 -26 111t26 112q25 40 75 40t76 -39t26 -113q0 -73 -26 -111q-26 -39 -76 -39v0z" />
    <glyph glyph-name="glyph620" horiz-adv-x="807" 
d="M408 -15q55 0 107 12q51 11 101 38l-25 55q-43 -23 -89 -35q-46 -11 -94 -11q-133 1 -208 80t-76 227q2 138 79 220q77 83 201 85q132 -1 205 -78t74 -211q0 -80 -20 -120q-20 -41 -58 -41q-29 -1 -42 17q-13 17 -13 61v136q-1 62 -37 97q-37 35 -97 36q-65 -1 -104 -34
q-40 -33 -50 -93l69 -12q7 36 28 55q20 19 57 19q25 0 42 -12q17 -13 18 -34q1 -22 -21 -35t-84 -31q-59 -18 -86 -46q-26 -28 -26 -72q1 -54 35 -84q35 -30 91 -30q37 0 68 14t50 40h2q12 -26 36 -39q23 -13 59 -13q72 0 109 55q38 56 38 166q-1 156 -92 251
q-90 94 -251 97q-153 -3 -246 -103q-94 -100 -97 -261q2 -174 94 -269q92 -96 253 -97v0zM392 209q-29 0 -44 13q-16 14 -16 40q0 20 13 34q14 14 48 24q39 12 59 22q19 11 23 21h2v-80q-1 -34 -24 -54q-24 -20 -61 -20v0z" />
    <glyph glyph-name="glyph640" horiz-adv-x="0" 
d="M0 382l-32 35l-140 -132v15l-152 -140l32 -34l120 111v-15z" />
    <glyph glyph-name="glyph642" horiz-adv-x="0" 
d="M0 424l-35 39l-176 -158v1l-214 -199l33 -35l156 146v-5z" />
    <glyph glyph-name="glyph643" horiz-adv-x="0" 
d="M-90 623h90v87h-90v-87z" />
    <glyph glyph-name="glyph644" horiz-adv-x="0" 
d="M-288 335h288v59h-288v-59z" />
  </font>
</defs>
</svg>
